<?xml version="1.0" standalone="no"?>
<!DOCTYPE svg PUBLIC "-//W3C//DTD SVG 1.1//EN" "http://www.w3.org/Graphics/SVG/1.1/DTD/svg11.dtd" >
<svg xmlns="http://www.w3.org/2000/svg" xmlns:xlink="http://www.w3.org/1999/xlink" version="1.1">
<metadata>
Created by FontForge 20170731 at Thu Sep 15 14:19:52 2016
 By Aleksey,,,
Copyright (c) 2016 by Harder Type Foundry. All rights reserved.
</metadata>
<defs>
<font id="Heritage" horiz-adv-x="320" >
  <font-face 
    font-family="Heritage"
    font-weight="400"
    font-stretch="normal"
    units-per-em="1000"
    panose-1="2 0 5 3 0 0 0 2 0 3"
    ascent="750"
    descent="-250"
    x-height="446.5"
    cap-height="782"
    bbox="-1419.88 -619.364 2118.41 1079.8"
    underline-thickness="50"
    underline-position="-150"
    unicode-range="U+0020-2122"
  />
<missing-glyph horiz-adv-x="171" 
 />
    <glyph glyph-name="O_r" unicode="Or" horiz-adv-x="852" 
d="M484 204q37 16 62 34.5t44 43.5q14 19 26 41t23 49q5 12 3 15t-7 11q-6 10 -6 23t3.5 26.5t10 25t13.5 18.5t15 8.5t15.5 -1t12.5 -7.5t6 -12q0 -7 -3 -18.5t-6 -22.5q-2 -4 -2 -10.5t10 -10.5q14 -5 33.5 -15.5t31.5 -19.5t17 -18t4.5 -20t-5.5 -24.5t-12 -32.5
q-14 -35 -28 -69t-15 -55q0 -15 13 -20q13 -4 31.5 14t37 43.5t33.5 50.5l21 35q2 3 3.5 6t3.5 5q3 6 9.5 6.5t12 -3t8 -9.5t-1.5 -13q-2 -4 -3 -7q-11 -20 -28.5 -50.5t-40 -58.5t-48.5 -47t-53 -14q-23 4 -35 18t-13 32q0 15 5.5 34t13 38.5t16 39t15.5 36.5q3 7 5.5 14
t3 13.5t-2.5 13t-13 12.5q-11 7 -24 11t-21 -13q-12 -29 -26.5 -54.5t-32.5 -48.5q-34 -41 -79.5 -69t-105.5 -36q-20 -2 -32.5 -9.5t-26.5 -21.5q-5 -5 -9 -10t-9 -10q-42 -47 -86 -69t-85.5 -22.5t-78 20t-62.5 58.5q-24 35 -34.5 79t-10.5 93t9 100t24 98.5t34.5 90
t41.5 73.5q6 8 13 14.5t18 3.5q11 -2 17.5 -12.5t3.5 -21.5q-2 -6 -5.5 -10.5t-6.5 -9.5q-18 -24 -35 -60.5t-30 -79.5t-21 -90t-8.5 -91t8.5 -83t29 -66t45.5 -41t55 -12.5t61.5 19t64 52.5q31 34 57.5 77.5t46.5 90.5t34 95t22 93q2 15 4 37.5t2 48.5t-2.5 52.5t-9.5 49.5
q-8 26 -24.5 47t-45.5 23q-27 2 -55.5 -16.5t-50.5 -47.5q-33 -43 -51 -105.5t-15.5 -127.5t28 -123.5t78.5 -93.5q9 -5 9 -15t-5 -18t-14.5 -12t-21.5 2q-63 43 -93.5 111.5t-33.5 144t18 148t61 124.5q32 40 73 62.5t82 18.5q35 -3 64 -27.5t46 -77.5q8 -26 11.5 -54.5
t3.5 -56.5t-2.5 -54t-5.5 -47q-10 -60 -27.5 -118.5t-43.5 -113.5q-12 -26 -2.5 -35.5t29.5 -1.5z" />
    <glyph glyph-name="O_s" unicode="Os" horiz-adv-x="830" 
d="M483 202q48 17 82 48t59 68.5t44 78.5t38 80q4 8 12.5 10t16.5 -1.5t12.5 -12t1.5 -20.5q-5 -19 -7.5 -35t-4.5 -32q-2 -26 3 -50.5t11 -49t8.5 -48t-3.5 -47.5q-2 -5 1 -10t12 1q20 19 34.5 41.5t29.5 45.5q5 8 8.5 15.5t7.5 13.5t10.5 6.5t12 -3t8 -9.5t-1.5 -13
l-12 -24q-12 -22 -27.5 -44.5t-34 -42t-40 -35.5t-45.5 -25q-19 -7 -40 -8.5t-40 2.5t-34 14t-22 26q-4 9 -1.5 17t8.5 11.5t13.5 3t14.5 -7.5q18 -23 41.5 -21t39.5 22q14 19 15.5 41t-3.5 45q-3 15 -7.5 28.5t-6.5 27.5q-2 11 -10.5 10.5t-13.5 -8.5q-21 -33 -45.5 -62
t-53.5 -51.5t-64 -37t-77 -20.5q-20 -2 -32.5 -9.5t-26.5 -21.5q-5 -5 -8.5 -10t-8.5 -10q-42 -47 -86.5 -69t-86 -22.5t-77.5 20t-62 58.5q-36 52 -43 124.5t6 147.5t40 145t60 117q6 8 13 14.5t19 3.5q11 -2 17.5 -12.5t2.5 -21.5q-2 -6 -5.5 -10.5t-6.5 -9.5
q-18 -24 -35 -60.5t-30 -79.5t-21 -90t-8.5 -91t8.5 -83t29 -66t45.5 -41t55 -12.5t61.5 19t65 52.5q31 34 57 77.5t46.5 90.5t34 95t21.5 93q3 15 5 37.5t2 48.5t-3 52.5t-10 49.5q-8 26 -24 47t-45 23q-28 2 -56.5 -16.5t-50.5 -47.5t-37.5 -67t-23 -80t-6 -86t13.5 -84.5
t35 -74.5t59 -58q8 -5 8.5 -15t-4.5 -18t-14.5 -12t-21.5 2q-63 43 -93.5 111.5t-34 144t17.5 148t62 124.5q32 40 73 62.5t81 18.5q35 -3 64 -27.5t46 -77.5q8 -26 11.5 -54.5t4 -56.5t-2 -54t-5.5 -47q-10 -60 -27.5 -118.5t-43.5 -113.5q-13 -26 -3.5 -35.5t29.5 -1.5z
" />
    <glyph glyph-name="O_x" unicode="Ox" horiz-adv-x="952" 
d="M486 204q51 17 85.5 52.5t60.5 74.5q18 26 33.5 50t32.5 41q24 21 47 21q28 0 42.5 -13t20.5 -36q3 -10 3 -21t2 -16t7 -1.5t18 21.5q11 15 21 30.5t19 30.5q5 8 13 9t14 -2.5t7.5 -12t-6.5 -19.5q-19 -31 -40.5 -63t-44.5 -61q-5 -6 -7 -12t-3 -17q-1 -25 -1 -47.5
t3.5 -39t12 -25.5t23.5 -8q18 1 36 19.5t34.5 43t30.5 49.5t23 41q3 6 9.5 6.5t12 -2.5t8 -9.5t-1.5 -13.5q-9 -17 -21.5 -40.5t-28 -47t-33 -44t-37.5 -31.5q-29 -16 -57.5 -9.5t-42.5 38.5q-10 24 -13 57q-2 17 -8 16.5t-14 -9.5q-26 -29 -50.5 -54.5t-47.5 -44.5
q-9 -8 -16.5 -7.5t-12 6t-4.5 13t7 13.5q25 23 58.5 58.5t71.5 79.5q10 13 13 19.5t3 23.5q1 18 0.5 32.5t-2.5 27.5q-3 19 -15 20.5t-25 -7.5q-16 -11 -30.5 -34t-33.5 -50q-21 -31 -44 -58t-51 -48t-60 -34.5t-71 -17.5q-20 -2 -32.5 -9.5t-27.5 -21.5q-8 -11 -17 -20
q-42 -47 -86 -69t-85.5 -22.5t-78 20t-62.5 58.5q-24 35 -34.5 79t-10.5 93t9 100t24 98.5t34.5 90t41.5 73.5q6 8 13 14.5t18 3.5q11 -2 17.5 -12.5t3.5 -21.5q-2 -6 -5.5 -10.5t-6.5 -9.5q-18 -24 -35 -60.5t-30 -79.5t-21 -90t-8.5 -91t8.5 -83t29 -66t45.5 -41t55 -12.5
t61.5 19t64 52.5q31 34 57.5 77.5t46.5 90.5t34 95t22 93q2 15 4 37.5t2 48.5t-2.5 52.5t-9.5 49.5q-8 26 -24.5 47t-45.5 23q-27 2 -55.5 -16.5t-51.5 -47.5q-33 -43 -50.5 -105.5t-15 -127.5t28 -123.5t78.5 -93.5q8 -5 8.5 -15t-4.5 -18t-14.5 -12t-21.5 2
q-63 43 -93.5 111.5t-34 144t17.5 148t62 124.5q32 40 73 62.5t82 18.5q35 -3 64 -27.5t46 -77.5q8 -26 11.5 -54.5t3.5 -56.5t-2.5 -54t-5.5 -47q-10 -60 -27.5 -118.5t-43.5 -113.5q-12 -26 -2.5 -35.5t29.5 -1.5z" />
    <glyph glyph-name="O_z" unicode="Oz" horiz-adv-x="902" 
d="M485 211q34 13 59 38t46.5 55t42 60t45.5 54q27 25 56.5 31.5t54 -3.5t39.5 -34.5t13 -61.5q-3 -42 -35 -90q-10 -14 -21.5 -30t-22.5 -28q-20 -18 -19 -29.5t12 -23.5q5 -7 8.5 -14l6.5 -13q20 16 42 37.5t42.5 45t37.5 48t28 46.5q4 6 10.5 6.5t12.5 -2.5t8.5 -9.5
t-1.5 -13.5q-12 -27 -34 -58t-50.5 -61.5t-60.5 -58t-63 -47.5q-19 -14 -46 -30t-51 -35.5t-39.5 -41.5t-11.5 -47q3 -23 32 -23q16 0 35 15t36 37.5t29 48.5t15 48q2 10 10.5 17.5t17 10t14.5 -1t3 -15.5q-6 -33 -20.5 -67t-35.5 -62.5t-47 -48t-56 -21.5q-25 -2 -42.5 7
t-27 24t-10.5 34.5t7 39.5q9 24 30 45t46 39.5t51.5 34.5t46.5 30q-6 31 -41 41q-16 5 -53 -17q-8 -5 -15.5 -2t-12 9.5t-4.5 14.5t7 13q17 11 28 17.5t28 17.5q23 14 52.5 39t48.5 54q11 17 17 34.5t8 33.5q2 19 -4.5 32.5t-18.5 18.5t-27.5 0.5t-31.5 -20.5
q-22 -22 -43 -51.5t-42.5 -58.5t-45 -54.5t-51.5 -38.5q-43 -21 -92 -27q-20 -2 -32.5 -9.5t-26.5 -21.5q-5 -5 -8.5 -10t-8.5 -10q-42 -46 -86.5 -68t-86 -22.5t-77.5 19.5t-62 58q-36 52 -42.5 124.5t6 148t39.5 145t60 116.5q6 8 13 14.5t19 3.5q11 -2 17.5 -12.5
t2.5 -21.5q-2 -5 -5 -9.5t-7 -9.5q-18 -24 -35 -61t-30 -80t-21 -90t-8.5 -91t8.5 -83t29 -66t45.5 -40.5t55 -12t61.5 18.5t65 53q31 34 57 77t46.5 90t34 95t21.5 93q3 15 5 37.5t2 48.5t-2.5 52.5t-9.5 49.5q-8 26 -24.5 47t-45.5 23q-28 2 -56.5 -16t-50.5 -47
t-37.5 -67t-23 -80.5t-6 -86.5t13.5 -84.5t35 -75t59 -57.5q8 -5 8.5 -15t-4.5 -18t-14.5 -12t-21.5 2q-63 43 -93.5 111.5t-34 144t17.5 148t62 124.5q32 41 73 63t81 19q35 -3 64.5 -28t46.5 -78q8 -26 11.5 -54.5t3.5 -56.5t-2.5 -54t-5.5 -47q-10 -60 -27.5 -118.5
t-43.5 -113.5q-13 -26 -3 -35.5t29 -1.5z" />
    <glyph glyph-name="J_r" unicode="Jr" horiz-adv-x="740" 
d="M550 491q14 14 30.5 8t18.5 -19q0 -7 -3 -19t-6 -23q-2 -3 -2 -9.5t10 -10.5q14 -5 33.5 -16t31.5 -20q13 -9 18 -18t4.5 -19.5t-5.5 -24.5t-12 -32t-16 -35.5t-16.5 -33.5t-13 -30.5t-5.5 -24.5q0 -17 13 -20q13 -4 31.5 14t37 43.5t33.5 50.5l21 35q2 2 3.5 5t3.5 6
q3 6 9.5 6t12 -3t8 -9.5t-1.5 -13.5l-3 -6q-11 -20 -29 -51t-40.5 -59t-48 -47t-52.5 -14q-23 4 -35 18t-13 33q0 15 6.5 33t15 36.5t17.5 37.5t16 36q3 7 6 14.5t3.5 14t-3 13t-13.5 12.5q-9 5 -21 7.5t-24 -9.5q-16 -17 -38 -35t-46 -35t-48.5 -31.5t-45.5 -23.5
t-34 -17.5t-23 -33.5q-15 -37 -32.5 -73.5t-41 -67t-55 -52.5t-75.5 -29q-32 -5 -61 3.5t-49 35.5q-12 17 -15 40t3 48t22.5 49t43.5 44q21 16 45.5 28.5t49 22t48 16.5t42.5 12q9 3 15 -3t6.5 -16t-5.5 -20t-21 -14q-14 -5 -33 -11.5t-40 -15.5t-42 -20.5t-38 -24.5
q-27 -21 -36 -50t5 -48q10 -14 23.5 -18.5t27.5 -2.5q33 4 58.5 24.5t45 49t33.5 60t25 57.5q13 31 24 63l22 64q10 32 23.5 73t27.5 84.5t27 85t22 73.5q2 7 3 16t-1.5 16.5t-8.5 11.5t-19 3q-23 -4 -42.5 -6.5t-38.5 -5t-37 -7t-38 -13.5q-18 -8 -32 -21.5t-22.5 -29.5
t-12.5 -34t-2 -34q3 -27 15.5 -41t30 -18t38 1t38.5 17q8 6 16.5 3.5t13.5 -9t4.5 -16t-9.5 -16.5q-29 -22 -61.5 -27.5t-61.5 3.5t-50 31t-26 54q-5 28 0.5 57t19.5 53.5t35.5 43.5t48.5 28q31 10 66.5 17t71.5 14t69.5 15.5t59.5 21.5q12 6 21.5 1.5t14.5 -13.5t4.5 -19
t-8.5 -16q-21 -17 -26 -33t-14 -41l-101 -322q-6 -17 -3.5 -29.5t13.5 -10.5q14 3 30.5 13t34 22.5t33.5 26.5t28 26q8 7 7 18t-3 16q-5 10 -4.5 22t4 24t9 22.5t12.5 17.5z" />
    <glyph glyph-name="Q_y" unicode="Qy" horiz-adv-x="895" 
d="M337 43q19 -15 36.5 -40t35.5 -54t38 -57.5t44 -50.5t54 -34.5t68 -9.5q26 3 52.5 19.5t44.5 35.5q7 7 16.5 8.5t17.5 -4.5q9 -6 10.5 -17.5t-6.5 -19.5q-24 -24 -57.5 -45t-68.5 -25q-46 -6 -81.5 5.5t-64 33.5t-51.5 51.5t-43.5 60t-41.5 58t-44 45.5
q-15 11 -37.5 15.5t-44.5 -3.5q-23 -9 -46 -14t-46 -5q-25 0 -48.5 6.5t-42.5 22.5q-16 13 -25 32t-7 40q5 36 37 55q20 11 42.5 13t44.5 -2q58 -9 107 -39q13 -9 25.5 -9.5t23.5 4t20.5 11t16.5 12.5q36 34 66 72t56 81q30 51 52 107.5t30 115.5q5 34 2.5 68.5t-16.5 65.5
q-15 34 -44 52t-62.5 22.5t-68.5 -3.5t-63 -26q-50 -32 -79.5 -85.5t-41.5 -110.5q-5 -25 -7.5 -55.5t1.5 -61t14.5 -58t31.5 -45.5q14 -13 34 -19.5t40 -1.5q19 5 33 18.5t22 30.5q6 14 6 28t-9 26q-10 12 -8 23.5t10.5 16.5t20.5 2t22 -19q13 -21 14 -45t-9 -47
q-11 -26 -30.5 -46.5t-45.5 -31.5q-25 -9 -52 -7t-50 14q-36 18 -57 50.5t-30 71t-8.5 79.5t6.5 76q6 34 18 69t30 66.5t42.5 58t55.5 45.5q37 23 80.5 33t85.5 4t78.5 -28t59.5 -64q21 -38 25.5 -82t-0.5 -87q-8 -65 -32.5 -125.5t-56.5 -116.5q-30 -52 -62.5 -96.5
t-77.5 -83.5q-3 -2 -6.5 -8.5t-6 -14t-1.5 -15t9 -12.5zM184 89q-18 11 -38 18t-41 9q-13 1 -27 -0.5t-24 -12.5q-6 -7 -5 -16t6 -16q8 -11 22 -16.5t28 -7.5q20 -2 39 0.5t37 8.5q17 4 18 14.5t-15 18.5zM703 83q-5 -12 -11.5 -19t-19.5 -13q-32 -15 -68.5 -39t-62.5 -56
q-17 -21 -20 -44.5t5.5 -42.5t26.5 -30.5t42 -9.5q30 2 51.5 18.5t38 40.5t28 52.5t20.5 54.5q2 9 -3.5 13t-13.5 3t-17 -6.5t-13 -15.5q-6 -18 -15.5 -39t-21.5 -39t-26.5 -30.5t-30.5 -12.5q-11 0 -19 6.5t-10.5 16t0.5 21.5t13 24q19 20 43.5 37.5t44.5 28.5
q40 21 69.5 36t52.5 29.5t41.5 31t36.5 40t37.5 57t45.5 82.5q4 7 1.5 13.5t-8.5 9.5t-12.5 3t-10.5 -6q-12 -21 -27 -48t-32.5 -54t-37 -49.5t-40.5 -34.5q-21 -11 -15 14q22 73 40.5 140.5t44.5 141.5q6 16 1 25.5t-14.5 12t-19 -1.5t-12.5 -16l-53 -178q-4 -14 -12.5 -33
t-20.5 -36t-26.5 -29.5t-30.5 -13.5q-25 -1 -24 39q1 27 7.5 56.5t15.5 59.5t19 59t19 55q6 16 1 25.5t-14 12t-19 -1.5t-13 -16q-8 -25 -21 -63.5t-24.5 -80t-16 -80.5t4.5 -66q8 -22 25.5 -32.5t42.5 -6.5q17 2 28.5 8.5t19.5 11.5z" />
    <glyph glyph-name="R_y" unicode="Ry" horiz-adv-x="988" 
d="M465 282q-14 12 -36.5 20.5t-46.5 8.5t-44.5 -10t-29.5 -34q-3 -10 -5 -16.5t-3.5 -13t-3.5 -13.5t-6 -17q-14 -41 -39 -80.5t-58.5 -69t-75 -43.5t-87.5 -2q-18 4 -24 14t-3.5 20.5t10.5 17t18 3.5q39 -12 71.5 -2t58 32.5t44.5 54.5t31 65q18 48 28 84.5t17.5 71
t15.5 72t22 87.5q6 23 14.5 47.5t20.5 48t28 43t38 32.5q12 7 22 4.5t15.5 -10t5.5 -17t-7 -16.5q-18 -15 -30 -28.5t-21 -29t-16 -34.5t-14 -44q-8 -23 -13 -44t-10 -40q-4 -28 7 -46t37 -18q15 1 29.5 2.5t28.5 5.5q37 9 65.5 29t48 48t29.5 61t10 66q0 37 -12 73
t-36.5 63.5t-60.5 45t-84 18.5q-61 2 -113 -23.5t-89 -68.5q-37 -44 -54 -100.5t-7 -119.5q6 -46 33 -80q9 -12 7 -23.5t-10 -17.5t-19.5 -5t-21.5 14q-14 17 -25 44t-15 43q-19 83 4.5 158t76.5 130q44 46 103 73t127 28q60 0 106.5 -21t78 -56t47 -80.5t14.5 -93.5
q0 -33 -8 -66t-24 -63t-39.5 -56t-54.5 -44q-17 -10 -21 -20t-2 -19t8 -16.5t10 -11.5q38 -45 60 -98.5t11 -113.5q-3 -19 -8 -41t-9 -45t-6.5 -46.5t-1.5 -45.5q0 -24 6 -44.5t17 -35.5t26.5 -22t34.5 -4q13 1 18.5 -5.5t5.5 -15t-5 -16t-14 -8.5q-35 -5 -60.5 5.5
t-42.5 31.5t-25.5 50t-9.5 62q-1 24 2 48.5t6.5 48.5t7.5 46.5t6 41.5q7 55 -17.5 105t-62.5 87zM804 118q-8 -5 -19.5 -11t-28.5 -9q-24 -3 -42 7t-26 32q-9 27 -4.5 66t16 80.5t24.5 80t21 63.5q3 12 13 16.5t19 2t14 -12t-1 -25.5q-9 -26 -19 -55t-19 -59t-15.5 -59.5
t-7.5 -56.5q-1 -41 24 -40q16 1 30.5 13.5t26.5 30t20.5 36.5t12.5 33l53 177q3 12 12.5 16.5t19 2t14.5 -12t-1 -25.5q-26 -74 -44 -142t-40 -141q-8 -25 14 -13q21 12 40.5 34.5t37.5 49t33 53.5t27 48q3 6 9.5 6.5t12.5 -3t8.5 -9.5t-1.5 -13q-26 -49 -45.5 -83
t-37.5 -57.5t-36.5 -40t-41.5 -31t-52.5 -29.5t-69.5 -36q-20 -11 -44.5 -28.5t-42.5 -37.5q-11 -11 -14 -23t-0.5 -22t10.5 -16t19 -6q16 0 30.5 12t26.5 30.5t21.5 39.5t15.5 39q4 10 13 15.5t17.5 6t14 -3.5t2.5 -12q-9 -27 -20.5 -55.5t-28 -52.5t-38 -40.5t-51.5 -18.5
q-24 -2 -42 10t-26.5 31t-5.5 42.5t20 44.5q26 32 62.5 55.5t68.5 39.5q13 6 19.5 12.5t11.5 19.5z" />
    <glyph glyph-name="Z_y" unicode="Zy" horiz-adv-x="841" 
d="M691 -51q-9 -25 -22 -49.5t-30 -44t-38.5 -32.5t-48.5 -14q-23 -2 -41.5 6t-30.5 23t-16.5 35t0.5 42q-63 29 -115.5 76.5t-106.5 99.5q-11 10 -26.5 22.5t-33 23.5t-36 19t-35.5 8q-23 0 -37 -12.5t-17 -26.5q-4 -24 5.5 -38t26.5 -18.5t37.5 0.5t38.5 21q9 8 19 6.5
t17.5 -9t9.5 -17.5t-4 -19q-32 -29 -70.5 -35t-70.5 6t-51.5 40t-13.5 69q4 30 20 49t38 28t48.5 8t53.5 -11q15 -5 28 -10t26 -4t27 10.5t30 34.5q34 56 67 117.5t66.5 122.5t70 118.5t78.5 107.5q16 16 10 28.5t-29 17.5q-54 11 -101.5 23.5t-95.5 7.5q-24 -3 -42 -13
t-30.5 -25.5t-20 -35t-10.5 -39.5q-4 -29 5 -49.5t27 -32t41.5 -12.5t48.5 9q11 4 19.5 -1.5t11.5 -15.5t-0.5 -20t-15.5 -15q-38 -15 -74 -11t-63.5 22t-43.5 49t-14 72q2 31 13.5 61.5t32.5 54t50 38t66 15.5q42 1 76.5 -4t66.5 -11.5t64.5 -12t70.5 -5.5q26 0 48 9.5
t47 12.5q15 2 23.5 -5.5t10.5 -18t-2.5 -20.5t-14.5 -14q-42 -14 -81.5 -50t-77 -85.5t-72.5 -107.5t-66 -114.5t-58.5 -108t-50.5 -87.5q-4 -8 -9.5 -18.5t-9 -22.5t-5 -24t2.5 -23q4 -13 21.5 -33t43.5 -42.5t57.5 -43.5t62.5 -36q17 22 45 38q23 14 47.5 26.5t44.5 22.5
q17 10 20.5 16.5t7.5 15.5l10 34q-8 -5 -19.5 -11t-28.5 -9q-24 -3 -42 7t-26 32q-9 27 -4.5 66t16 80.5t24.5 80t21 63.5q3 12 13 16.5t19 2t14 -12t-1 -25.5q-9 -26 -19 -55t-19 -59t-15.5 -59.5t-7.5 -56.5q-1 -41 24 -40q16 1 30.5 13.5t26.5 30t20.5 36.5t12.5 33
l53 177q3 12 12.5 16.5t19 1.5t14.5 -12.5t-1 -25.5q-13 -37 -23.5 -71.5t-20.5 -69t-19.5 -69.5t-20.5 -71q-10 -31 25 -7q24 21 42 42.5t31.5 43t24.5 44.5t23 47q3 6 9.5 6.5t12.5 -2.5t8.5 -9.5t-1.5 -13.5q-13 -27 -25.5 -52.5t-28 -50t-35.5 -48t-48 -46.5
q-33 -27 -60 -41t-57 -29q-26 -13 -54.5 -26t-48.5 -36q30 -5 63.5 2t54.5 27q7 6 15.5 6t15.5 -4t10 -12.5t-1 -18.5zM616 -96q-53 -18 -107 -3q-2 -20 7.5 -35t31.5 -15q20 0 37 15.5t31 37.5z" />
    <glyph glyph-name="g_j" unicode="gj" horiz-adv-x="543" 
d="M230 415q-4 -2 -7.5 1t-8.5 8q-13 12 -25.5 16.5t-29.5 5.5q-24 2 -50 -12q-31 -17 -56.5 -56t-39.5 -86q-13 -44 -13 -86.5t18 -71.5q13 -20 33 -30t46 -4q16 3 34 14q8 6 12.5 4.5t2.5 -9.5l-9 -31q-4 -10 -8 -16t-21 -16q-32 -16 -69 -39t-63 -55q-17 -21 -20 -44.5
t5 -42.5t25.5 -30.5t41.5 -9.5q29 2 51 18t38.5 40t28.5 52t21 55q2 8 -3.5 12t-13.5 3.5t-17 -6t-13 -15.5q-6 -18 -15.5 -39t-21.5 -39.5t-26.5 -30.5t-30.5 -12q-11 0 -19 6t-10.5 16t0.5 22t13 23q19 20 43.5 37.5t44.5 28.5q72 33 127.5 73.5t101.5 91.5
q22 25 41.5 52.5t38.5 57.5l-55 -187q-4 -9 -7.5 -15t-20.5 -17q-32 -15 -69 -38t-63 -56q-17 -21 -20.5 -44.5t4.5 -42.5t25.5 -30.5t41.5 -9.5q30 2 52 18.5t38.5 40t28.5 52t21 54.5q2 8 -3.5 12t-14 3.5t-17.5 -6t-13 -15.5q-6 -18 -15.5 -39t-21.5 -39t-26.5 -30.5
t-30.5 -12.5q-11 0 -18.5 6.5t-10.5 16t0 21.5t14 24q18 19 42.5 37t44.5 29q40 22 69.5 38.5t52 31t41 31t36 39.5t36.5 56t44 80q4 7 1.5 13t-8 9t-12.5 2.5t-10 -6.5q-14 -24 -27 -47.5t-27 -46t-31 -43.5t-39 -42q-35 -24 -25 7q22 73 40.5 141.5t44.5 142.5
q7 17 0.5 26.5t-17.5 11.5t-16.5 -1.5t-8.5 -10.5q-36 -69 -72 -127t-87 -118q-23 -27 -43.5 -46.5t-36.5 -27.5q-13 -6 -16 0t1 18q11 36 20 69t18.5 65t19.5 64.5t22 69.5q6 16 1 26t-14 13t-18.5 -1t-12.5 -16q-2 -7 -9 -9zM503 562q13 0 22 -9t9 -22t-9 -21.5t-22 -8.5
t-21.5 8.5t-8.5 21.5t8.5 22t21.5 9zM195 376q8 -20 4 -50.5t-14 -63.5q-12 -41 -35.5 -74.5t-49.5 -44.5q-17 -7 -27.5 -1t-16.5 18q-10 21 -7 56t14 71q11 33 26.5 61t32.5 40q16 11 29 13.5t23 -1.5q14 -6 21 -24z" />
    <glyph glyph-name="y_j" unicode="yj" horiz-adv-x="518" 
d="M476 557q13 0 22 -8.5t9 -21.5t-9 -22t-22 -9t-21.5 9t-8.5 22t8.5 21.5t21.5 8.5zM110 73q-4 -10 -8 -16t-21 -17q-32 -15 -69 -38t-63 -56q-17 -21 -20 -44.5t5 -42t25.5 -30t41.5 -9.5q29 2 51 18t38.5 40t28.5 52t21 55q2 8 -3.5 12t-13.5 3t-17 -6.5t-13 -15.5
q-6 -18 -15.5 -39t-21.5 -39t-26.5 -30.5t-30.5 -12.5q-11 0 -19 6.5t-10.5 16t0.5 21.5t13 24q19 20 43.5 37.5t44.5 28.5q75 34 131 75.5t103 95.5q20 23 39 49t36 55l-55 -187q-4 -9 -7.5 -15t-20.5 -17q-32 -16 -69 -39t-63 -55q-17 -21 -20.5 -44.5t4.5 -42.5
t25.5 -30.5t41.5 -9.5q30 2 52 18.5t38.5 40t28.5 52t21 54.5q2 8 -3.5 12t-14 3.5t-17.5 -6t-13 -15.5q-6 -18 -15.5 -39t-21.5 -39t-26.5 -30.5t-30.5 -12.5q-11 0 -18.5 6t-10.5 16t0 22t14 23q18 20 42.5 37.5t44.5 29.5q40 22 69.5 38t52 31t41 31.5t36 39.5t36.5 55.5
t44 79.5q4 7 1.5 13.5t-8 9.5t-12.5 2.5t-10 -6.5q-14 -24 -27 -47.5t-27 -46t-31 -43.5t-39 -42q-17 -13 -23.5 -10.5t-1.5 17.5q22 72 40.5 141t44.5 143q7 17 0.5 26.5t-17.5 11.5q-12 2 -17.5 -2.5t-9.5 -12.5q-29 -64 -67.5 -123t-83.5 -113q-25 -29 -47 -50.5
t-39 -29.5q-11 -5 -14.5 -1t-1.5 14l85 285q4 12 -1.5 20t-14.5 10.5t-18.5 -2t-13.5 -18.5q-9 -29 -17.5 -57.5t-16.5 -58.5l-17 -57q-4 -14 -13 -33t-21 -36.5t-26.5 -30t-29.5 -13.5q-27 -1 -24 40q1 25 7 53t14.5 56.5t17.5 56t18 52.5q1 3 2.5 8.5t3.5 8.5
q4 12 -1 20.5t-13.5 11.5t-18.5 -1.5t-14 -17.5q-2 -3 -3.5 -9t-3.5 -10q-9 -27 -21.5 -63.5t-21.5 -74.5t-12.5 -73t5.5 -59q8 -22 25.5 -32t41.5 -6q8 1 15 3t12 4q14 6 16 1t-6 -29z" />
    <glyph glyph-name="j_j" unicode="jj" horiz-adv-x="368" 
d="M325 563q13 0 22 -8.5t9 -21.5t-9 -22t-22 -9t-21.5 9t-8.5 22t8.5 21.5t21.5 8.5zM-41 79q-4 -10 -8 -16t-21 -17q-32 -15 -69 -38t-63 -56q-17 -21 -20 -44.5t5 -42t25.5 -30t41.5 -9.5q29 2 51 18t38.5 40t28.5 52t21 55q2 8 -3.5 12t-13.5 3t-17 -6.5t-13 -15.5
q-6 -18 -15.5 -39t-21.5 -39t-26.5 -30.5t-30.5 -12.5q-11 0 -19 6.5t-10.5 16t0.5 21.5t13 24q19 20 43.5 37.5t44.5 28.5q75 34 131 75.5t103 95.5q20 23 39 49t36 55l-55 -187q-4 -9 -7.5 -15t-20.5 -17q-32 -16 -69 -39t-63 -55q-17 -21 -20.5 -44.5t4.5 -42.5
t25.5 -30.5t41.5 -9.5q30 2 52 18.5t38.5 40t28.5 52t21 54.5q2 8 -3.5 12t-14 3.5t-17.5 -6t-13 -15.5q-6 -18 -15.5 -39t-21.5 -39t-26.5 -30.5t-30.5 -12.5q-11 0 -18.5 6t-10.5 16t0 22t14 23q18 20 42.5 37.5t44.5 29.5q40 22 69.5 38t52 31t41 31.5t36 39.5t36.5 55.5
t44 79.5q4 7 1.5 13.5t-8 9.5t-12.5 2.5t-10 -6.5q-14 -24 -27 -47.5t-27 -46t-31 -43.5t-39 -42q-17 -13 -23.5 -10.5t-1.5 17.5q22 72 40.5 141t44.5 143q7 17 0.5 26.5t-17.5 11.5q-12 2 -17.5 -2.5t-9.5 -12.5q-29 -64 -67.5 -123t-83.5 -113q-25 -29 -47 -50.5
t-39 -29.5q-13 -6 -16 0t1 18l84 279q5 12 -0.5 20.5t-14.5 11.5t-19 -1t-14 -18q-25 -86 -50.5 -174.5t-51.5 -173.5zM109 563q13 0 22 -9t9 -22t-9 -21.5t-22 -8.5t-22 8.5t-9 21.5t9 22t22 9z" />
    <glyph glyph-name="t_t" unicode="tt" horiz-adv-x="338" 
d="M235 101q-24 -4 -41.5 6t-25.5 33q-3 6 -4 13.5t-2 15.5q-18 -26 -40 -45t-48 -23q-24 -4 -41.5 6t-25.5 33q-4 9 -5 20t-1 24q2 34 10.5 68t17.5 66q7 23 15 52t17 61l7.5 22.5t6.5 21.5q3 10 -1.5 12t-11.5 2h-29q-14 1 -20 8.5t-5.5 16t6.5 15.5t18 7h44
q14 0 16.5 4.5t4.5 9.5q12 42 20.5 71.5t10.5 38.5q3 12 13 16t19 1.5t14 -12t-1 -25.5q-2 -5 -9 -29.5t-18 -59.5q-2 -5 -1 -9.5t10 -4.5q20 -1 40.5 -1h41.5q14 0 16 4.5t4 9.5q12 42 21 71.5t11 38.5q3 12 13 16t19 1.5t14 -12t-1 -25.5q-2 -5 -9 -29.5t-18 -59.5
q-2 -5 -1 -9.5t9 -4.5l33 -1q12 0 17.5 -7.5t4.5 -16.5t-8 -16t-22 -7h-36q-14 1 -20 -16q-4 -12 -7.5 -24t-7.5 -25q-9 -29 -17 -57t-15 -51q-9 -33 -17.5 -66t-10.5 -68q-2 -17 3 -27q5 -14 22 -12q20 2 39 22t36 47q14 21 24.5 41t18.5 34q4 6 10.5 6.5t12.5 -2.5
t8.5 -9.5t-1.5 -13.5q-9 -15 -19 -34t-23 -39q-20 -33 -46.5 -61t-58.5 -33zM143 489q-14 1 -20 -16q-4 -12 -7.5 -24t-7.5 -25q-8 -29 -16.5 -57t-14.5 -51q-10 -33 -18.5 -66t-10.5 -68q-2 -17 3 -27q5 -14 22 -12q21 2 39.5 22t35.5 47q7 11 13 21t11 19q4 17 8.5 33.5
t9.5 32.5q6 23 14.5 52t17.5 61l7.5 22.5t6.5 21.5q2 10 -2 12t-11 2h-80z" />
    <glyph glyph-name="T_h" unicode="Th" horiz-adv-x="714" 
d="M317 502q-11 -41 -22.5 -83.5t-24 -83.5t-25 -79t-25.5 -69q-13 -33 -35 -64t-50.5 -53t-62.5 -30.5t-73 4.5q-10 3 -17 -3t-8.5 -15.5t5.5 -20t25 -14.5q45 -14 87 -1.5t77 40.5t62 67t42 79q12 32 24.5 71t25 81t24.5 85t24 84q4 17 7.5 30t7 25t7 24.5t8.5 29.5
q3 11 -3 18.5t-15.5 9.5t-19 -1.5t-12.5 -13.5q-10 -34 -16.5 -58.5t-16.5 -58.5zM539 708q12 28 35 52.5t51 40.5q32 19 60.5 19t48.5 -12.5t31 -34t9 -46t-18.5 -48t-50.5 -40.5q-25 -13 -52.5 -19t-51.5 -6q-21 1 -36 -5.5t-26 -38.5l-32 -110q0 -1 -1.5 -7t-2 -12.5
t1.5 -10.5t10 0q14 9 36 15t40 5q12 -1 24.5 -6t22 -15.5t13 -27.5t-2.5 -41q-6 -23 -13.5 -44.5t-16 -43.5t-16 -45t-11.5 -49t4.5 -33.5t23.5 -1.5t33 27t35 47q14 21 25 41t18 32q4 6 10.5 6.5t12 -2.5t8 -9.5t-1.5 -13.5q-11 -18 -24 -42t-30 -47q-18 -26 -38 -48
t-43 -31q-16 -6 -32 -5t-28 9.5t-18 25t-2 42.5q4 28 11 52.5t15 46.5l16 44t15 46q4 15 -3.5 23t-17.5 10q-12 2 -30 -5t-36 -20t-32.5 -32t-20.5 -41l-56 -184q-3 -12 -11.5 -16t-17.5 -2t-15.5 8.5t-4.5 17.5l103 351l33 115q7 22 -3 34t-24 14q-39 9 -85 18t-90 16
t-82.5 10.5t-62.5 0.5q-41 -5 -65.5 -30t-31 -56t3.5 -61.5t38 -45.5q22 -12 48.5 -7.5t47.5 28.5q8 7 17 5t14.5 -9t5.5 -16t-9 -17q-38 -34 -80 -37.5t-75 16.5q-27 17 -42.5 43t-19 55t3.5 59t25.5 55t47.5 42.5t69 21.5q30 3 71.5 -0.5t88 -11t94 -17t88.5 -18.5
q17 -4 32 3.5t22 23.5zM608 662q14 0 36 5t42 16q28 15 35 34t-1 33t-28 18t-46 -12q-17 -11 -32 -27t-21 -32q-6 -14 -5 -24t20 -11z" />
    <glyph glyph-name=".notdef" horiz-adv-x="171" 
 />
    <glyph glyph-name=".null" horiz-adv-x="0" 
 />
    <glyph glyph-name="nonmarkingreturn" horiz-adv-x="171" 
 />
    <glyph glyph-name="space" unicode=" " horiz-adv-x="171" 
 />
    <glyph glyph-name="space" unicode="&#xa0;" horiz-adv-x="171" 
 />
    <glyph glyph-name="exclam" unicode="!" 
d="M283 732q-18 -68 -36 -134.5t-36 -134.5l-66 -243q-3 -11 -10.5 -15t-15.5 -2.5t-13.5 8.5t-2.5 17q17 60 33 120t33 121q18 69 36.5 136t36.5 136q3 13 11 17t16 1.5t13 -10t1 -17.5zM108 158q12 -1 20 -10.5t6 -21.5t-11 -20t-21 -6t-20 11t-6 21q1 12 10.5 20t21.5 6z
" />
    <glyph glyph-name="quotedbl" unicode="&#x22;" horiz-adv-x="300" 
d="M139 502q11 -2 18.5 -9.5t8.5 -18.5q0 -12 -5.5 -22t-14.5 -17t-20.5 -12t-22.5 -8q-2 -1 -2.5 0t0.5 2q15 12 19 21q2 6 -0.5 9.5t-4.5 6.5q-9 11 -8 22q2 12 11 19.5t21 6.5zM213 502q11 -2 18 -9.5t8 -18.5q1 -12 -5 -22t-15 -17t-20.5 -12t-21.5 -8q-2 -1 -3 0t1 2
q15 12 18 21q2 6 0 9.5t-4 6.5q-9 11 -8 22q1 12 10.5 19.5t21.5 6.5z" />
    <glyph glyph-name="numbersign" unicode="#" horiz-adv-x="452" 
d="M194 317h29q12 0 16.5 6t8.5 15q3 11 -1.5 14t-10.5 3l-29 1q-5 0 -12.5 -2t-12.5 -19q-2 -6 1 -12t11 -6zM274 417l22 65q3 10 10.5 13.5t14.5 2t11.5 -8.5t0.5 -19l-19 -55q-3 -9 -0.5 -15.5t14.5 -6.5l28 -1q10 1 15.5 -5t5.5 -13.5t-6 -13.5t-18 -6h-42
q-12 0 -16 -4.5t-8 -15.5q-2 -6 -1 -11.5t12 -5.5h24q10 0 15.5 -6t6 -13.5t-5 -13.5t-16.5 -7h-27q-14 0 -23 -6.5t-14 -23.5l-22 -66q-3 -10 -10.5 -13.5t-14.5 -2t-11 8t-1 17.5l19 56q7 22 0.5 25.5t-23.5 4.5q-16 1 -25.5 -3.5t-14.5 -21.5q-5 -14 -7 -20t-3.5 -10
t-3.5 -10t-7 -20q-2 -10 -9.5 -14t-15 -2t-12 9t-0.5 18l19 54q2 7 -2 13.5t-13 6.5h-34q-11 0 -16.5 6.5t-5.5 13.5t5 13.5t15 6.5h44q16 0 20.5 4.5t8.5 10.5q5 9 6.5 17t-14.5 8h-37q-11 0 -16 6t-4.5 13t6 13t16.5 6h44q11 0 18.5 6t9.5 12q8 24 14 42.5t11 32.5
q4 10 11.5 13.5t14 1.5t10.5 -8.5t1 -16.5q-4 -11 -8.5 -26t-11.5 -36q-2 -6 0 -14.5t13 -7.5h22q11 0 19 6.5t11 16.5z" />
    <glyph glyph-name="dollar" unicode="$" horiz-adv-x="467" 
d="M409 610q-2 -4 -5 -7t-8 -5q-6 -2 -14 1q-6 3 -8 10q-3 7 2 14q6 12 9 25t1 26q-2 11 -6 20q-4 10 -11.5 13t-12.5 -14q-12 -40 -24.5 -80t-23.5 -75q-2 -11 -3.5 -22.5t7.5 -25.5q19 -32 38 -69t24 -71q6 -41 -4.5 -79t-34 -68t-57.5 -50t-75 -25q-12 -2 -20 -2t-13 -15
q-2 -5 -3.5 -11t-3.5 -9q-3 -11 -10 -14.5t-14.5 -1.5t-12 8.5t-1.5 16.5q0 2 1.5 6.5t2.5 6.5q5 14 0.5 19.5t-12.5 7.5q-29 7 -50.5 25t-35 41.5t-18.5 51.5t0 57q5 28 19 53.5t36 44t51.5 28t64.5 5.5q10 0 19 -3q14 -2 26 4t16 19q2 7 2.5 10t2.5 8q5 12 2 24.5t-8 21.5
q-14 26 -23 53.5t-9 58.5q0 18 4 36t14 34q13 21 33 33.5t44 17.5q3 1 9 1q21 3 27 25q2 6 2 8q4 12 12 15.5t15 1.5t11.5 -9t0.5 -17q-1 -2 -2 -7t-2 -7q-2 -8 -2 -15t8 -12q4 -3 10 -9q11 -11 18 -26t9 -32q2 -18 -2 -35.5t-12 -34.5zM295 318q0 -10 -8 -18q-4 -4 -13 -4
q-5 0 -11 6q-5 5 -5 14q2 19 -3.5 35t-16.5 28t-27 19t-35 8q-26 1 -47 -6.5t-36.5 -21t-25.5 -31.5t-14 -38q-7 -38 10.5 -76t55.5 -52q9 -3 15.5 -2t11 5t7 9.5t4.5 10.5q4 13 10 32t12 39t12 39.5t11 34.5q4 10 11 12t13.5 -2.5t9.5 -14.5t-1 -24q-2 -6 -7.5 -23.5
t-12 -36.5t-12 -36t-7.5 -23q-2 -5 -2.5 -11t1 -10.5t5 -7t11.5 -0.5q63 14 96 57.5t28 109.5q-2 20 -11.5 43t-20.5 44q-9 17 -16 17.5t-11 -12.5q-1 -3 -2 -5.5t-2 -5.5q-2 -10 1 -17.5t7 -15.5q9 -14 13.5 -33t1.5 -36zM298 723q-23 -10 -34.5 -31t-11.5 -48q0 -25 7 -47
q4 -12 8.5 -14.5t8 0t6.5 8t4 8.5q8 26 16 53l16 54q3 8 1 12t-6 5.5t-8 1t-7 -1.5z" />
    <glyph glyph-name="percent" unicode="%" horiz-adv-x="680" 
d="M427 732q-18 -68 -36 -134.5t-36 -134.5q-8 -30 -21 -76.5t-26.5 -96t-26.5 -96t-21 -77.5q-3 -11 -10.5 -14.5t-15.5 -2t-13.5 8t-2.5 16.5q8 30 21 76.5t26.5 95.5t26.5 95.5t21 76.5q18 68 36.5 135.5t35.5 136.5q3 12 11.5 16.5t16.5 2t13 -10t1 -17.5zM132 375
q-19 1 -33 9.5t-23.5 21.5t-15.5 28.5t-9 32.5q-5 28 -3.5 56.5t7.5 55.5q11 51 38 95q18 27 44 45.5t60 15.5q35 -3 51.5 -30t21.5 -58q3 -15 3.5 -30t-0.5 -29t-2.5 -27t-4.5 -26q-6 -28 -16 -55.5t-26 -50.5q-16 -25 -38 -41t-54 -13zM196 453q13 20 21 43t13 46t6.5 47
t-1.5 47q-1 9 -3.5 19.5t-7.5 19.5t-13 15t-19 7q-23 2 -39.5 -12.5t-27.5 -31.5q-12 -19 -19.5 -40t-12.5 -43q-11 -47 -5 -93q3 -20 13.5 -40.5t33.5 -23.5q22 -3 36.5 10t24.5 30zM462 145q-19 1 -33 9.5t-23.5 21.5t-15.5 28.5t-9 32.5q-5 27 -3.5 56t7.5 55
q11 53 38 95q18 27 44 45.5t60 16.5q18 -2 30.5 -10t21.5 -20.5t14 -28t7 -30.5q3 -14 3.5 -29t-0.5 -30q-1 -14 -2.5 -26.5t-4.5 -26.5q-6 -27 -16 -54.5t-25 -51.5q-17 -25 -39 -40.5t-54 -12.5zM526 223q13 20 20.5 42.5t12.5 45.5t7 47t-1 47q-1 9 -3.5 19.5t-7.5 19.5
t-13 15.5t-19 7.5q-22 2 -39 -12.5t-28 -31.5q-12 -19 -19.5 -40.5t-12.5 -42.5q-11 -47 -5 -94q3 -20 13.5 -40.5t33.5 -23.5q22 -2 36.5 11t24.5 30z" />
    <glyph glyph-name="ampersand" unicode="&#x26;" horiz-adv-x="699" 
d="M368 469q-1 1 -1 1.5t-1 1.5q-3 7 -10 11t-15 4q-38 2 -72.5 17t-59.5 45q-34 40 -38 100q-1 9 4 16t15 7q7 0 12.5 -4.5t5.5 -12.5q0 -45 28 -79q29 -34 70 -44.5t84 -4.5t82.5 25.5t64.5 46.5q23 25 21.5 48.5t-18.5 34.5q-22 15 -46 7.5t-45 -27t-35.5 -46.5
t-15.5 -51q-1 -10 -7.5 -15t-14.5 -5t-15 5t-7 14q2 39 25 77t55.5 63.5t69 30.5t66.5 -22q17 -15 23 -38.5t-2 -50.5q-3 -13 -11 -27t-22 -29q-23 -24 -49.5 -37.5t-57.5 -25.5q-6 -2 -12.5 -4t-12.5 -4q-16 -7 -10 -24q2 -3 3.5 -6t3.5 -6q37 -13 46 -31t1 -30
q-5 -7 -13 -10.5t-19 -2.5t-23 8.5t-24 23.5q-36 6 -69.5 -5.5t-60 -34.5t-43 -55t-19.5 -68q-3 -49 14.5 -81.5t46 -48.5t63 -15t66 18t54.5 50.5t28 83.5q2 14 -4.5 21.5t-16.5 9.5t-22.5 -1t-22.5 -10q-16 -11 -27 -26.5t-19 -32.5q-5 -11 -13.5 -13.5t-15 1t-10.5 11
t0 15.5q8 18 19 34.5t25 30.5q18 18 37 26q11 6 22.5 9.5t23.5 6.5q22 5 44 8t43 13q32 14 54 42q8 9 14 18.5t11 19.5q4 8 15 10q8 2 15 -3.5t9 -13.5q1 -5 -1 -9l-4 -8q-15 -27 -35 -50q-11 -11 -24 -21t-27 -18q-25 -17 -34.5 -31t-11.5 -40q-5 -62 -34.5 -105.5
t-71 -66.5t-88.5 -25t-85.5 18.5t-63.5 63t-22 108.5q2 42 20.5 81t48.5 68.5t68.5 47t80.5 17.5z" />
    <glyph glyph-name="quotesingle" unicode="'" horiz-adv-x="228" 
d="M139 502q11 -2 18.5 -9.5t8.5 -18.5q0 -12 -5.5 -22t-14.5 -17t-20.5 -12t-22.5 -8q-2 -1 -2.5 0t0.5 2q15 12 19 21q2 6 -0.5 9.5t-4.5 6.5q-9 11 -8 22q2 12 11 19.5t21 6.5z" />
    <glyph glyph-name="parenleft" unicode="(" horiz-adv-x="258" 
d="M175 82q11 1 18 -5.5t8 -15.5t-5 -17.5t-20 -10.5q-11 -2 -24 -0.5t-22 3.5q-35 8 -58.5 38t-36.5 77q-15 57 -15 130t14 148.5t42 146t67 120.5q35 44 77 67t92 16q10 -1 15 -9t5 -16.5t-5.5 -15.5t-16.5 -7q-38 3 -71 -14.5t-59 -51.5q-38 -48 -63.5 -119t-36.5 -146
q-3 -17 -5.5 -45.5t-3.5 -62t2 -68t12 -64.5q8 -26 20.5 -45.5t32.5 -28.5q7 -3 18 -4.5t19 0.5z" />
    <glyph glyph-name="parenright" unicode=")" horiz-adv-x="363" 
d="M166 733q-11 -1 -17.5 6t-7.5 16t5 17.5t20 10.5q11 2 24 0t22 -4q35 -7 58.5 -37.5t36.5 -76.5q15 -57 15 -130t-14.5 -148.5t-42 -146t-66.5 -120.5q-35 -44 -77 -67.5t-92 -16.5q-10 1 -15 9t-5 17t5.5 16t16.5 7q38 -4 71 14t59 51q38 48 63.5 119.5t36.5 146.5
q3 17 5.5 45.5t3.5 61.5t-2 68t-12 65q-8 26 -21 45.5t-33 28.5q-6 3 -17.5 4t-19.5 -1z" />
    <glyph glyph-name="asterisk" unicode="*" horiz-adv-x="372" 
d="M149 490q-4 8 -7.5 14.5t-7.5 13.5q-6 10 -2.5 18t10 12t14.5 2t13 -12q10 -18 20 -37q8 -14 16.5 -10t13.5 9q12 11 23 21t24 21q9 9 17.5 8.5t13.5 -6t5.5 -14t-8.5 -16.5q-8 -8 -15 -14t-15 -13q-5 -5 -7.5 -9.5t11.5 -4.5h38q11 -1 15.5 -7.5t3.5 -14t-7 -13
t-16 -5.5q-14 -1 -28 -1h-28q-5 0 -9.5 -4t-0.5 -11q5 -8 9.5 -16.5t9.5 -17.5q5 -10 2.5 -18t-9 -12t-15 -2.5t-14.5 12.5l-21 39q-5 10 -12.5 8.5t-12.5 -5.5l-54 -48q-8 -8 -19 -4.5t-14 14.5q-2 11 7 18q9 8 18.5 17t19.5 17q7 8 4 10.5t-8 2.5h-16.5t-16.5 1
q-12 0 -17 6.5t-4 14t7 13.5t16 6h43q11 0 11.5 6.5t-1.5 10.5z" />
    <glyph glyph-name="plus" unicode="+" horiz-adv-x="428" 
d="M232 341h96q11 0 17.5 -6.5t6.5 -14.5t-5.5 -14.5t-18.5 -7.5q-26 -1 -52 -1h-52q-11 0 -20.5 -5.5t-14.5 -21.5q-10 -32 -20 -62.5t-21 -62.5q-3 -13 -14 -16q-9 -5 -20 1q-5 5 -8 11q-2 9 1 17l39 116q2 8 -2 15.5t-14 7.5l-86 1q-12 0 -18 6.5t-6 14.5t5.5 15t16.5 7
h96q14 0 24.5 8.5t14.5 19.5q9 28 17.5 52.5t17.5 52.5q4 11 12 15t15.5 2t12 -9.5t0.5 -18.5l-33 -102q-2 -7 1.5 -13.5t11.5 -6.5z" />
    <glyph glyph-name="comma" unicode="," horiz-adv-x="194" 
d="M114 161q11 -2 18.5 -9.5t7.5 -18.5q1 -12 -5 -22t-15 -17t-20.5 -12t-21.5 -8q-2 -1 -2.5 0t0.5 2q15 12 19 21q2 6 -0.5 9.5t-4.5 6.5q-9 11 -8 22q2 12 11 19.5t21 6.5z" />
    <glyph glyph-name="hyphen" unicode="-" horiz-adv-x="376" 
d="M296 342q11 0 17.5 -6.5t6.5 -14.5t-5.5 -14.5t-18.5 -7.5l-102 -1h-141q-12 0 -18 6.5t-6 14.5t5.5 15t16.5 7h146h29t20.5 0.5t20.5 0.5h29z" />
    <glyph glyph-name="period" unicode="." horiz-adv-x="187" 
d="M108 158q12 -1 20 -10.5t6 -21.5t-11 -20t-21 -6t-20 11t-6 21q1 12 10.5 20t21.5 6z" />
    <glyph glyph-name="slash" unicode="/" horiz-adv-x="294" 
d="M290 732q-18 -68 -36 -134.5t-36 -134.5q-8 -30 -21 -76.5t-26.5 -96t-26.5 -96t-21 -76.5q-3 -11 -10.5 -15t-15.5 -2.5t-13.5 8.5t-2.5 17q8 30 21 76t26.5 95t26.5 95.5t21 76.5q18 69 36.5 136t35.5 136q3 13 11.5 17t16.5 1.5t13 -10t1 -17.5z" />
    <glyph glyph-name="zero" unicode="0" horiz-adv-x="445" 
d="M176 101q-33 3 -57.5 18t-42 38t-28 51.5t-15.5 58.5q-9 51 -6 104t14 103q10 46 27 91.5t43 84.5q16 24 36 45.5t43 37t50 23.5t58 5q31 -2 53 -17t37 -37t24 -49t13 -54q8 -51 5.5 -104.5t-13.5 -104.5t-29.5 -102t-47.5 -95t-69 -73t-95 -24zM308 231q23 39 39 83.5
t25 88.5q9 45 12.5 91.5t-1.5 91.5q-3 21 -8.5 42.5t-16.5 40t-27.5 31t-40.5 14.5q-23 2 -43.5 -5t-38 -19.5t-32 -29.5t-25.5 -35q-23 -36 -38.5 -78t-24.5 -84q-10 -44 -13 -90.5t4 -91.5q3 -22 10 -44t19 -40.5t29.5 -31.5t42.5 -16q22 -3 40.5 3t34.5 17.5t29 27.5
t24 34z" />
    <glyph glyph-name="one" unicode="1" horiz-adv-x="260" 
d="M84 626q-9 -6 -17.5 -3t-13 11t-3.5 17.5t11 15.5q18 12 31 21.5t25 19.5t24.5 21t27.5 25q8 7 17.5 8t17 -2.5t11 -11.5t0.5 -19l-148 -609q-3 -12 -11.5 -16.5t-17 -3t-15 8t-4.5 17.5l123 508q2 10 -6.5 16t-20.5 -3q-6 -5 -8.5 -6.5t-4.5 -3t-5.5 -4t-12.5 -7.5z" />
    <glyph glyph-name="two" unicode="2" horiz-adv-x="483" 
d="M434 177q-22 -38 -45 -56t-51 -20q-35 -3 -57 6.5t-46 20t-55.5 14.5t-84.5 -9q-30 -7 -56 -26q-5 -3 -11.5 -5t-11.5 0q-8 3 -12.5 11t-2.5 17q5 42 30 76t54 63q27 27 63 60t65 58q18 15 43 38t49.5 51t46 59t31.5 63q11 33 3 58t-28.5 40.5t-49 19.5t-57.5 -5
q-31 -10 -52 -35t-36 -60q-3 -8 -9.5 -13.5t-14.5 -4.5q-11 2 -18.5 12t-2.5 21q20 46 49 78t68 46q40 14 80.5 7.5t70 -29t43.5 -58t2 -79.5q-10 -37 -31.5 -72t-48.5 -66.5t-55.5 -58.5t-52.5 -47q-27 -23 -60 -54.5t-58 -56.5l-11 -11t-11 -12q-2 -3 -4 -9t-1 -12t5 -10
t13 -2q41 10 75 4.5t62 -16t49 -19.5t36 -4q24 6 50 44q4 6 8 11.5t11 7.5t14 -1t11.5 -8.5t5.5 -13t-4 -13.5z" />
    <glyph glyph-name="three" unicode="3" horiz-adv-x="456" 
d="M352 502q-12 -13 -16.5 -22.5t-4.5 -17.5t4 -15t10 -16q23 -46 22 -101t-22.5 -104t-62.5 -84.5t-98 -41.5q-32 -4 -63 7.5t-54.5 34.5t-35.5 55.5t-6 71.5q2 9 9 13t15 4t14.5 -4.5t6.5 -12.5q-3 -29 6 -53t24.5 -40t35.5 -24t41 -6q37 4 64.5 23t45 46t26.5 59t9 62
t-8.5 54.5t-24.5 36.5q-16 10 -32 7.5t-33 -6.5q-12 -3 -19.5 2.5t-10 13.5t0.5 16.5t12 11.5q30 11 59 25.5t52 36.5q16 15 29 36t18 43.5t-0.5 44t-26.5 36.5q-22 16 -52.5 16t-60 -10.5t-54.5 -30.5t-36 -45q-4 -8 -12.5 -12.5t-17.5 -0.5q-11 5 -13.5 15t2.5 20
q17 33 50 59.5t72 40t79.5 11t71.5 -26.5q28 -23 38 -53t6 -61.5t-20 -61.5t-39 -52z" />
    <glyph glyph-name="four" unicode="4" horiz-adv-x="463" 
d="M391 687l-128 -566q-2 -12 -10.5 -17t-17.5 -4t-15.5 7.5t-5.5 17.5l40 174q3 20 -7 25.5t-19 4.5l-199 3q-12 0 -18.5 6t-9 15t-1 19.5t6.5 18.5l137 238q12 20 17.5 34t5.5 26t-5.5 25t-16.5 32q-3 8 1 15.5t11 11t15.5 3.5t14.5 -7q15 -21 21.5 -39.5t6 -36
t-7.5 -36.5t-20 -42l-108 -197q-11 -20 -9.5 -30t22.5 -10q36 2 70.5 -0.5t71.5 -0.5q38 2 41 29l69 285q2 13 10.5 18t17 4t14.5 -8t5 -18z" />
    <glyph glyph-name="five" unicode="5" horiz-adv-x="468" 
d="M182 686q-8 -25 -14.5 -49.5t-14.5 -49.5q-6 -20 3.5 -28t25.5 -3q25 4 50.5 2t49.5 -9.5t45.5 -21t38.5 -33.5q26 -30 37.5 -69.5t9 -81.5t-18 -83.5t-41.5 -75t-62.5 -56t-81.5 -26.5q-38 -3 -75.5 8t-68.5 38q-27 23 -41 54.5t-14 67.5t14 74t43 73q7 10 18 9.5
t17 -10.5q5 -6 4.5 -14t-5.5 -14q-44 -56 -45 -112t37 -91q24 -22 52.5 -30.5t57.5 -6.5q37 3 67 22t51 48t33 64.5t13 70.5t-10 67.5t-35 54.5q-20 19 -46.5 27t-55 8t-56.5 -6t-50 -15q-6 -4 -13 -2.5t-12 6t-7 11t0 13.5q17 51 33.5 107.5t32.5 108.5q6 20 12 24.5
t24 3.5l216 -3q13 0 18.5 -7.5t5 -16.5t-6.5 -16.5t-16 -7.5l-183 1q-11 -1 -21 -7t-15 -18z" />
    <glyph glyph-name="six" unicode="6" horiz-adv-x="425" 
d="M372 286q-2 -35 -16.5 -68.5t-40 -60t-61.5 -42t-81 -13.5q-38 1 -68 15.5t-52 38t-34 54.5t-14 67q-2 43 9 92t31.5 98.5t50 97t64.5 87.5t74 70t79 46q11 3 18 -2.5t9 -13.5t-1 -16t-12 -11q-33 -14 -66.5 -39t-64 -59t-57.5 -75t-47 -87q-2 -6 0 -11t6 -8t9.5 -3
t10.5 3q45 22 91.5 19.5t83.5 -25t59.5 -62.5t19.5 -92zM177 146q35 -1 62 11t46.5 32.5t30 46t12.5 51.5q2 29 -7 55t-27 44.5t-43 28.5t-54 7q-45 -4 -80 -25t-52 -55q-8 -16 -11 -34t-1 -36q3 -24 13 -46.5t26 -40t37.5 -28.5t47.5 -11z" />
    <glyph glyph-name="seven" unicode="7" horiz-adv-x="452" 
d="M281 698q-20 0 -44 5t-47.5 8.5t-45.5 4t-38 -7.5q-17 -8 -25.5 -20.5t-16.5 -28.5q-4 -8 -12 -11t-16 0q-9 2 -13 12t1 18q10 20 24 38t34 29q22 13 44.5 15t45 -0.5t44.5 -8t45 -7.5q37 -5 64 1.5t61 19.5q12 5 20.5 -5t4.5 -21q-7 -23 -17 -44.5t-23 -42.5
q-40 -68 -77 -119t-70 -101q-32 -49 -59 -105t-50 -136q-5 -18 -9 -35l-8 -34q-2 -12 -9.5 -18t-15.5 -6t-14.5 6.5t-5.5 19.5q3 16 7 33t9 36q13 45 26.5 82t27.5 68t29 57.5t31 50.5q31 46 66 93t76 112q8 16 6 24.5t-10 11.5t-19 3.5t-21 2.5z" />
    <glyph glyph-name="eight" unicode="8" horiz-adv-x="467" 
d="M330 481q27 -22 51.5 -56.5t32.5 -68.5q11 -42 3.5 -86t-30.5 -80q-24 -38 -62 -60.5t-81 -27.5q-44 -6 -86 5t-74 42q-26 24 -41 55.5t-20 66.5q-5 42 7 82.5t38 74.5q20 26 41.5 42t49.5 30q13 7 18 13.5t4.5 14t-4.5 17t-9 22.5q-14 34 -13 69q2 32 15 60t38 48
q17 15 39 23t45 6q41 -3 71.5 -30t38.5 -68q5 -31 -5.5 -62.5t-31.5 -54.5q-11 -12 -22.5 -20.5t-22.5 -16.5q-15 -9 -31.5 -15.5t-36.5 -13.5q-41 -14 -81 -35t-68 -56q-23 -28 -32 -63.5t-2 -70.5q8 -46 38 -79q26 -27 60 -37.5t70 -5.5q38 5 69 25.5t50 54.5
q15 29 18.5 61.5t-4.5 64.5q-8 28 -29.5 55.5t-44.5 44.5q-10 8 -11.5 18t11.5 15q8 4 17.5 3t16.5 -6zM358 665q-3 26 -22 43.5t-45 19.5q-19 2 -35.5 -5t-28.5 -21q-27 -30 -27 -66q0 -14 2.5 -29t10.5 -28q12 -20 33 -24t42 3q28 9 47 33q28 32 23 74z" />
    <glyph glyph-name="nine" unicode="9" horiz-adv-x="432" 
d="M21 582q2 35 16.5 69t40 60t61.5 41t81 14q37 -1 67.5 -15t52 -37.5t33.5 -54.5t14 -67q2 -44 -8.5 -92.5t-31.5 -98t-50 -97t-64 -87.5t-74 -70.5t-79 -45.5q-11 -3 -18 2.5t-9.5 13.5t1 16t12.5 11q33 14 66 39t64 58.5t58 75t47 87.5q4 12 -6 18t-20 1
q-45 -23 -91.5 -20.5t-83.5 25t-59.5 62.5t-19.5 92zM216 723q-35 0 -62 -12t-46.5 -32t-30 -45.5t-12.5 -51.5q-2 -29 7 -55t27 -44.5t43 -29t54 -7.5q45 5 80 26t52 55q16 33 11 69q-2 24 -12 46.5t-26 40.5t-38 29t-47 11z" />
    <glyph glyph-name="colon" unicode=":" horiz-adv-x="265" 
d="M185 435q12 -1 20 -10.5t6 -21.5t-11 -20t-21 -6t-20 11t-6 21q1 12 10.5 20t21.5 6zM105 160q12 -2 20 -11t6 -22q-2 -12 -11 -19.5t-21 -6.5q-12 2 -20 11.5t-6 21.5t11 19.5t21 6.5z" />
    <glyph glyph-name="semicolon" unicode=";" horiz-adv-x="280" 
d="M116 161q11 -1 18.5 -8.5t7.5 -18.5q1 -13 -5 -22.5t-15 -17t-20.5 -12.5t-21.5 -8q-5 0 -2 3q15 12 19 21q2 6 -0.5 9.5t-4.5 5.5q-9 11 -8 22q2 12 11 20t21 6zM200 436q12 -1 20 -10.5t6 -21.5t-11 -20t-21 -6t-20 11t-6 21q1 12 10.5 20t21.5 6z" />
    <glyph glyph-name="less" unicode="&#x3c;" horiz-adv-x="291" 
d="M149 286l69 -57q9 -7 7 -18q-1 -6 -4.5 -11t-8.5 -7q-12 -5 -24 5l-106 87q-9 8 -9.5 20t11.5 24l109 101q11 6 22 0q9 -5 11 -16q0 -12 -9 -18l-70 -66q-14 -13 -13 -22t15 -22z" />
    <glyph glyph-name="equal" unicode="=" horiz-adv-x="411" 
d="M311 283q11 0 17.5 -6.5t6.5 -14.5t-5.5 -14.5t-18.5 -7.5l-102 -1h-141q-12 0 -18 6.5t-6 14.5t5.5 15t16.5 7h146h29t20.5 0.5t20.5 0.5h29zM333 365q11 0 17.5 -6.5t6.5 -14.5t-5.5 -14.5t-18.5 -7.5l-102 -1h-141q-12 0 -18 6.5t-6 14.5t5.5 15t16.5 7h146h29
t20.5 0.5t20.5 0.5h29z" />
    <glyph glyph-name="greater" unicode="&#x3e;" horiz-adv-x="286" 
d="M148 285q14 13 14.5 22t-13.5 22l-69 66q-9 6 -9 18q2 11 11 16q11 6 22 0l109 -101q12 -12 11.5 -24t-9.5 -20l-106 -87q-12 -10 -24 -5q-5 2 -8.5 7t-4.5 11q-3 9 6 18l70 57v0z" />
    <glyph glyph-name="question" unicode="?" horiz-adv-x="403" 
d="M85 158q12 -1 20.5 -10t7.5 -21q0 -12 -9 -20.5t-21 -7.5q-13 0 -21 9t-8 21q1 12 9.5 20.5t21.5 8.5zM322 628q-6 45 -37.5 67t-69.5 24q-24 1 -47 -7t-42.5 -22t-34 -33.5t-22.5 -42.5q-3 -9 -4 -20.5t1 -22.5t7 -20.5t15 -13.5q4 -2 9.5 -3t10.5 0q8 2 13.5 -3.5
t5.5 -13t-6.5 -15t-21.5 -8.5q-19 -2 -35 8q-16 9 -25.5 24t-13.5 32.5t-2.5 36t7.5 35.5q10 30 29 54.5t43.5 42t53.5 26t61 7.5q27 -1 52 -9.5t45 -24.5t33 -39t16 -53q3 -35 -7.5 -65.5t-29 -58t-43 -51.5t-49.5 -45q-26 -23 -43.5 -43t-31 -42t-23 -48t-18.5 -60
q-2 -9 -10 -12.5t-15.5 -2t-12.5 8.5t-2 20q10 38 22.5 67.5t28 55t36.5 48t48 47.5q19 18 39.5 37t36 40t25 45.5t8.5 52.5z" />
    <glyph glyph-name="at" unicode="@" horiz-adv-x="661" 
d="M352 389q3 12 15 16q10 3 20 -2q6 -5 9 -12q2 -5 1 -10t-3 -10q-9 -25 -17.5 -49.5t-15.5 -50.5q-5 -18 -10 -38t-5 -38q0 -11 4 -20.5t16 -9.5q11 1 21 3.5t19 7.5q29 16 47.5 47t26.5 62q8 28 11 59.5t-2 59.5q-6 29 -19 55.5t-35 46.5q-27 25 -60 32.5t-67 2.5
t-66 -20.5t-57 -36.5q-45 -37 -75.5 -87.5t-47.5 -105.5q-11 -38 -15 -79t6 -80q10 -44 36 -75t60.5 -50t76 -25.5t83.5 -1.5q56 6 106.5 31t88.5 67q33 36 58 81q5 10 16 12q10 2 18 -3q7 -5 9 -15q1 -7 -1.5 -14t-6.5 -12q-11 -21 -24.5 -40t-29.5 -36q-45 -51 -105 -80.5
t-127 -37.5q-50 -5 -99 3.5t-90 31.5t-71.5 60t-43.5 89q-11 46 -7.5 92.5t16.5 91.5q19 64 56 123.5t90 101.5q33 26 74 43t83.5 20t83 -10t73.5 -47q23 -24 37.5 -54.5t20.5 -62.5q7 -34 4.5 -70.5t-12.5 -69.5q-11 -38 -32.5 -75t-56.5 -59q-31 -19 -69 -22
q-14 -1 -28.5 3.5t-25.5 15.5l-6.5 6.5t-8.5 3.5q-4 -1 -9.5 -4.5t-9.5 -5.5q-9 -5 -18.5 -8.5t-20.5 -5.5q-21 -5 -36.5 1.5t-25.5 20t-15 31.5t-5 36q0 38 13 76q4 15 11.5 31t17 31.5t21.5 28t26 20.5q23 12 46 10t41 -20q3 -2 7 -4.5t7 -0.5q3 1 3 4zM318 350
q-5 14 -17 18q-10 3 -20.5 -0.5t-18.5 -8.5q-8 -6 -15.5 -16t-13.5 -22t-10.5 -24t-7.5 -21q-10 -29 -11 -55q-1 -9 0 -21t5 -22t12 -15t21 1q11 5 20 14t16 18q11 14 18.5 30t12.5 33q5 19 10 45.5t-1 45.5z" />
    <glyph glyph-name="A" unicode="A" horiz-adv-x="815" 
d="M600 52q4 11 8.5 27t7.5 26q6 25 8.5 49.5t-8.5 50.5q-7 16 -14 31.5t-15 30.5q-15 29 -34.5 65t-44.5 67.5t-55 54t-65 25.5q-38 2 -69.5 -21.5t-35.5 -64.5q-2 -13 -11 -18t-18.5 -3t-16.5 10t-5 22q4 31 18.5 55.5t36 40.5t48.5 23.5t57 5.5q32 -3 58.5 -14.5
t50.5 -31.5q37 -27 67 17q19 29 37.5 57t36.5 57l80 126q10 15 23 28t30 21q11 5 23.5 6t23.5 -5q15 -9 21 -28q4 -12 3 -26t-3 -27l-60 -212l-113 -401l-17 -60q-5 -10 -14.5 -12.5t-18.5 0t-15.5 10t-4.5 18.5zM480 374q8 6 16.5 4t14 -9.5t6.5 -17.5t-6 -20
q-16 -22 -31 -41t-30.5 -37t-32 -35.5t-35.5 -36.5q-21 -21 -45 -44t-51 -43t-56.5 -34t-59.5 -17q-38 -3 -70.5 6.5t-55.5 30t-35.5 50.5t-10.5 67q1 11 9 18t17.5 7.5t17.5 -5.5t9 -21q-3 -24 6 -44.5t25.5 -34t38.5 -20t45 -3.5q23 2 51 18.5t55.5 39t51.5 46t41 40.5
q32 34 59.5 66t55.5 70zM636 283q8 -12 18 -11.5t18 26.5l63 209q14 48 28 95.5t28 95.5q7 22 6.5 30.5t-5.5 7t-13 -10t-17 -19.5q-21 -29 -41 -60.5t-40 -62.5q-18 -29 -36.5 -58t-38.5 -58q-6 -10 -11 -23.5t-7.5 -27t-2.5 -25.5t4 -19q6 -9 11 -18.5t10 -18.5
q7 -13 13.5 -25.5t12.5 -25.5v-1z" />
    <glyph glyph-name="B" unicode="B" horiz-adv-x="548" 
d="M154 640q-3 -8 -11.5 -10t-17 1t-13.5 10.5t-1 18.5q10 31 31.5 59t49.5 48t61 32t66 12q41 0 72 -14t52 -37t32 -52t12 -59q2 -35 -10 -69t-38 -59q-11 -11 -18.5 -19t-10 -15.5t1 -16t16.5 -21.5q44 -44 61 -111q12 -51 6 -101q-8 -66 -41.5 -124t-88.5 -93
q-58 -36 -122.5 -38t-119 24.5t-89.5 77.5t-33 121q1 37 14 71.5t35.5 62t53.5 45t69 20.5q15 2 26.5 9t15.5 23l56 208q4 13 13.5 17.5t18.5 3t15 -9t4 -18.5l-23 -86q-5 -17 2 -27t21 -8q47 3 79 38q20 21 28.5 46.5t6.5 51.5q-2 21 -10.5 40.5t-23.5 34.5t-35.5 24
t-45.5 10q-27 1 -53 -9t-48.5 -26.5t-39.5 -39t-26 -46.5zM183 315q4 11 13.5 14t18.5 0.5t14.5 -9.5t3.5 -16l-29 -110q-5 -11 -14 -14t-17.5 0t-15 9t-4.5 13zM267 432q-4 -15 -1 -28t17 -22q27 -16 47 -38.5t29 -52.5q3 -13 -2 -21t-13 -11t-16.5 0t-12.5 12
q-7 21 -21 36.5t-32 25t-39.5 14t-42.5 2.5q-27 -3 -49.5 -15.5t-39 -32t-25.5 -44.5t-10 -52q-2 -54 26 -93.5t70.5 -59t93 -16t95.5 33.5q27 19 47.5 45.5t33 57.5t16.5 64.5t-2 66.5q-10 56 -38 94.5t-82 55.5q-19 5 -31 3t-18 -25z" />
    <glyph glyph-name="C" unicode="C" horiz-adv-x="559" 
d="M453 328q18 -45 11.5 -94.5t-31.5 -93t-65 -75t-89 -40.5q-28 -5 -56 -1.5t-53 15.5t-46 34t-34 54q-14 34 -17 72t2 76.5t16 75.5t23 70q11 26 1.5 46.5t-31.5 37.5q-46 32 -66 78.5t-20 102.5q0 11 7.5 19.5t19.5 7.5q7 -1 13.5 -5.5t8.5 -12.5q0 -3 -1 -5
q-2 -27 5.5 -53.5t21.5 -49.5q18 -27 44.5 -44t57 -25.5t63 -8.5t62.5 6q32 8 64.5 21t61.5 33q35 23 60 53.5t35 65.5q8 25 0 46.5t-35 27.5q-36 8 -73.5 -14t-71.5 -57.5t-61 -75t-42 -66.5q-7 -16 -19 -19.5t-22 1t-15 15t2 22.5q14 25 34 56t45 62t54 59.5t60.5 48
t64 27.5t65.5 -2q42 -13 58 -49t8 -78q-10 -49 -42 -91t-77 -73q-47 -32 -105.5 -53.5t-115.5 -20.5q-44 -5 -59 -45q-12 -28 -23.5 -61.5t-17.5 -68t-4 -69t16 -64.5q20 -42 55.5 -58t73.5 -11q36 6 66 31t48.5 58.5t23 69.5t-11.5 63q-9 15 -4.5 27t14.5 18t22.5 3
t20.5 -19z" />
    <glyph glyph-name="D" unicode="D" horiz-adv-x="659" 
d="M3 208q4 56 31.5 99.5t72.5 66.5q34 17 71 20q11 2 25 12t16 19l59 219q4 14 14 19t19.5 3t16 -10t3.5 -19l-58 -217q-2 -15 3.5 -27.5t16.5 -20.5q60 -26 78 -88q4 -13 -1.5 -21.5t-14 -11.5t-17.5 0t-13 12q-8 25 -31 42t-51.5 25t-58.5 6.5t-53 -13.5
q-29 -16 -48 -44.5t-24 -66.5q-4 -35 5.5 -62t29.5 -45.5t49.5 -27t65.5 -6.5q41 3 86.5 22t88.5 57.5t81 98t65 142.5q15 46 21.5 91.5t4.5 87t-14 77.5t-36 63q-35 40 -87 52.5t-104.5 2t-96 -42.5t-61.5 -82q-4 -9 -14 -11.5t-19.5 1t-15.5 12t-1 20.5q13 42 43 74
t69 53.5t84 31t89.5 6.5t84.5 -20t70 -48q29 -31 45 -72.5t21 -89t-1 -99.5t-21 -103q-28 -98 -71.5 -168.5t-95.5 -116.5t-107.5 -69t-107.5 -26q-46 -2 -85 10t-67 37t-42.5 62t-11.5 84zM239 290l-31 -117q-5 -12 -14.5 -15t-19 0t-16 9.5t-4.5 13.5l32 121q6 12 16 15
t19 0t15 -10.5t3 -16.5z" />
    <glyph glyph-name="E" unicode="E" horiz-adv-x="528" 
d="M284 488q-3 11 -11 17t-19 8q-46 6 -87.5 27t-69.5 59q-17 25 -27 56t-10 69q0 13 8 19.5t17 6.5t16.5 -5.5t6.5 -16.5q-5 -55 26 -98q26 -36 63.5 -53t79.5 -20t84.5 6.5t79.5 27.5q13 7 28.5 16.5t28.5 22t22 27t10 31.5q0 13 -4 24.5t-14 19.5q-15 12 -31.5 13.5
t-34 -4t-34.5 -17.5t-32 -28q-20 -22 -34 -48t-17 -50q-2 -12 -10.5 -17.5t-18.5 -5t-17.5 7t-7.5 18.5q5 33 22 65.5t43 59.5q23 25 51 43t56.5 25t55.5 1t49 -29q13 -14 21 -33t6 -41q-2 -26 -13 -48.5t-28 -40.5t-39 -32.5t-44 -23.5q-15 -7 -32 -12.5t-35 -11.5
q-8 -2 -15.5 -4t-15.5 -4q-19 -6 -14 -25q2 -5 3.5 -8.5t3.5 -7.5q22 -9 35 -20t18.5 -21.5t5 -20t-6.5 -16.5q-6 -8 -16.5 -11.5t-23.5 -1t-27 13t-27 30.5q-48 14 -92 0.5t-79 -45.5q-38 -35 -59.5 -83t-19.5 -99q1 -39 14 -67.5t33 -47t46 -27t54 -7.5q33 2 66.5 16
t62.5 42q22 23 33.5 51t9.5 57q0 19 8 28t18 9t18.5 -8t8.5 -23q2 -48 -18 -89.5t-55 -72.5q-33 -30 -72 -46t-77 -18q-40 -2 -77.5 10t-66.5 38.5t-47 66t-19 92.5q-1 64 30 126t85 104q36 28 79 43t92 11z" />
    <glyph glyph-name="F" unicode="F" horiz-adv-x="606" 
d="M538 788q13 6 22.5 2.5t14 -11.5t4 -17.5t-8.5 -15.5q-22 -18 -42 -36t-30 -45q-18 -39 -33.5 -79t-29.5 -82q-5 -15 -0.5 -29.5t21.5 -14.5h3q16 1 31.5 0.5t30.5 -2.5q13 24 27 41q6 6 14 6.5t14 -3t7.5 -11t-4.5 -17.5q-11 -17 -18 -31t-12.5 -28t-9 -29.5t-6.5 -34.5
q-2 -12 -8.5 -16.5t-13 -3.5t-12 6.5t-6.5 13.5q0 16 2.5 31.5t7.5 30.5q-21 2 -42.5 1t-44.5 -3q-48 -6 -98 -23q-25 -8 -48.5 -18.5t-44.5 -23.5q-12 -7 -20.5 -5t-13 9t-3.5 16t8 17q22 17 54 31t70 25q23 10 36.5 24.5t22.5 37.5q13 38 26.5 76t30.5 76q6 13 -2 23.5
t-21 11.5h-2h-1q-29 1 -60 9t-61 14.5t-57 9t-48 -6.5q-28 -12 -46.5 -35.5t-25.5 -49.5t-2 -50.5t23 -39.5q14 -11 29 -14.5t29 -1t26.5 9t20.5 15.5q9 6 18 4t14 -8.5t4.5 -16t-10.5 -16.5q-36 -29 -76 -32t-78 23q-33 22 -44.5 59t-3 75.5t35.5 71.5t72 48
q36 12 73.5 7.5t75.5 -12t74 -12.5t69 5q23 7 39.5 21t36.5 23zM335 368q5 12 15 18t20 6t16.5 -5.5t3.5 -14.5q-10 -28 -19 -52.5t-18.5 -48.5t-20 -48.5t-23.5 -52.5q-18 -39 -46.5 -76.5t-65.5 -63.5t-79 -35.5t-87 6.5q-18 6 -24 16.5t-4.5 20t9.5 15t17 1.5
q38 -15 73 -9t64.5 26.5t53.5 50t39 61.5q12 26 22 48.5t19 44t17.5 44t17.5 48.5z" />
    <glyph glyph-name="G" unicode="G" horiz-adv-x="610" 
d="M445 268q3 12 10 32t18 37t25.5 25.5t32.5 -2.5q8 -5 12 -16.5t0.5 -27.5t-15.5 -37t-36 -46q-10 -28 -19 -54.5t-18 -54.5q-14 -39 15 -59q3 -1 5.5 -2t5.5 -3q25 -14 48 -34.5t31 -37.5q5 -11 3 -19.5t-8 -13t-14 -4t-15 7.5q-32 39 -77 61.5t-97 20.5
q-23 -1 -48.5 -9.5t-48 -22t-39.5 -31.5t-22 -39q-3 -10 -3 -21t4 -19.5t11.5 -13.5t19.5 -3q22 2 41.5 14t36 29.5t29.5 39t22 43.5q4 12 13.5 16t19 2t15 -8.5t2.5 -15.5q-11 -26 -27 -54t-36.5 -52t-46 -40.5t-54.5 -19.5q-30 -4 -51 5.5t-32.5 27t-13 41.5t6.5 48
q9 28 29.5 50t46.5 38.5t56.5 26.5t59.5 13h5q37 6 49 37q4 11 6.5 19t6.5 19q2 7 -0.5 10t-9.5 -1h-1q-23 -14 -49.5 -20t-54.5 -4q-49 3 -83.5 22.5t-54.5 51.5q-21 32 -26.5 73t3.5 87q6 34 -28 52q-97 49 -106 174q-1 11 6 20t19 9q7 1 14.5 -3t9.5 -12v-4
q0 -56 33 -100q22 -29 53.5 -43t66 -17.5t70 2.5t66.5 18q30 12 59 29.5t52.5 40t40 49t22.5 55.5q5 24 -4.5 45t-36.5 25q-39 5 -78 -21.5t-72 -68.5q-28 -35 -50 -73.5t-36 -69.5q-4 -9 -14.5 -12t-21 -0.5t-17.5 9.5t-5 18q16 38 42.5 83t61.5 86q22 26 46.5 48t51 36.5
t54 21t54.5 0.5q42 -9 62.5 -43.5t15.5 -75.5q-5 -40 -24.5 -75.5t-49.5 -65.5t-67.5 -53t-76.5 -38q-53 -20 -108 -24q-38 -3 -45 -34q-6 -31 -3.5 -61.5t16.5 -55.5q12 -20 33.5 -33.5t54.5 -18.5q39 -5 80.5 13.5t69.5 55.5z" />
    <glyph glyph-name="H" unicode="H" horiz-adv-x="710" 
d="M472 457q43 16 96.5 39.5t103.5 52t89.5 59.5t56.5 62q14 25 6.5 42.5t-26.5 18.5q-21 1 -38 -15t-29.5 -38.5t-21.5 -47t-15 -40.5q-5 -11 -15 -17.5t-19.5 -7.5t-16 3t-3.5 14q9 27 22 62t32 66t45 52t61 21q21 0 38.5 -10.5t27 -28.5t9.5 -41.5t-13 -49.5
q-12 -24 -31.5 -46t-42.5 -41t-47 -34.5t-44 -27.5q-15 -8 -30.5 -27t-20.5 -36q-11 -37 -25 -87t-25 -103q-7 -32 -11.5 -63t-6.5 -59t0 -51t9 -39q3 -10 -2.5 -18.5t-15 -12t-20 1t-16.5 20.5q-12 42 -8 100t16 119q10 50 22 93.5t23 77.5q4 12 -6 18.5t-19 3.5
q-42 -17 -87.5 -35t-91 -36.5t-87.5 -37.5t-76 -38q-57 -32 -92 -68t-51.5 -68t-16 -57.5t14.5 -36.5q16 -13 47 -6.5t68.5 37t77.5 86t73 141.5q4 11 15 17t21 6t16 -6.5t1 -20.5q-39 -107 -89 -176t-101 -104t-97 -38.5t-76 21.5q-23 19 -28.5 55.5t13.5 81t64.5 93
t123.5 92.5q32 18 63 30.5t60 27.5q25 14 40.5 38.5t18.5 38.5q7 25 12.5 46t11 41t11.5 41t14 45q8 23 1.5 33t-33.5 12q-40 4 -82.5 15.5t-78.5 14.5q-45 3 -76.5 -22.5t-41.5 -69.5q-6 -29 3 -51.5t27 -34t42.5 -9.5t49.5 21q9 6 17.5 4t13.5 -8.5t4.5 -15.5t-9.5 -16
q-36 -28 -74 -30t-68 15t-46.5 51t-8.5 78q5 31 20.5 56t38 42.5t50.5 26t59 7.5q28 -1 56.5 -7t56.5 -11.5t55 -7.5t52 5q23 7 38.5 20.5t35.5 22.5q12 6 21 2.5t14 -11t4 -17t-8 -15.5q-21 -17 -40.5 -34.5t-28.5 -43.5q-21 -47 -32 -93t-25 -95q-3 -15 5.5 -24.5
t25.5 -4.5z" />
    <glyph glyph-name="I" unicode="I" horiz-adv-x="346" 
d="M68 16q21 18 40.5 53.5t36 76.5t29.5 81t20 67l91 345q8 20 -3 35t-35 10l-123 -25q-16 -3 -29 -12t-22.5 -21.5t-14.5 -27t-5 -29.5q1 -29 16.5 -51.5t47.5 -20.5q29 2 57 20q10 7 18.5 4.5t13.5 -10t4.5 -17.5t-9.5 -17q-31 -24 -65.5 -28.5t-64 7t-49.5 38t-22 65.5
q-2 53 25.5 91.5t78.5 55.5l210 51q19 5 30 10t25 13q12 6 21 2t14 -12.5t4 -18t-8 -15.5q-11 -9 -17.5 -14t-11 -10t-8.5 -12.5t-8 -20.5l-105 -386q-9 -33 -23 -78.5t-32.5 -91t-41 -85.5t-48.5 -63q-11 -11 -22 -9.5t-18.5 9t-8 19t11.5 22.5z" />
    <glyph glyph-name="J" unicode="J" horiz-adv-x="505" 
d="M415 319l27 8q10 4 18 0t11.5 -12t0 -17.5t-15.5 -16.5l-76 -33q-32 -13 -48 -50q-15 -37 -32.5 -74.5t-41.5 -69t-56 -54.5t-76 -30q-31 -5 -60 3.5t-49 35.5q-12 17 -15.5 40t3 47.5t23 49t43.5 44.5q21 15 45.5 27.5t49 22t47.5 17t42 12.5q10 3 16 -3.5t6 -16
t-6 -19.5t-20 -15q-14 -4 -33 -10.5t-40 -15.5t-42.5 -20.5t-38.5 -24.5q-27 -22 -36 -50.5t5 -48.5q11 -14 24 -18t28 -2q33 4 58 24.5t44.5 49t34 60t25.5 57.5q25 62 46 127q10 31 21.5 67.5t23 74t22 74.5t19.5 69q2 7 3 16t-1 16.5t-8.5 11.5t-19.5 3
q-23 -4 -42.5 -6.5t-38 -5t-36.5 -7t-38 -13.5q-19 -8 -32.5 -21.5t-22.5 -29.5t-13 -34t-2 -34q3 -27 15.5 -41t30 -18t38 1t38.5 17q9 6 17.5 3.5t13.5 -9t4.5 -16t-9.5 -16.5q-29 -22 -61.5 -27.5t-61.5 3.5t-50 31t-26 54q-5 28 0.5 57t19 54t35 44t48.5 28
q31 10 69.5 18t77.5 16.5t75 18.5t62 23q14 6 24 2t14.5 -13t3.5 -19.5t-10 -16.5q-21 -17 -34 -37t-22 -46l-89 -294q-6 -21 4.5 -24.5t26.5 2.5z" />
    <glyph glyph-name="K" unicode="K" horiz-adv-x="701" 
d="M467 455q50 26 109 69q34 25 67.5 55.5t60.5 63.5t45.5 68t23.5 70q3 14 11.5 19.5t18 4t16 -8t5.5 -16.5q-9 -49 -32 -92t-55 -80.5t-70 -70t-76 -60.5q-6 -5 -10.5 -13.5t-7 -18.5t-3 -19t2.5 -15q10 -16 16 -35.5t7 -37.5q2 -44 -8 -86.5t-15 -86.5q-3 -19 -4.5 -39
t8.5 -38q9 -16 23.5 -29.5t24.5 -15.5q12 -5 17 -13t4.5 -16t-6.5 -14.5t-15 -7.5q-12 0 -25 5.5t-25.5 15t-23.5 22t-18 26.5q-14 24 -16 50.5t2 53.5q5 43 15.5 85t8.5 84q-2 18 -6 33.5t-13 27.5q-8 9 -17.5 11.5t-20.5 1t-21.5 -6t-19.5 -8.5q-42 -18 -90.5 -38
t-95.5 -43t-89.5 -51.5t-73.5 -64.5q-35 -41 -37 -75t16 -48q16 -13 46 -7.5t66 34t74.5 83t71.5 140.5q4 11 15 17t21 6t16 -6.5t1 -20.5q-39 -107 -89.5 -173.5t-100.5 -100t-94 -36t-71 20.5q-17 15 -25.5 37t-4.5 50t21 59.5t51 65.5q23 22 53 44t69 45q29 17 60.5 30
t58.5 30q22 13 41 40.5t26 49.5q7 25 13 48.5t13 46.5q8 31 21 67q12 37 -11 40q-24 0 -47 4q-38 7 -73 14.5t-68 -6.5q-32 -13 -50 -41t-22 -57t6 -49.5t28.5 -29.5t42.5 -5.5t48 22.5q9 6 17.5 4t13 -8.5t4 -15.5t-9.5 -16q-33 -26 -69 -30.5t-65.5 9t-48 43.5t-15.5 74
q1 22 8.5 44.5t20.5 42t32.5 35.5t44.5 24q35 11 65 8.5t58.5 -8t56.5 -9t60 5.5q23 7 38.5 20.5t35.5 22.5q12 6 21 2.5t14 -11t4 -17t-8 -15.5q-22 -17 -41.5 -34.5t-28.5 -43.5q-11 -22 -18 -43.5t-13 -43.5l-21 -84q-2 -7 -0.5 -15t5 -14t10 -8.5t14.5 1.5z" />
    <glyph glyph-name="L" unicode="L" horiz-adv-x="652" 
d="M426 370q-15 -6 -31 -11.5t-30 -13t-25 -17.5t-16 -26l-40 -130q-4 -12 -7.5 -24t-3.5 -23.5t4 -22t15 -17.5q35 -23 73.5 -38t77.5 -16.5t77 12t72 46.5q9 8 19 7.5t17 -6.5t8.5 -16t-6.5 -21q-38 -38 -82.5 -55t-91 -17.5t-92.5 13.5t-88 40q-15 9 -24 13.5t-16.5 4.5
t-16 -5t-21.5 -15q-25 -18 -58.5 -27.5t-64.5 -2.5q-41 8 -58.5 33.5t-14 53.5t26 51.5t63.5 28.5q18 2 37 -1.5t36 -8.5q20 -6 37 -6t27 27q10 29 20 62t18 68q4 21 -12 35.5t-33 21.5q-50 20 -78.5 59.5t-40.5 91.5q-3 13 2.5 21.5t14.5 11t18 -2t12 -17.5q8 -42 34 -74.5
t67 -46.5q25 -9 51.5 -10t53 4t52 15t48.5 23q28 16 55 41.5t48 55t34 61t14 61.5q1 25 -11.5 44t-39.5 19q-21 0 -41 -11.5t-38 -30.5t-34 -43.5t-29 -51.5q-19 -38 -32.5 -77t-21.5 -69q-4 -14 -14 -19.5t-19.5 -4t-16.5 9.5t-5 21q8 35 23.5 78t37.5 86q17 35 38.5 66.5
t46 55.5t53 37t59.5 12q43 -3 67 -34t26 -73q1 -40 -13 -81.5t-39.5 -79.5t-59 -70t-70.5 -53q-11 -6 -23 -11.5t-25 -10.5zM173 105q-13 7 -29 12.5t-30 7.5q-30 4 -45 -10t-15 -31.5t15.5 -30.5t45.5 -6q13 3 27 9t27 15q25 24 4 34z" />
    <glyph glyph-name="M" unicode="M" horiz-adv-x="835" 
d="M509 787q5 2 11.5 3t12.5 -1q8 -3 13 -11.5t3 -17.5q-1 -6 -3.5 -11t-3.5 -11q-2 -17 -0.5 -38.5t5 -45t8 -48t8.5 -47.5q1 -15 -4.5 -25t-13 -14.5t-15 -2.5t-9.5 11l-23 120q-4 15 -15.5 15t-18.5 -14q-14 -30 -26.5 -67t-25.5 -78.5t-27 -86t-29 -88.5
q-20 -56 -43.5 -109.5t-52 -97t-63 -74.5t-77.5 -43q-25 -7 -51 -6.5t-51 10.5q-14 6 -17.5 16.5t0 20t12.5 14.5t19 0q20 -8 37.5 -9t37.5 5q33 10 61.5 36.5t52.5 64t44.5 83.5t38.5 95q15 43 28 86t25 82.5t23 74.5t22 62q15 43 -22 40q-20 -2 -48.5 -6t-57.5 -10
t-55 -14t-41 -18q-23 -15 -33.5 -41t-10.5 -53q0 -26 12 -43t30 -24t38.5 -4t37.5 17q8 8 18 5q8 -2 13.5 -10.5t5.5 -16.5q0 -5 -3 -9.5t-7 -7.5q-31 -26 -65 -29.5t-63 9.5t-48.5 41t-20.5 67q-1 24 4.5 47.5t17.5 44t30 36t41 24.5q48 17 97 25t98 18q32 7 48 12t28 11.5
t24.5 14.5t38.5 21zM503 265q11 -1 18 11t10.5 28t5 32t1.5 24q1 9 -5 9.5t-11 -4.5q-4 -4 -11.5 -19.5t-12.5 -33.5t-5.5 -32t10.5 -15zM583 403q1 -21 -1 -51.5t-10 -59t-25 -49t-46 -21.5q-19 0 -32 12.5t-17 29.5q-5 21 1 46t17.5 49.5t25.5 47.5t25 39q24 33 50 72
t53 78t55 75.5t57 63.5q20 19 41.5 33t46.5 19q13 3 28.5 4.5t31 0.5t29.5 -5t24 -12q6 -6 5.5 -14t-4.5 -15t-10.5 -10.5t-13.5 0.5q-10 5 -23 4.5t-24 -10.5q-7 -7 -13.5 -19t-11.5 -26t-9.5 -28.5t-8.5 -24.5q-24 -69 -50 -155.5t-43.5 -176.5t-22 -177.5t15.5 -159.5
q3 -11 -2.5 -18.5t-14.5 -11t-19 -1t-14 13.5q-15 52 -17.5 111.5t4 123t20 129t30.5 128t36 121t36 108.5q3 14 -8.5 17.5t-23.5 -7.5q-25 -26 -43.5 -50t-34.5 -48t-32 -49.5t-35 -54.5q-11 -17 -17.5 -34.5t-5.5 -37.5z" />
    <glyph glyph-name="N" unicode="N" horiz-adv-x="771" 
d="M476 634q-24 -54 -44.5 -110t-40 -113t-39.5 -114t-43 -112q-13 -31 -30 -61.5t-39 -56.5t-49 -47t-60 -32q-28 -9 -55.5 -9.5t-54.5 10.5q-15 6 -18.5 16.5t-0.5 20t11.5 14.5t18.5 0q20 -8 39.5 -8.5t40.5 5.5q25 7 47 23t40 36.5t32 44t24 47.5q25 55 45.5 111t39 112
t37.5 113t42 113q9 31 -21 28q-23 -4 -52.5 -7t-59.5 -7.5t-57.5 -11.5t-45.5 -19q-23 -16 -36.5 -43t-15.5 -54q-2 -31 12 -54.5t46 -28.5q36 -5 63 22q7 7 16 5t15 -8.5t6 -16t-9 -17.5q-21 -17 -47.5 -25.5t-53.5 -5.5q-22 3 -40.5 13.5t-32 26.5t-21.5 36.5t-9 43.5
q0 25 7.5 50t21 47t33 39.5t42.5 26.5q48 17 88 23.5t78.5 12.5t78.5 18.5t88 41.5q6 3 12.5 5.5t12.5 1.5q11 -2 19 -11.5t3 -23.5q-2 -5 -3.5 -9.5t-2.5 -9.5q-2 -11 0 -39t6 -63.5t9.5 -76t11 -78t10 -67.5t7.5 -45q1 -15 -4.5 -26.5t-13 -17t-15 -5t-9.5 9.5
q-13 81 -24.5 154.5t-22.5 154.5q-2 16 -13.5 18t-19.5 -11zM840 743q20 12 42.5 19t45.5 7q28 0 56 -11q16 -6 22 -21q3 -8 0.5 -17t-10.5 -13q-6 -4 -16 0q-41 17 -84 5q-30 -8 -55 -30t-46 -53q-22 -32 -43.5 -76t-40.5 -92t-34.5 -95t-25.5 -84q-5 -18 -7.5 -42.5
t1.5 -44.5q8 -28 12.5 -56t2.5 -57q-1 -14 -6 -28.5t-13.5 -26.5t-20.5 -20t-27 -8q-17 -1 -31 10t-20 26t-5 37.5t7 50t16 58t21 62.5q15 43 35 101t43.5 118t48 113.5t48.5 87.5q17 25 38 45.5t46 34.5zM593 141q-1 -6 -4 -22.5t-4.5 -34t0.5 -31t11 -13.5q8 0 15 12.5
t8 30.5q0 13 -3 29t-7 32q-3 8 -8 7.5t-8 -10.5z" />
    <glyph glyph-name="O" unicode="O" horiz-adv-x="601" 
d="M483 201q39 15 76 44.5t58 66.5q4 6 8 11t12 7q11 4 20 -2t10 -17q0 -6 -1 -9q-1 -6 -7 -14q-51 -80 -135 -122q-21 -11 -44 -18t-47 -9q-20 -2 -32.5 -9.5t-27.5 -21.5q-8 -11 -17 -20q-42 -47 -86 -69t-85.5 -22.5t-78 20t-62.5 58.5q-24 35 -34.5 79t-10.5 93t9 100
t24 98.5t34.5 90t41.5 73.5q6 8 13 14.5t18 3.5q11 -2 17.5 -12.5t3.5 -21.5q-2 -6 -5.5 -10.5t-6.5 -9.5q-18 -24 -35 -60.5t-30 -79.5t-21 -90t-8.5 -91t8.5 -83t29 -66t45.5 -41t55 -12.5t61.5 19t64 52.5q31 34 57.5 77.5t46.5 90.5t34 95t22 93q2 15 4 37.5t2 48.5
t-2.5 52.5t-9.5 49.5q-8 26 -24.5 47t-45.5 23q-27 2 -55.5 -16.5t-50.5 -47.5q-33 -43 -51 -105.5t-15.5 -127.5t28 -123.5t78.5 -93.5q8 -5 8.5 -15t-4.5 -18t-14.5 -12t-21.5 2q-63 43 -93.5 111.5t-34 144t17.5 148t62 124.5q32 40 73 62.5t82 18.5q35 -3 64 -27.5
t46 -77.5q8 -26 11.5 -54.5t3.5 -56.5t-2.5 -54t-5.5 -47q-10 -60 -27.5 -118.5t-43.5 -113.5q-12 -26 -2.5 -35.5t29.5 -1.5z" />
    <glyph glyph-name="P" unicode="P" horiz-adv-x="636" 
d="M374 300q-19 1 -34.5 -6.5t-20.5 -27.5q-9 -36 -21 -72t-28.5 -68.5t-39.5 -61.5t-54 -51q-32 -23 -68 -32t-75 1q-19 4 -26 14t-6.5 20t7.5 16t17 3q35 -10 66 -3.5t57 25.5q42 32 69.5 86.5t46.5 117.5t32 127t27 115q6 22 14.5 47t20 48t27 43t37.5 32q12 7 22 4.5
t15.5 -9.5t5.5 -16.5t-7 -16.5q-18 -14 -30 -27.5t-20.5 -29t-15.5 -35t-15 -44.5q-9 -29 -15.5 -52.5t-11.5 -46.5q-9 -51 43 -51q46 2 83 15q43 16 74 51t43 95q6 28 3 57.5t-13.5 56.5t-29 50.5t-44.5 41.5q-32 21 -70 27.5t-77 1.5t-75 -22t-63 -42q-42 -40 -65 -97.5
t-14 -115.5q8 -46 34 -81q6 -8 8 -17t-5 -17q-2 -3 -8 -7q-6 -3 -14 -4t-13 3q-2 1 -4 3q-35 43 -47 95q-8 36 -5.5 74t14.5 73.5t33 67.5t48 56q31 29 71 49.5t84 29.5t88 5t83 -23t66.5 -48.5t44 -65.5t21 -75.5t-2.5 -78.5q-14 -76 -54.5 -123.5t-97.5 -67.5
q-53 -18 -115 -16z" />
    <glyph glyph-name="Q" unicode="Q" horiz-adv-x="606" 
d="M335 39q19 -14 35.5 -27.5t35.5 -26.5q30 -21 65.5 -38.5t72.5 -14.5q27 3 50 17t41 32q7 8 16.5 9t17.5 -5q9 -5 10.5 -16.5t-6.5 -19.5q-24 -25 -54 -43t-65 -23q-48 -6 -91.5 13t-81.5 45q-20 15 -40.5 30t-40.5 31q-15 11 -38.5 12.5t-45.5 -7.5q-23 -8 -46 -13
t-47 -5t-47.5 6.5t-42.5 21.5q-17 14 -25.5 33t-6.5 39q2 17 12 32t25 24q20 11 42 13t44 -2q56 -9 108 -40q13 -9 25.5 -9.5t23.5 4t20.5 11.5t15.5 13q37 33 67 71.5t55 81.5q30 51 52.5 107t30.5 116q5 34 2.5 68t-16.5 66q-15 34 -44 52t-62.5 22.5t-68.5 -3.5t-63 -26
q-50 -32 -80 -86t-41 -111q-5 -25 -7.5 -55.5t1.5 -60.5t14.5 -57.5t30.5 -45.5q15 -14 35 -20t40 -1q19 5 33 18.5t22 30.5q6 14 6 27.5t-10 25.5t-7.5 23.5t11 17t20.5 2t22 -19.5q13 -21 13.5 -44.5t-8.5 -46.5q-11 -26 -30.5 -47t-45.5 -31q-25 -10 -52 -7.5t-50 13.5
q-36 18 -57 50.5t-30 71t-8.5 79.5t6.5 77q6 34 18 68.5t30 66t42.5 58.5t55.5 46q37 22 80.5 32t85.5 4.5t78 -27.5t59 -64q22 -39 26.5 -83t-0.5 -87q-9 -65 -33 -125t-56 -117q-30 -51 -66 -99t-81 -87q-3 -2 -6.5 -6.5t-5 -10.5t0 -12t9.5 -11zM186 82q-39 22 -79 26
q-14 2 -28 0t-23 -12q-7 -7 -6 -16t6 -16q9 -12 23 -17.5t28 -7.5q20 -2 39 0.5t37 8.5q17 5 18 15.5t-15 18.5z" />
    <glyph glyph-name="R" unicode="R" horiz-adv-x="677" 
d="M465 310q-14 12 -36.5 22.5t-45.5 13t-43 -6t-28 -32.5q-7 -20 -10.5 -36t-11.5 -36q-14 -41 -39 -80.5t-58.5 -69t-75 -43.5t-87.5 -2q-18 4 -24 14t-3.5 20.5t10.5 17t18 3.5q39 -12 71.5 -2t58 32.5t44.5 54.5t31 65q18 48 28 84.5t17.5 71t15.5 72t22 87.5
q6 23 14.5 47.5t20.5 48t28 43t38 32.5q12 7 22 4.5t15.5 -10t5.5 -17t-7 -16.5q-18 -15 -30 -28.5t-21 -29t-16 -34.5t-14 -44q-8 -23 -13 -44t-10 -40q-4 -28 7 -46t37 -18q15 1 29.5 2.5t28.5 5.5q37 9 65.5 29t48 48t29.5 61t10 66q0 37 -12 73t-36.5 63.5t-60.5 45
t-84 18.5q-61 2 -113 -23t-89 -69t-54 -100.5t-7 -119.5q6 -44 33 -80q9 -12 7 -23.5t-10 -17.5t-19.5 -5t-21.5 14q-14 17 -25 44t-15 43q-19 83 4.5 158t76.5 130q44 46 103 73t127 28q60 1 106.5 -20.5t78 -56.5t47 -80.5t14.5 -93.5q0 -33 -8 -66t-24 -63t-39.5 -56
t-54.5 -44q-17 -10 -21 -20.5t-2 -19.5t8 -16.5t10 -11.5q26 -31 36.5 -64t12 -66t-1.5 -64t-4 -58t4.5 -49t25.5 -37q15 -11 28 -15t23 -2q13 1 20.5 -4.5t10.5 -13.5t0 -16.5t-11 -13.5q-22 -10 -49.5 -4.5t-53.5 24.5q-28 20 -38.5 47.5t-12 59t1 66t0.5 69t-13 67
t-40 60.5z" />
    <glyph glyph-name="S" unicode="S" horiz-adv-x="581" 
d="M650 676q-12 -46 -45.5 -77t-75.5 -51q-25 -11 -53 -21q-15 -5 -20.5 -19t-2.5 -28q0 -2 2 -6q18 -51 33 -108.5t12 -106.5q-3 -50 -24 -96t-56 -81q-37 -38 -83.5 -56.5t-94.5 -19.5t-93.5 15t-79.5 47t-53.5 75.5t-15.5 101.5q3 42 19.5 80t45.5 65.5t69 40.5t89 4
q35 -6 61.5 -23t42 -41t18 -54t-10.5 -63q-5 -11 -14 -13.5t-17.5 1t-13 11t-1.5 16.5q8 19 6 38.5t-11.5 35.5t-26 27.5t-36.5 15.5q-35 7 -64.5 -3t-51.5 -31.5t-34.5 -51.5t-14.5 -62q-3 -46 13.5 -80.5t44.5 -57t65 -33t75 -7.5t74.5 19.5t63.5 48.5q23 26 37 58.5
t18 68.5q6 54 -10.5 109t-34.5 108q-5 16 -21 25t-32 10q-12 0 -23.5 1t-22.5 3q-90 16 -139.5 75.5t-44.5 150.5q1 14 9.5 20t18 5.5t16.5 -7t6 -17.5q-4 -35 5.5 -65.5t28.5 -54.5t46.5 -40t60.5 -22q50 -8 103 2.5t97 30.5q33 17 59.5 40.5t34.5 55.5q5 21 1.5 37.5
t-13.5 28t-24.5 17.5t-30.5 7q-27 1 -46.5 -8t-33.5 -25t-22.5 -36.5t-11.5 -43.5q-2 -17 -0.5 -29t3.5 -29q2 -10 -4 -16.5t-14 -8.5q-11 -3 -21.5 1.5t-11.5 16.5q-3 20 -5 33.5t0 32.5q4 32 16 61t32.5 50.5t50 34.5t67.5 13q28 0 52.5 -9.5t41.5 -28t23.5 -46
t-2.5 -62.5z" />
    <glyph glyph-name="T" unicode="T" horiz-adv-x="420" 
d="M327 551q5 16 11 37.5t13 44t14.5 44t15.5 37.5q13 26 27.5 44t29.5 31q25 20 51.5 27.5t51.5 5.5q32 -2 53.5 -16t32 -33.5t10 -42t-11.5 -42.5t-32.5 -34t-52.5 -17q-5 0 -14.5 0.5t-20 1t-21.5 2t-20 2.5q-51 6 -68 -46q-5 -13 -7.5 -23.5t-7.5 -24.5
q-27 -93 -52 -186t-60 -185q-15 -40 -41.5 -79t-61.5 -67t-77 -40.5t-87 1.5q-18 4 -25 14.5t-5.5 20t8.5 16t17 2.5q39 -13 73 -4.5t62.5 30.5t50.5 53t35 64q36 90 59.5 180.5t49.5 181.5zM345 712q6 -2 8.5 -10t0.5 -16.5t-7.5 -15t-15.5 -3.5q-33 6 -63 11.5t-62 7.5
q-39 2 -78 -5t-59 -30q-16 -19 -24 -41t-8 -44q0 -30 14 -50t34.5 -27.5t44 -1.5t42.5 27q8 7 17 5t14.5 -8.5t5.5 -16t-9 -17.5q-32 -28 -68 -35t-67 4.5t-52.5 40t-24.5 72.5q-2 34 10 67.5t38 59.5q15 15 34.5 24t42 14.5t46.5 7t46 0.5q39 -1 73 -7.5t67 -12.5zM453 692
q8 -2 21 -3t26.5 -2t25 -1h17.5q26 3 38 16.5t11 28.5t-13.5 28t-34.5 14q-14 1 -30.5 -4t-33.5 -18q-18 -13 -32 -33q-6 -7 -8 -15.5t13 -10.5z" />
    <glyph glyph-name="U" unicode="U" horiz-adv-x="706" 
d="M436 708q-7 -7 -12 -17q-17 -28 -36.5 -69t-38 -89.5t-35.5 -101t-29 -104.5q-2 -12 -12 -17.5t-20.5 -5.5t-18.5 5t-6 16q10 44 23 88t28 86t30.5 80.5t31.5 70.5q4 10 3 16t-4.5 9t-8.5 4t-9 0q-24 -3 -49 -4t-50 -3.5t-47 -8t-40 -17.5q-25 -17 -42.5 -44t-25.5 -58.5
t-7 -65.5t12.5 -65.5t34.5 -58.5t58 -44q42 -20 85 -20t84 25q33 20 57.5 53t34.5 73q4 16 12 22t17 4.5t16 -8.5t8 -18q-6 -34 -21.5 -64.5t-38 -56t-50 -44t-58.5 -28.5q-16 -5 -32 -15.5t-18 -29.5q-4 -42 0 -71q8 -51 36.5 -69t64.5 -11q86 16 134 99q11 19 23 48.5
t24.5 63.5t25 71.5t23.5 73t19.5 66.5t13.5 54q6 23 10.5 46.5t11.5 46.5q9 28 25 40t30 9t21.5 -18.5t-0.5 -41.5q-7 -22 -18 -45.5t-19 -45.5q-18 -50 -35.5 -105.5t-31.5 -110t-24 -104.5t-14 -89q-5 -42 2.5 -73.5t32.5 -65.5q10 -13 8.5 -23.5t-8.5 -17t-17 -7.5t-18 6
q-14 12 -26 33.5t-19.5 46t-10 50.5t1.5 48q-26 -48 -69 -76t-97 -35q-28 -4 -54.5 2t-48 22t-36 43t-18.5 66q-2 17 -1 36t3 40q2 20 -9 29.5t-28 14.5q-57 18 -93.5 54.5t-54.5 81.5t-18.5 94.5t14 93.5t42.5 78.5t68 49.5q36 13 75 17.5t76.5 8.5t72.5 11t64 25
q6 3 12 6.5t12 5.5q11 5 21 4q9 -1 15 -10t4 -18q-1 -4 -4 -7.5t-5 -5.5q-5 -4 -9.5 -7.5t-9.5 -7.5t-8.5 -7t-7.5 -8z" />
    <glyph glyph-name="V" unicode="V" horiz-adv-x="674" 
d="M376 657q-18 -80 -36 -155t-36 -156q-3 -10 -12.5 -14.5t-19 -5t-16.5 4t-5 12.5q18 82 36 159.5t36 159.5q5 18 -1 25.5t-25 6.5q-23 -3 -45.5 -4t-44 -3.5t-41.5 -8t-38 -17.5q-33 -23 -51.5 -61.5t-20.5 -83.5q-2 -42 13 -83.5t48 -72.5q28 -27 62 -40t69 -12.5
t68 15.5t60 44q17 19 30 42.5t20 49.5q4 13 13.5 18.5t19 4t15.5 -10t3 -22.5q-15 -66 -62 -116q-18 -19 -39 -34t-44 -26q-24 -10 -38.5 -30t-16.5 -40q-2 -14 -3 -28t-1 -28q1 -47 15 -68t35 -21.5t47 17.5t50 50q26 35 53.5 87t54 114t52 129t48 131.5t41 122t31.5 100.5
q3 9 12 12.5t18 1.5t15 -9t3 -18q-11 -44 -29 -103.5t-41.5 -125.5t-50.5 -135t-55.5 -133t-57.5 -118.5t-56 -90.5q-36 -49 -76.5 -72t-76 -18t-59.5 38.5t-25 98.5q-1 14 0 29.5t3 31.5q4 22 -5.5 39t-42.5 28q-27 8 -52.5 21.5t-45.5 32.5q-41 37 -60 86t-19 100
q0 35 8 68t24 61.5t38 49.5t51 32q36 13 72 17.5t70.5 8.5t67 11t62.5 25l12.5 7.5t15.5 6.5q10 4 18.5 1t13 -9t4 -14.5t-9.5 -16.5q-8 -8 -17.5 -14.5t-17.5 -15.5q-4 -5 -9.5 -13t-10.5 -18t-9.5 -19.5t-5.5 -15.5z" />
    <glyph glyph-name="W" unicode="W" horiz-adv-x="968" 
d="M380 652q-18 -81 -35.5 -154.5t-35.5 -153.5q-3 -10 -12.5 -15t-19.5 -5.5t-17.5 4t-5.5 12.5q18 82 34.5 158t34.5 158q6 23 -1 29t-33 2q-21 -3 -42 -4t-41.5 -3.5t-39 -8t-35.5 -16.5q-34 -23 -52.5 -61.5t-20.5 -83.5q-2 -42 13 -83t49 -73q28 -26 62 -39.5
t68.5 -12.5t67.5 15.5t60 43.5q37 39 51 92q3 15 13 21t19.5 5t15.5 -10t3 -24q-8 -35 -24 -64t-39 -54q-20 -21 -43 -38.5t-49 -27.5q-11 -5 -24 -14.5t-21 -38.5q-2 -18 -3 -34t-1 -33q1 -47 14.5 -68t34.5 -21.5t47 17.5t50 51q28 37 54.5 84.5t50.5 101t46 110t41 111.5
q14 44 26.5 85t23.5 78q3 10 12.5 13t19 0.5t16 -9.5t3.5 -18q-8 -31 -19 -73t-23 -91q-14 -54 -27 -111.5t-23 -111t-15 -99t-2 -75.5q6 -56 37 -64t71 30q24 23 46.5 64.5t42.5 93.5t38.5 110t34.5 114.5t31 107.5t28 89q17 47 39 88t52 69q17 16 38 27.5t45 16.5
q28 7 60 1q18 -3 25.5 -13t7 -20t-8 -17t-18.5 -4q-45 9 -86 -13q-35 -19 -59.5 -60.5t-42.5 -92.5q-15 -41 -30.5 -94.5t-33 -112t-36.5 -119t-40.5 -114t-46 -97.5t-52.5 -70q-32 -30 -64.5 -39t-60.5 0t-47.5 36t-24.5 70q-1 11 -1.5 17.5t-0.5 17.5q0 29 -16.5 30.5
t-29.5 -18.5q-22 -38 -42 -65q-36 -49 -77.5 -71.5t-77 -17.5t-59.5 38.5t-26 98.5q-1 18 0.5 35.5t3.5 37.5q2 15 -7 28.5t-28 19.5q-32 7 -59.5 23t-50.5 37q-41 37 -59.5 86t-19.5 100q0 35 8 68t24 61.5t38.5 49.5t51.5 32q36 13 72 18t70.5 8.5t67 10.5t61.5 25
q6 4 13 8t15 7q10 3 19 0.5t13.5 -9t3.5 -15t-10 -16.5q-8 -8 -16.5 -14t-16.5 -15q-4 -5 -9.5 -13t-10.5 -18t-9.5 -19.5t-5.5 -15.5z" />
    <glyph glyph-name="X" unicode="X" horiz-adv-x="755" 
d="M609 85q12 -27 28 -41.5t32.5 -19.5t32 -1.5t27.5 12.5q10 9 19.5 8t16 -7.5t7 -17t-7.5 -20.5q-18 -18 -43 -27.5t-51.5 -6t-53.5 21.5t-49 55q-20 36 -34.5 91.5t-25.5 129.5q-2 24 6 36.5t18.5 16.5t19 0t8.5 -13q10 -78 21.5 -130.5t28.5 -86.5zM410 748
q-37 -5 -69 -10.5t-67 -20.5q-33 -14 -51.5 -41.5t-21.5 -56.5t7.5 -48.5t29 -28.5t42 -5.5t47.5 22.5q9 7 18.5 4.5t14.5 -10.5t4 -18.5t-11 -18.5q-33 -26 -69.5 -30.5t-67.5 9.5t-50.5 45t-17.5 76q1 22 8.5 45.5t21.5 44t34.5 36.5t46.5 25q35 11 64 17.5t56 12t54.5 11
t59.5 14.5q23 7 39 20.5t36 23.5q12 6 21.5 2t14.5 -12t4.5 -18t-8.5 -16l-34 -28t-28 -32q-10 -16 -13 -29.5t-3 -31.5q2 -92 9 -182q2 -20 15.5 -21.5t26.5 16.5q31 45 67.5 94.5t77.5 95.5t87 84.5t97 61.5q13 6 22.5 2t14 -13t3 -19t-10.5 -15q-52 -26 -95.5 -63
t-81.5 -80.5t-71.5 -91t-66.5 -93.5q-43 -62 -88 -125.5t-91 -122t-91.5 -107.5t-90.5 -80q-28 -20 -58 -32t-63 -12t-58 11t-42.5 29t-26 40.5t-8.5 46.5q0 20 6.5 40t19 36.5t31.5 28.5t44 16q13 3 22 -3.5t11.5 -16t-2 -19.5t-17.5 -13q-26 -4 -40.5 -23.5t-16.5 -43.5
q-1 -13 3 -26t13 -23t23 -16.5t33 -6.5q26 0 49 8t44 22q54 35 111.5 104t117.5 153q21 29 26 63t2 69q-5 60 -9 113t-5 116q0 7 -3.5 16t-11 16t-17.5 11t-23 2z" />
    <glyph glyph-name="Y" unicode="Y" horiz-adv-x="657" 
d="M652 516q-5 -26 -17 -49.5t-21 -48.5q-23 -66 -46 -141.5t-45 -142.5q-8 -21 1.5 -34t26.5 -22q25 -14 48.5 -33.5t31.5 -37.5q6 -11 4 -19.5t-8 -13t-14 -4t-15 7.5q-32 39 -77.5 62t-96.5 20q-23 -1 -48.5 -9.5t-48 -22t-39.5 -31.5t-23 -39q-3 -10 -2.5 -21t4 -19.5
t11.5 -13.5t20 -3q22 2 41.5 14t36 29.5t29.5 39t22 43.5q4 13 13.5 17t18.5 2t15 -8.5t3 -15.5q-11 -27 -27.5 -55t-37 -51.5t-45.5 -40t-54 -19.5q-30 -4 -51 5.5t-32.5 27t-13 41.5t6.5 48q9 27 29 49t46.5 37.5t56.5 25.5t59 13q28 4 41 16.5t16 21.5q5 14 9 27.5
t9 27.5q2 5 -3 9t-13 -1q-24 -17 -53.5 -30t-60.5 -18q-54 -8 -88.5 19.5t-38.5 84.5q-3 38 9 81t27 88t26 90.5t5 87.5q-8 61 -40.5 89.5t-71.5 28.5q-21 0 -42.5 -8t-39.5 -24t-31 -38.5t-19 -51.5q-5 -29 0.5 -57t22.5 -51q6 -7 11.5 -13t13.5 -11q8 -6 8 -16t-6 -17
q-7 -8 -16.5 -8t-17.5 5q-24 16 -39 39q-17 25 -24.5 59t-4.5 64q3 39 20.5 71.5t43.5 56t58 36.5t65 13q26 0 51.5 -8t47 -26t38 -46.5t24.5 -68.5q10 -47 1.5 -92.5t-22.5 -89.5t-27.5 -87.5t-14.5 -87.5q-1 -38 18.5 -53.5t55.5 -9.5q32 6 62 22.5t55.5 44t44.5 64.5
t29 83q5 23 9 47t11 47q8 30 23 41t29 9t22.5 -15.5t4.5 -31.5z" />
    <glyph glyph-name="Z" unicode="Z" horiz-adv-x="563" 
d="M684 -48q-33 -29 -73.5 -44t-85.5 -7q-36 6 -72.5 24.5t-73 45t-73 58.5t-70.5 65q-11 10 -26 22.5t-32 24t-35.5 19.5t-35.5 8q-24 1 -36.5 -10t-14.5 -26q-5 -29 10.5 -44.5t39.5 -14.5q24 0 49 17q13 11 26 9t20 -10t6 -20t-14 -21q-19 -14 -40.5 -20.5t-41.5 -7.5
q-24 0 -46.5 8t-38 23.5t-23.5 37.5t-4 49q4 28 18 46.5t34 28.5t44.5 10.5t49.5 -6.5q24 -6 41.5 -10.5t32.5 -2.5t29 14t31 39l258 426q13 21 11 35t-12.5 24t-26.5 15.5t-31 10.5q-32 8 -67 14t-67 3q-36 -3 -63 -23t-37 -68q-7 -33 4.5 -63t44.5 -41q16 -5 34.5 -4
t37.5 9q11 4 19.5 -1.5t12 -15.5t0 -20t-15.5 -15q-48 -17 -94 -8q-30 7 -51 23.5t-33.5 38.5t-16.5 48t0 52q4 27 16 52t31.5 44.5t45.5 31.5t59 13q41 1 75.5 -4t66.5 -11.5t64.5 -12.5t70.5 -6q13 0 23.5 2t20.5 4.5t19.5 5.5t20.5 6q15 3 24.5 -5.5t12 -20.5t-2.5 -24.5
t-19 -16.5q-31 -10 -57 -24t-49 -50l-279 -455q-9 -15 -16.5 -30t-10.5 -30t0.5 -30t15.5 -30q15 -18 39.5 -41t54 -44.5t61.5 -39t62 -24.5q32 -8 59.5 3.5t50.5 32.5q11 11 22.5 10t19 -9.5t8 -20t-10.5 -21.5z" />
    <glyph glyph-name="bracketleft" unicode="[" horiz-adv-x="229" 
d="M154 33q-24 0 -48 0.5t-49 1.5q-12 0 -21 7t-7 20q11 90 24.5 175.5t30 169t37 168t45.5 173.5q5 22 27 22q21 0 41 -0.5t40 -0.5q14 0 20 -8t5 -17.5t-8 -17t-20 -7.5h-40q-5 0 -14 -3.5t-12 -12.5q-20 -67 -38 -139t-33 -146.5t-27 -148t-21 -143.5q-1 -3 -1 -10.5
t2.5 -15t8.5 -12.5t18 -4q11 0 21 -0.5t21 -0.5q10 0 17.5 -7t7.5 -17q0 -15 -13 -23q-6 -5 -14 -3z" />
    <glyph glyph-name="backslash" unicode="\" horiz-adv-x="244" 
d="M6 733q-4 10 1 17.5t12.5 10t16 -2t11.5 -16.5q18 -69 36 -136.5t37 -135.5q8 -30 20.5 -76.5t26 -95.5t26.5 -95.5t21 -76.5q3 -10 -2.5 -16.5t-13.5 -8t-15.5 2t-10.5 14.5q-8 31 -21 77.5t-26.5 96t-26.5 96t-21 76.5q-18 68 -36 134.5t-35 134.5z" />
    <glyph glyph-name="bracketright" unicode="]" horiz-adv-x="316" 
d="M145 775q25 0 49 -1l48 -2q13 0 21.5 -6.5t7.5 -19.5q-11 -90 -24.5 -175.5t-30 -169t-37 -168t-45.5 -173.5q-7 -22 -28 -22q-20 0 -40 0.5t-40 0.5q-14 0 -20 8t-5 17.5t8 17t20 7.5q10 0 19.5 -0.5t19.5 -0.5q5 0 14.5 4t12.5 13q20 66 38 138.5t33 146.5t27 148
t21 144q1 3 1 10.5t-2.5 15t-8.5 12.5t-18 4h-21t-21 1q-10 0 -17.5 7t-7.5 17q0 14 12 23q7 3 14 3z" />
    <glyph glyph-name="asciicircum" unicode="^" horiz-adv-x="387" 
d="M237 443q-14 15 -24 16t-24 -13l-71 -72q-6 -11 -19 -9q-12 0 -17 11q-6 12 0 23l111 115q12 12 25 11.5t22 -11.5l89 -114q10 -12 6 -25q-2 -6 -8 -9.5t-12 -4.5q-11 -2 -19 7l-59 75v0z" />
    <glyph glyph-name="underscore" unicode="_" horiz-adv-x="467" 
d="M389 21q11 0 17 -6t6.5 -14t-5.5 -15t-18 -8h-135h-153q-12 0 -18 7t-6 15t5.5 15t16.5 7h152h69t69 -1z" />
    <glyph glyph-name="a" unicode="a" horiz-adv-x="345" 
d="M109 437q17 9 34 12t31 1q12 -2 22.5 -5.5t18.5 -8.5q12 -7 19.5 -4t12.5 6q6 5 14.5 5t15 -4t9.5 -12.5t-2 -21.5q-3 -7 -8 -22t-12 -34.5t-14 -42t-13 -45.5q-5 -22 -9 -42t-6 -37q-2 -44 26 -42q18 1 35.5 18.5t33 40.5t29 47.5t22.5 40.5q3 6 9.5 6t12 -3t8 -9
t-1.5 -13q-11 -20 -25.5 -47t-32.5 -52.5t-40 -45t-48 -23.5q-18 -3 -33 2.5t-26 21.5q-11 17 -20 16t-21 -10q-23 -20 -53 -28q-25 -6 -45.5 4.5t-33.5 30.5q-18 29 -18 71t14 86q14 47 39 86.5t56 56.5zM196 378q-6 18 -22 24q-22 10 -52 -11q-17 -13 -32 -41t-26 -61
q-12 -36 -15 -71t7 -56q6 -12 17 -18t28 2q25 11 48.5 44t35.5 75q10 32 14 62.5t-3 50.5z" />
    <glyph glyph-name="b" unicode="b" horiz-adv-x="316" 
d="M172 112q-8 6 -18.5 6.5t-18.5 -4.5q-30 -15 -68 -12q-17 2 -33.5 11t-24.5 24q-9 20 -10.5 44t1.5 50.5t10 54t15 54.5q8 26 16 50t14 44q21 67 39 125.5t32 102.5q4 14 14 18.5t20 1.5q8 -2 13.5 -10t3.5 -18q-4 -15 -10 -35t-13.5 -43t-15 -47.5t-14.5 -47.5
q-5 -14 -4 -20.5t4.5 -8t10 0t12.5 3.5q23 6 49 -0.5t40 -26.5q16 -23 15 -66t-15 -90q-7 -23 -16 -45.5t-20 -43.5q-2 -5 -5.5 -14t2.5 -18q7 -10 18 -10q18 1 35.5 18.5t33 40.5t29 47.5t22.5 40.5q3 6 9.5 6t12 -3t8 -9t-1.5 -13q-11 -20 -25.5 -47t-32.5 -52.5t-40 -45
t-48 -23.5q-24 -4 -45 10zM162 239q8 -3 10.5 2t4.5 10l4.5 12l4.5 12q14 39 17 72t-7 48q-9 14 -23 15t-29 -7q-40 -23 -65 -78q-10 -22 -17 -45.5t-10 -45t-2 -40t6 -30.5q5 -10 12.5 -14t16.5 -3.5t18 4t16 9.5q9 7 9.5 11.5t-2.5 13.5q-5 13 -4 24t6 19t14 11t20 0z" />
    <glyph glyph-name="c" unicode="c" horiz-adv-x="269" 
d="M19 145q-17 28 -16.5 69.5t14.5 84.5q10 29 25.5 56.5t35 48.5t43 34t48.5 13q20 1 38.5 -7.5t28.5 -27.5q19 -35 -6 -84q-4 -11 -12.5 -14.5t-16 -1.5t-11.5 9.5t2 18.5q5 11 9.5 24t-0.5 25q-4 10 -12 13t-17 2q-17 -2 -33.5 -12.5t-30.5 -27t-25.5 -37t-18.5 -42.5
q-12 -34 -14.5 -66t8.5 -53q9 -18 25 -25t35 -5q28 2 53 17.5t45.5 38t37 47.5t28.5 46q4 6 10.5 6.5t12 -2.5t8 -9.5t-1.5 -13.5q-15 -26 -34 -54.5t-42.5 -53t-52 -42t-62.5 -20.5q-29 -3 -56.5 8t-44.5 37z" />
    <glyph glyph-name="d" unicode="d" horiz-adv-x="343" 
d="M209 434q14 -12 22 -7t13 19q9 29 18 59.5t17.5 58.5t16 52.5t12.5 41.5q5 13 15 18t20 2q8 -3 13.5 -10.5t3.5 -17.5q-13 -47 -31.5 -105.5t-37.5 -121.5q-12 -42 -23.5 -82t-21.5 -77q-6 -23 -11 -44.5t-9 -40.5q-5 -21 2 -31.5t20 -8.5q18 1 35.5 18t33 40.5t29 48
t22.5 39.5q3 6 9.5 6.5t12.5 -2.5t8.5 -9.5t-1.5 -13.5q-11 -20 -25.5 -47t-32.5 -52.5t-40 -44.5t-48 -23q-20 -3 -35.5 4t-25.5 24q-8 15 -18.5 13.5t-21.5 -11.5q-8 -7 -15.5 -11.5t-15.5 -8.5q-32 -17 -58.5 -8t-42.5 34q-18 29 -17.5 71.5t13.5 86.5q14 47 39 86t56 56
q10 6 23.5 9.5t27 3.5t26.5 -3t23 -11zM200 375q-7 19 -26 26q-10 4 -23 1.5t-28 -13.5q-17 -12 -32.5 -40t-26.5 -62q-11 -35 -14.5 -70.5t7.5 -56.5q5 -11 16 -17.5t28 1.5q25 11 50.5 43.5t37.5 73.5q10 33 14 63.5t-3 50.5z" />
    <glyph glyph-name="e" unicode="e" horiz-adv-x="263" 
d="M17 144q-17 28 -16.5 69.5t14.5 84.5q10 29 25.5 56.5t35 48.5t43 34t48.5 13q44 1 63 -27.5t6 -68.5q-9 -28 -25.5 -49t-38.5 -36t-48 -24t-53 -14q-5 -1 -14.5 -8.5t-9.5 -18.5q1 -11 2.5 -19t6.5 -16q9 -18 25 -25t35 -5q28 2 53 17.5t45.5 38t37 47.5t28.5 46
q4 6 10.5 6.5t12 -2.5t8 -9.5t-1.5 -13.5q-15 -26 -34 -54.5t-42.5 -53t-52 -42t-62.5 -20.5q-29 -3 -56.5 8t-44.5 37zM68 305q-5 -12 -2 -21.5t20 -7.5q36 9 68.5 28.5t43.5 58.5q5 17 -0.5 31.5t-27.5 12.5q-32 -4 -58.5 -33.5t-43.5 -68.5z" />
    <glyph glyph-name="f" unicode="f" horiz-adv-x="260" 
d="M149 603q14 18 33 28.5t38 11t34 -11t22 -37.5q9 -35 -1 -84.5t-34.5 -97.5t-63 -87t-86.5 -51q-14 -5 -17 -18.5t2 -22.5q8 -17 21.5 -30t30 -20.5t35 -8t37.5 8.5q17 9 28.5 20.5t20.5 25.5t17 29t17 30q4 6 10.5 6.5t12 -2.5t8 -9.5t-1.5 -13.5q-20 -35 -38 -65
t-56 -53q-41 -22 -82 -15q-14 2 -20.5 2t-3.5 -23q5 -42 2.5 -84t-20.5 -80q-13 -26 -31.5 -39t-38.5 -14q-21 -1 -35.5 10t-22.5 28t-9.5 37t1.5 37q8 46 26 119t42 154q15 48 29 95.5t29 90t31 77.5t34 57zM186 567q-12 -14 -23 -36t-21 -47.5t-18.5 -53.5t-16.5 -55
l-5 -17.5t-2 -18t8.5 -7t26.5 15.5q25 20 45.5 50.5t34 62t19.5 61t2 48.5q-3 15 -9 19t-13 2t-14.5 -9.5t-13.5 -14.5zM5 15q-8 -33 -1.5 -50.5t18.5 -19t25 11.5t18 40q8 34 6.5 68.5t-9.5 68.5q-8 28 -16 24.5t-14 -26.5q-8 -29 -14 -58.5t-13 -58.5z" />
    <glyph glyph-name="g" unicode="g" horiz-adv-x="325" 
d="M109 433q26 14 56 15t55 -15q10 -6 17 -2.5t10 6.5q6 5 14.5 5t15 -4.5t9 -13.5t-2.5 -22q-25 -75 -43.5 -143.5t-40.5 -140.5q-4 -13 -0.5 -15.5t9.5 0t13.5 8t11.5 9.5q38 39 62.5 81t50.5 89q3 6 10 6.5t12.5 -2.5t8 -9.5t-1.5 -13.5q-24 -46 -42.5 -79t-36 -56.5
t-35.5 -40.5t-40.5 -32t-52.5 -30.5t-70 -36.5q-21 -11 -45 -29t-43 -38q-10 -11 -13 -23t-0.5 -22t10.5 -16t19 -6q16 0 30.5 12.5t26.5 30.5t21.5 39t15.5 39q4 10 13 15.5t17 6t13.5 -3.5t3.5 -12q-9 -26 -21 -54.5t-28.5 -52t-38.5 -40t-51 -18.5q-24 -2 -42 9.5
t-26.5 30.5t-5.5 42.5t20 44.5q13 16 29.5 30.5t34.5 26t36 21t34 17.5q17 11 21 16.5t8 14.5l4 14q5 15 -2 18.5t-20 -2.5q-5 -3 -11 -4.5t-11 -3.5q-26 -6 -46 4.5t-33 30.5q-18 29 -18 71t13 86q14 47 39.5 86.5t56.5 55.5zM195 375q-7 18 -21 24q-21 10 -52 -11
q-17 -13 -32.5 -41t-26.5 -61q-11 -36 -14 -71t7 -56q6 -12 16.5 -18t27.5 2q26 11 49.5 44t35.5 75q10 32 14 62.5t-4 50.5z" />
    <glyph glyph-name="h" unicode="h" horiz-adv-x="316" 
d="M122 662q5 12 14 15.5t17 1t13.5 -9t3.5 -15.5l-55 -193q0 -1 -1.5 -7t-2 -12.5t1.5 -10t10 0.5q14 8 36 14.5t40 4.5q12 -1 25 -6t22 -15.5t13 -27t-2 -41.5q-6 -23 -14 -44.5t-16.5 -43.5t-15.5 -45t-11 -49q-5 -26 3.5 -33t23.5 -2q16 6 33.5 27.5t34.5 47.5
q14 21 25 41t19 32q3 6 9.5 6t12 -3t8 -9t-1.5 -13q-11 -19 -24 -42.5t-30 -47.5q-18 -26 -38 -48t-43 -31q-16 -6 -31.5 -5t-27.5 10t-18 25.5t-3 42.5q4 28 11 52t15 46.5t16 44.5t15 46q4 15 -3.5 22.5t-17.5 9.5q-12 2 -30 -4.5t-36 -20t-32.5 -32.5t-20.5 -41l-51 -182
q-3 -12 -12 -16t-18 -2t-15.5 8.5t-4.5 17.5z" />
    <glyph glyph-name="i" unicode="i" horiz-adv-x="169" 
d="M72 104q26 4 48 23t40 44.5t32.5 52.5t25.5 47q4 7 1.5 13.5t-8 9.5t-12 2.5t-9.5 -6.5q-9 -16 -22.5 -40.5t-29.5 -47.5t-33 -40.5t-35 -18.5q-28 -2 -26 42q1 17 5 37t10 43q6 22 13.5 45.5t14 43.5t12 35.5t8.5 22.5q6 16 1 25.5t-14.5 12t-19 -2t-12.5 -16.5
q-7 -25 -22 -68t-27 -90q-9 -38 -12.5 -72.5t4.5 -57.5t25.5 -33.5t41.5 -5.5zM118 568q13 0 22 -9t9 -22t-9 -22t-22 -9t-21.5 9t-8.5 22t8.5 22t21.5 9z" />
    <glyph glyph-name="j" unicode="j" horiz-adv-x="156" 
d="M-30 86q-3 -9 -7 -15t-21 -17q-32 -16 -69 -38.5t-63 -55.5q-17 -21 -20 -44.5t5 -42.5t25.5 -30.5t41.5 -9.5q29 2 51 18.5t38.5 40t28.5 52t21 54.5q2 8 -3.5 12t-13.5 3.5t-17 -6t-13 -15.5q-6 -18 -15.5 -39t-21.5 -39t-26.5 -30.5t-30.5 -12.5q-11 0 -19 6t-10.5 16
t0.5 22t13 23q19 20 43.5 37.5t44.5 29.5q18 10 35 17.5t33.5 16t34 18.5t36.5 26q28 23 48 46.5t35.5 48t28 50t25.5 52.5q4 7 1.5 13.5t-8 9.5t-12 2.5t-10.5 -6.5q-11 -24 -22.5 -47t-25 -45.5t-31.5 -44t-42 -42.5q-34 -23 -25 7q22 72 40.5 140.5t43.5 143.5
q6 16 1 25.5t-14 12t-19 -2t-13 -16.5zM122 564q13 0 22 -9t9 -22t-9 -22t-22 -9t-22 9t-9 22t9 22t22 9z" />
    <glyph glyph-name="k" unicode="k" horiz-adv-x="307" 
d="M122 662q4 12 13.5 15.5t18 1t14 -10.5t1.5 -19q-13 -47 -25.5 -92t-25.5 -92q-2 -6 -2.5 -18.5t9.5 -14.5q4 -1 6.5 0.5t6.5 3.5q21 13 47.5 16t49.5 -11q25 -14 30 -42t-4 -56q-8 -25 -22 -41t-30.5 -28t-34.5 -23.5t-35 -27.5q-11 -11 -12.5 -23.5t4 -24.5t16.5 -20.5
t26 -11.5q23 -4 53 13t63 69q13 19 22.5 36.5t17.5 31.5q3 6 9.5 6t12.5 -3t8.5 -9t-1.5 -13q-8 -15 -17.5 -32t-20.5 -35q-40 -65 -79 -88.5t-72 -21.5q-31 3 -54 20.5t-32.5 41.5t-4 50.5t30.5 47.5q13 12 29 21.5t30.5 20t27 24t18.5 31.5q5 16 2 30t-23 17q-12 2 -31 -8
t-38 -26.5t-35 -36.5t-22 -39l-49 -173q-3 -12 -12 -16.5t-18 -2.5t-15.5 9t-4.5 18z" />
    <glyph glyph-name="l" unicode="l" horiz-adv-x="178" 
d="M231 268q-13 -23 -25.5 -45.5t-27.5 -43.5t-33.5 -38t-43.5 -29q-35 -17 -63.5 -6.5t-34.5 49.5q-4 21 -2.5 42.5t6 42.5t10.5 42t12 41l100 342q3 11 12 15.5t18 2.5t14.5 -10.5t1.5 -23.5q-24 -81 -48.5 -163.5t-47.5 -164.5q-5 -14 -11.5 -36.5t-11.5 -45.5
t-6.5 -44.5t4.5 -34.5q7 -16 26 -13q21 4 39 20t33 36.5t27 43t23 40.5q3 6 9.5 6t12.5 -3t8.5 -9t-1.5 -13z" />
    <glyph glyph-name="m" unicode="m" horiz-adv-x="501" 
d="M63 425q4 10 11.5 14.5t15 4.5t14 -4t9.5 -10q3 -8 10 -6.5t12 4.5q32 21 71 20q14 -2 29.5 -8.5t23.5 -22.5q8 -10 10.5 -10.5t12.5 8.5q20 17 46.5 26t49.5 7q12 -1 24.5 -6t22 -15.5t13.5 -27.5t-2 -41q-6 -23 -13.5 -44l-15 -42t-14 -43.5t-10.5 -48.5
q-5 -26 3.5 -33.5t23.5 -1.5q16 6 33.5 27t34.5 47q14 22 25 42t19 32q3 6 9.5 6t12.5 -3t8.5 -9.5t-1.5 -13.5q-11 -18 -24.5 -42t-29.5 -47q-19 -26 -39 -48t-43 -31q-16 -6 -31.5 -5t-27.5 9.5t-18 25.5t-2 43q4 28 10 51.5t13 45t14.5 42.5t14.5 45q4 15 -3.5 23
t-17.5 10q-16 3 -31.5 -4t-29 -19.5t-25.5 -29.5t-21 -35q-18 -42 -33.5 -92t-28.5 -96q-3 -12 -11.5 -16t-17.5 -2t-15.5 8.5t-4.5 17.5q14 46 28 92.5t27 91.5q3 13 5.5 27.5t2.5 26.5t-4 20t-13 10q-24 4 -46.5 -12.5t-40.5 -41.5t-30.5 -52.5t-17.5 -46.5l-35 -123
q-3 -12 -11.5 -16t-17 -2t-15 8.5t-4.5 17.5z" />
    <glyph glyph-name="n" unicode="n" horiz-adv-x="341" 
d="M76 430q4 10 11.5 14.5t15 4.5t14 -4t9.5 -10q1 -2 5.5 -5.5t13.5 1.5q33 24 74 22q12 -1 24.5 -6t22 -15.5t13 -27.5t-2.5 -41q-6 -23 -13 -44t-14.5 -42t-14 -43.5t-10.5 -48.5q-5 -26 3.5 -33.5t23.5 -1.5q16 6 33.5 27t34.5 47q14 22 25 42t19 32q3 6 9.5 6t12 -3
t8 -9.5t-1.5 -13.5q-11 -18 -24 -42t-30 -47q-18 -26 -38 -48t-43 -31q-16 -6 -31.5 -5t-27.5 9.5t-18 25.5t-3 43q4 28 10.5 51.5t13.5 45t14.5 42.5t14.5 45q4 15 -3.5 23t-17.5 10q-24 4 -46 -12.5t-40 -41.5t-30.5 -52.5t-17.5 -46.5l-35 -123q-3 -12 -11.5 -16
t-17.5 -2t-15.5 8.5t-4.5 17.5z" />
    <glyph glyph-name="o" unicode="o" 
d="M85 99q-41 3 -61.5 32.5t-23.5 71t9 88.5t35.5 86t56 62.5t70.5 19.5q33 -4 51.5 -25t25.5 -51.5t3 -67.5t-17 -73q-4 -12 -1 -24t14 -12q17 0 33 8q18 10 29.5 28t22.5 37q4 5 6.5 10t5.5 10q3 6 9.5 6.5t12 -3t8 -9.5t-1.5 -13q-4 -9 -9 -17q-14 -27 -30 -49t-42 -35
q-36 -18 -67 -12q-13 2 -21 -2.5t-18 -13.5q-21 -25 -46 -39.5t-54 -12.5zM175 255q11 -1 13.5 3t4.5 9q7 25 10 50.5t1 46t-10.5 34t-23.5 15.5q-24 4 -46.5 -14.5t-39.5 -48t-27 -65.5t-10.5 -67t9.5 -52t34 -21q17 0 32.5 9.5t28.5 25.5q5 7 3 12l-4 10q-8 14 -8 26
q1 8 5.5 16.5t13.5 10.5q6 2 14 0z" />
    <glyph glyph-name="p" unicode="p" horiz-adv-x="323" 
d="M-31 -67q-5 -13 -13.5 -17.5t-17 -2.5t-13.5 10t-2 19q4 14 14.5 50.5t22 77.5t22 78t14.5 52q11 37 22.5 75t20.5 69.5t15.5 54t8.5 30.5t7.5 12.5t12.5 5.5t13.5 -1t10.5 -8q7 -7 13.5 -8.5t18.5 4.5q27 13 51.5 11t43 -15.5t27.5 -37.5t4 -55t-18 -51.5t-29.5 -35.5
t-33 -26.5t-27.5 -23.5q-10 -11 -12 -22.5t2.5 -21t15 -14t25.5 -1.5q48 10 81 45.5t56 75.5l10 18t11 18q3 6 9.5 6.5t12.5 -3t8.5 -9.5t-1.5 -13q-5 -9 -9.5 -17.5t-9.5 -16.5q-14 -26 -31.5 -50.5t-38.5 -44.5t-47 -34t-56 -17q-32 -2 -52.5 12t-28 35t-1.5 45t27 42
q12 10 27 20t28.5 22.5t24 28.5t13.5 39q3 19 -2 31t-16 17q-12 6 -27.5 3t-26.5 -10q-21 -12 -38 -35.5t-30 -51t-22.5 -55.5t-15.5 -49q-19 -65 -37 -129.5t-37 -130.5z" />
    <glyph glyph-name="q" unicode="q" horiz-adv-x="332" 
d="M12 292q8 26 21.5 54.5t33 51.5t45 37.5t57.5 13.5q22 -2 42 -12q13 -7 18 -8t16 7q6 4 14.5 4t14.5 -4.5t8.5 -13t-2.5 -20.5q-8 -24 -17 -52t-17.5 -57t-16 -58t-13.5 -56q-1 -6 -1.5 -11.5t2 -9.5t8.5 -4.5t18 3.5q21 6 37 21.5t29.5 35t24 41t21.5 39.5q4 6 10.5 6
t12 -3t8 -9t-1.5 -13q-12 -22 -24.5 -45t-27 -44t-33 -38.5t-43.5 -27.5q-14 -6 -20 -10t-7.5 -9.5t0.5 -13.5l5 -20q10 -38 14 -75.5t-8 -63.5q-7 -15 -19.5 -25t-32.5 -12t-39 10.5t-24 40.5q-3 18 -1 38.5t6.5 42t11.5 43t13 41.5q5 14 -2.5 16.5t-20.5 -5.5
q-8 -5 -17 -9.5t-20 -6.5q-25 -6 -45 4t-33 30q-18 29 -18 71t13 85zM180 48q-8 -25 -13 -52t0 -47q5 -19 15.5 -18t18.5 18q11 23 6.5 50t-9.5 51q-4 14 -8.5 15.5t-9.5 -17.5zM193 376q-6 17 -22 23q-10 5 -22.5 2.5t-28.5 -13.5q-17 -12 -32 -40t-26 -61
q-11 -35 -14.5 -70t7.5 -56q5 -12 15.5 -17.5t27.5 1.5q26 11 49 44t35 74q10 32 14 62.5t-3 50.5z" />
    <glyph glyph-name="r" unicode="r" horiz-adv-x="278" 
d="M82 489q14 14 30.5 8t18.5 -19q0 -8 -3 -19.5t-6 -22.5q-1 -4 -1.5 -10.5t9.5 -10.5q14 -5 34.5 -15.5t32.5 -19.5q13 -9 18 -18t4.5 -20t-5.5 -24.5t-12 -32.5q-7 -18 -15 -35.5t-14.5 -33.5t-11 -30t-5.5 -24q0 -16 14 -21q13 -4 31.5 14t37 43.5t33.5 50.5l21 35
q4 8 6 11q3 6 9.5 6.5t12.5 -2.5t8.5 -9.5t-1.5 -13.5q-2 -2 -4 -6q-11 -20 -28.5 -51t-40 -59t-48.5 -47t-53 -14q-22 4 -34.5 18t-13.5 33q0 15 5.5 33.5t13 38t16 39t15.5 36.5q3 7 5.5 14t3 13.5t-2.5 13t-13 12.5q-7 5 -14.5 8.5t-15.5 6.5q-5 2 -13.5 0t-13.5 -13
q-23 -55 -52 -106q-4 -6 -11 -7.5t-12.5 1.5t-8 10t2.5 17q13 22 26.5 50t24.5 56q5 12 4.5 13.5t-5.5 9.5q-5 10 -5 23t3.5 26.5t9.5 25t13 18.5z" />
    <glyph glyph-name="s" unicode="s" horiz-adv-x="245" 
d="M10 263l114 213q4 8 12.5 10t16.5 -1.5t12.5 -12t1.5 -20.5q-5 -19 -7.5 -35t-3.5 -32q-2 -26 3 -50.5t10.5 -49t8 -48t-3.5 -47.5q-2 -5 1.5 -10t11.5 1q20 19 35 41t29 46q5 8 9 15.5t8 13.5q3 6 9.5 6t12 -3t8 -9t-1.5 -13l-12 -24q-12 -22 -27.5 -44.5t-34 -42
t-40 -35.5t-45.5 -25q-18 -7 -39 -8.5t-40.5 2.5t-34.5 14t-22 26q-4 9 -1.5 17t8.5 11.5t13.5 3t14.5 -7.5q18 -23 41.5 -21t39.5 22q13 17 15 37t-1.5 42t-10 44t-10.5 44q-1 8 -9 8t-12 -7l-47 -85q-5 -9 -12 -10.5t-12.5 1.5t-8.5 9.5t1 13.5z" />
    <glyph glyph-name="t" unicode="t" horiz-adv-x="169" 
d="M75 100q-24 -4 -42 6.5t-26 32.5q-7 19 -5 45q1 33 9.5 67.5t17.5 66.5q7 23 15.5 51.5t17.5 60.5q4 12 7 24t7 24q2 9 -2 10.5t-12 2.5l-28 1q-14 1 -20 8t-6 15.5t6.5 15.5t18.5 7h44q13 0 15.5 3t4.5 9q12 41 21 70.5t11 38.5q3 12 13 16t19 1.5t14 -12t-1 -25.5
q-2 -5 -9 -29t-18 -60q-2 -5 -1 -9.5t9 -4.5h33q12 0 17.5 -8t4.5 -17t-8 -16t-22 -6l-36 1q-8 0 -13 -3t-7 -13l-15 -51q-9 -29 -17 -56.5t-15 -50.5q-9 -33 -18 -66.5t-11 -68.5q0 -17 3 -26q5 -15 23 -13q20 2 39 22t36 48q14 20 24.5 40.5t18.5 34.5q4 6 10.5 6t12 -3
t8 -9.5t-1.5 -13.5q-8 -14 -18 -33.5t-23 -39.5q-20 -33 -46.5 -61t-58.5 -33z" />
    <glyph glyph-name="u" unicode="u" horiz-adv-x="292" 
d="M72 102q-24 -4 -41.5 6t-25.5 33q-9 27 -4.5 66t16 80.5t24.5 80t21 63.5q3 12 13 16t19 1.5t14 -12t-1 -25.5q-9 -26 -19 -55t-19 -59t-15.5 -59.5t-7.5 -56.5q-2 -22 4 -31t20 -8q9 0 19 8t20 20t17.5 26t12.5 26l70 207q4 13 12.5 17t16.5 2t13 -8.5t3 -14.5
q-6 -19 -18.5 -54t-24.5 -72t-21.5 -70.5t-9.5 -49.5q0 -11 2.5 -19t7.5 -12q10 -6 26 3q20 13 36.5 37.5t27.5 42.5q11 17 19 32.5t15 26.5q3 6 9.5 6.5t12.5 -3t8.5 -9.5t-1.5 -13q-8 -13 -16 -28t-18 -32q-14 -23 -29.5 -45t-33.5 -38q-8 -7 -16.5 -12.5t-16.5 -9.5
q-29 -11 -48 2q-5 4 -7.5 7t-6.5 9q-8 13 -19 7t-22 -13q-9 -6 -18 -10t-20 -6z" />
    <glyph glyph-name="v" unicode="v" horiz-adv-x="303" 
d="M226 194q-15 2 -22 -3t-12 -12q-6 -8 -12.5 -15t-13.5 -15q-23 -23 -50 -38t-57 -12q-27 2 -40 16t-17.5 33.5t-2 42t5.5 41.5q5 27 12.5 55t15.5 54.5t15.5 49l12.5 37.5q5 13 14 17t16.5 1.5t12.5 -9.5t2 -16q-5 -12 -12 -34t-14.5 -48.5t-15 -55t-11.5 -53.5
q-2 -8 -4 -21.5t-1.5 -27.5t5 -25t15.5 -14q15 -3 32 6.5t32 23.5q16 15 32.5 35t30.5 42.5t25 46.5t17 47q4 19 4 40q0 13 -5 20.5t-12 9.5q-15 4 -24 -9.5t-13 -34t-2 -43t10 -35.5q4 -8 2 -15.5t-7.5 -12.5t-13 -5t-12.5 9q-12 25 -15.5 58.5t4 62.5t26 47.5t50.5 14.5
q18 -3 31.5 -16t17.5 -36q2 -13 1 -27.5t-4 -29.5q-7 -24 -15.5 -45t-19.5 -41q-2 -2 -3 -7t-1 -9.5t3 -7.5t11 -3q13 0 25 7.5t21.5 18.5t17 23.5t12.5 22.5q3 6 9.5 6.5t12 -2.5t8 -9.5t-1.5 -13.5q-9 -20 -20.5 -37.5t-27.5 -30t-35.5 -18.5t-44.5 -1z" />
    <glyph glyph-name="w" unicode="w" horiz-adv-x="429" 
d="M358 195q-16 2 -22.5 -3t-11.5 -13q-12 -15 -25.5 -30t-28 -26.5t-31.5 -17.5t-36 -4q-11 2 -17.5 3.5t-14.5 8.5q-15 14 -24.5 15.5t-18.5 -3.5t-21 -12.5t-33 -10.5q-24 -4 -41.5 6t-25.5 33q-10 26 -5 65.5t16 81t24.5 80t21.5 63.5q3 12 13 16t19 1.5t14 -12
t-1 -25.5q-9 -26 -19 -55t-19 -59t-15.5 -59.5t-7.5 -56.5q-3 -42 23 -40q13 1 26 11.5t24 24.5t18.5 30t9.5 28q5 27 12.5 55t15.5 54t15.5 49t12.5 38q5 13 14 16.5t16.5 1t12.5 -9.5t2 -16q-5 -12 -12 -34t-14.5 -48t-15 -55t-11.5 -54q-2 -8 -4 -21.5t-1.5 -27t5 -24.5
t15.5 -14q13 -3 29 7t32 28.5t31.5 42.5t28 47t21 43t11.5 32q2 10 3.5 20t0.5 20q0 13 -5 20t-12 9q-15 4 -24 -9t-13 -33t-2.5 -42t9.5 -35q4 -8 2.5 -16t-7 -13t-12.5 -5.5t-13 7.5q-14 22 -17.5 55t4 63t27 49.5t51.5 15.5q18 -2 31.5 -15t18.5 -36q4 -25 -4 -57
q-6 -25 -14.5 -46t-19.5 -40q-2 -2 -3 -7t-1 -9.5t3 -7.5t11 -3q17 0 33 13q14 12 25 28.5t17 30.5q3 6 9.5 6.5t12.5 -3t8.5 -9.5t-1.5 -13q-11 -23 -25.5 -43.5t-34.5 -32.5q-14 -8 -29.5 -12t-35.5 0z" />
    <glyph glyph-name="x" unicode="x" horiz-adv-x="358" 
d="M289 111q-29 -16 -58 -9t-43 39q-5 12 -7.5 26.5t-4.5 30.5q-2 17 -8 16t-15 -10q-26 -29 -50 -54.5t-47 -43.5q-9 -8 -17 -7.5t-12.5 6t-4.5 13t7 13.5q26 22 59.5 57.5t71.5 80.5q10 12 12.5 18.5t3.5 24.5t0.5 32.5t-2.5 27.5q-2 11 -7 21t-18 12q-8 1 -16.5 -5
t-17.5 -16q-14 -15 -27.5 -36t-24.5 -40.5t-18.5 -34t-8.5 -15.5q-5 -10 -12 -12t-13 0.5t-9 8.5t0 12q7 13 16.5 31.5t21 38.5t24.5 40.5t28 36.5q14 15 29 24.5t31 8.5q28 0 43 -14.5t21 -37.5q2 -10 2 -21t2 -16.5t7.5 -2t18.5 22.5q11 15 21 30t18 30q6 8 14 9.5
t14 -2.5t7.5 -12t-6.5 -19q-19 -32 -41 -64t-44 -61q-5 -5 -7.5 -11t-2.5 -17q-1 -26 -1 -48.5t3.5 -39t11.5 -25.5t23 -8q18 1 36 19.5t34.5 43t30.5 50t23 41.5q4 6 10.5 6t12 -3t8 -9t-1.5 -13q-10 -17 -22.5 -40.5t-27.5 -47.5t-32.5 -44.5t-37.5 -31.5z" />
    <glyph glyph-name="y" unicode="y" horiz-adv-x="308" 
d="M122 118q-8 -5 -19.5 -11t-28.5 -8q-24 -4 -42 6t-26 32q-9 27 -4.5 66t16 81t25 80.5t21.5 63.5q3 12 12.5 16t18.5 1.5t14.5 -12t-0.5 -25.5q-9 -26 -19.5 -55t-19.5 -59t-15.5 -59.5t-7.5 -56.5q-1 -41 24 -40q16 1 30.5 13.5t26.5 30t20.5 36.5t12.5 33l53 177
q3 12 12.5 16.5t19 2t14.5 -12t-1 -25.5q-26 -74 -44 -142t-40 -140q-7 -25 14 -14q21 12 40.5 34.5t37.5 49.5t33 54t27 47q3 6 9.5 6.5t12.5 -2.5t8.5 -9.5t-1.5 -13.5q-25 -49 -45 -82.5t-38 -57.5t-36.5 -40t-41.5 -30.5t-52.5 -29.5t-69.5 -36q-20 -11 -44.5 -29
t-42.5 -38q-11 -11 -14 -23t0 -22t10.5 -16t18.5 -6q16 0 30.5 12.5t26.5 30.5t21.5 39t15.5 39q4 10 13 15.5t17.5 6t14 -3.5t2.5 -12q-9 -26 -20.5 -54.5t-27.5 -52.5t-38 -40.5t-52 -18.5q-24 -2 -42 9.5t-26.5 30.5t-5.5 42.5t20 44.5q26 32 62.5 55.5t68.5 39.5
q13 6 19.5 13t11.5 19z" />
    <glyph glyph-name="z" unicode="z" 
d="M177 148q5 -7 8.5 -14l6.5 -13q20 16 42 37.5t42.5 45.5t37.5 48.5t28 45.5q3 6 10 6.5t12.5 -2.5t8.5 -9.5t-1 -13.5q-12 -26 -34.5 -57t-50.5 -62t-60 -58.5t-63 -47.5q-19 -14 -46 -30t-51 -35.5t-39.5 -41.5t-11.5 -46q3 -24 31 -24q16 0 35.5 15t36.5 37.5t29 48.5
t15 48q2 10 10.5 17.5t16.5 10t14 -1t4 -15.5q-6 -32 -20.5 -66.5t-35.5 -63t-47.5 -48t-55.5 -21.5q-33 -2 -51 14.5t-23 41.5q-6 36 11 64.5t45.5 51.5t61 42t58.5 37q-8 34 -42 45q-16 4 -53 -17q-8 -5 -15.5 -2.5t-12 9t-5 14.5t6.5 13q17 11 28.5 17.5t28.5 17.5
q23 15 52.5 39.5t48.5 53.5q9 14 17.5 34t10 38.5t-7 33t-31.5 18.5q-24 4 -44.5 -10.5t-38 -37t-31.5 -48.5t-25 -45q-4 -8 -10.5 -9.5t-12.5 1t-9.5 8t-1.5 10.5q13 28 31 61t40 60.5t49 44t59 12.5q37 -6 55.5 -26.5t21.5 -48.5t-6 -59t-26 -57q-10 -14 -21.5 -29.5
t-23.5 -27.5q-19 -19 -18 -30t12 -24z" />
    <glyph glyph-name="braceleft" unicode="{" horiz-adv-x="242" 
d="M88 434q18 -9 32 -22t20 -33q3 -14 2.5 -27t-2.5 -26q-3 -15 -7.5 -29.5t-9.5 -28.5q-6 -17 -13 -33t-14 -33q-5 -14 -9.5 -27t-6.5 -27q-4 -20 3 -38t29 -23q3 -1 8.5 -1h12.5t12.5 0.5t8.5 1.5q10 2 17 -4.5t8 -15.5t-4.5 -17.5t-19.5 -11.5q-11 -2 -29 -1.5t-28 3.5
q-37 10 -54 39.5t-13 65.5q2 18 7 36t12 35l12 28t11 28q5 13 9.5 26t8.5 26q2 10 3 20t-2 20q-6 17 -22.5 25.5t-33.5 13.5q-13 3 -17 17t7 24q12 9 23 19.5t20 23.5q24 35 35 75q8 24 12 48.5t7 49.5q3 29 16.5 57t39.5 42q19 10 40.5 12t41.5 0q10 -1 15 -9t5 -17t-5 -16
t-16 -7q-14 2 -32 1t-30 -9q-11 -8 -18 -23t-9 -29q-4 -25 -7.5 -49.5t-9.5 -48.5q-6 -26 -15.5 -51t-25.5 -48q-5 -8 -11.5 -16t-13.5 -16z" />
    <glyph glyph-name="braceright" unicode="}" horiz-adv-x="340" 
d="M246 392q-18 9 -32 22.5t-20 33.5q-8 26 0 55.5t17 54.5q5 15 10 26.5t9.5 23t8.5 23.5t7 27q4 20 -3 38t-29 24q-3 0 -8.5 0.5t-12.5 0t-12.5 -1t-8.5 -1.5q-11 -2 -17.5 5t-7.5 16t4.5 17.5t19.5 11.5q11 2 29 1t28 -3q37 -10 54 -39.5t13 -66.5q-3 -32 -13 -54.5
t-21 -52.5q-3 -9 -7.5 -21t-8 -25t-5 -25t1.5 -21q6 -17 22.5 -25.5t32.5 -13.5q14 -3 18 -17t-7 -24q-25 -18 -43 -43q-14 -18 -24 -42.5t-17.5 -50.5t-12.5 -52t-8 -48q-3 -29 -16.5 -56.5t-39.5 -41.5q-19 -11 -40.5 -12.5t-41.5 0.5q-10 1 -15.5 8.5t-5.5 16.5t5.5 16
t16.5 7q14 -2 32 -0.5t30 9.5q11 8 18 23t9 28q4 26 9 54.5t12.5 57t18 55.5t25.5 50l12 16t14 16z" />
    <glyph glyph-name="asciitilde" unicode="~" horiz-adv-x="467" 
d="M202 288q-11 -2 -19 -9.5t-15 -18.5q-5 -8 -13.5 -9.5t-15.5 1.5t-11 9.5t-1 15.5q9 22 26.5 34.5t38.5 17.5q27 5 47.5 -2.5t37.5 -17.5t31.5 -17t30.5 0q13 6 28 25q6 9 14 9.5t15 -3t10 -11t-1 -14.5q-18 -34 -52 -45q-28 -10 -48.5 -4t-37 16t-32 18.5t-33.5 4.5z
" />
    <glyph glyph-name="cent" unicode="&#xa2;" horiz-adv-x="339" 
d="M254 250q9 5 16 1t9 -12.5t-3.5 -19.5t-21.5 -20q-44 -32 -90 -34q-10 0 -14.5 -5.5t-6.5 -12.5q-2 -4 -2 -6t-1 -6q-2 -11 -9 -15t-14.5 -2.5t-12 8t-2.5 16.5q2 5 2.5 7.5l1.5 7.5q2 10 -1 16t-8 9q-37 23 -52 73t8 120q17 49 47.5 90t69.5 56q23 11 26 26q2 5 2.5 9.5
t2.5 11.5q3 13 10.5 17t14.5 2t11 -9.5t1 -18.5l-1.5 -7.5t-1.5 -6.5q-2 -8 2.5 -15t11.5 -12q27 -16 33.5 -48.5t-10.5 -66.5q-5 -11 -13.5 -14.5t-16 -1.5t-11.5 9t2 18q5 11 8 23.5t1 23.5q-2 7 -6 9.5t-8.5 0.5t-8.5 -7t-5 -12q-3 -14 -6 -26.5t-10 -40.5
q-8 -35 -16 -69.5t-17 -71.5q-1 -5 -2 -12t0.5 -12.5t6.5 -8.5t15 0q35 8 69 39zM100 242q6 -9 10.5 -11.5t8 0t5.5 7t3 8.5q8 36 16.5 72.5t16.5 71.5q5 20 8 34t6 25q4 16 -2 16.5t-15 -7.5q-18 -17 -33 -41.5t-24 -50.5q-15 -42 -13.5 -73t13.5 -51z" />
    <glyph glyph-name="sterling" unicode="&#xa3;" horiz-adv-x="626" 
d="M218 182q-7 -12 -15 -22.5t-17 -21.5q-12 -11 -26 -20.5t-29.5 -13.5t-31 -2t-30.5 13q-14 10 -19.5 26t-2.5 32q2 18 12 31.5t23.5 23.5t30 16.5t31.5 9.5q7 1 13 2t13 2q13 2 25 6t19 26q8 25 14.5 52t13.5 53q4 18 -1.5 20t-19.5 3l-38 1q-11 0 -17 6.5t-6.5 14.5
t4 15t15.5 8h45q14 2 25.5 13t13.5 23q5 21 8.5 39t11.5 48q14 50 33 94.5t45 66.5q14 12 31 17q20 7 39.5 6t36 -9.5t28.5 -22.5t18 -33q12 -41 0.5 -78t-30.5 -72q-4 -8 -12.5 -11.5t-16.5 -0.5q-11 4 -15 14.5t3 19.5q13 25 23.5 52.5t4.5 56.5q-6 27 -30.5 35.5
t-48.5 -9.5q-18 -14 -33 -48t-26 -74q-9 -29 -14 -52t-9 -42q-1 -5 -2 -10.5t0 -11t6 -9.5t16 -4l46 -2q11 -2 15.5 -10t3 -15.5t-8.5 -13t-17 -3.5l-55 2q-15 1 -19.5 -8t-6.5 -19q-5 -24 -10.5 -48t-12.5 -47q-5 -23 -4 -36.5t24 -25.5q23 -13 44 -31t41.5 -32.5t42 -22
t44.5 -0.5q16 5 28.5 15.5t21.5 23.5q6 9 16 10t17.5 -4t9.5 -15.5t-9 -24.5q-15 -18 -33 -31t-41 -19q-38 -11 -65 -2t-50 26t-45 37t-49 33q-14 6 -23 1.5t-17 -17.5zM148 207q-14 -4 -26.5 -10t-21.5 -17q-8 -9 -6.5 -20.5t16.5 -11.5q10 0 19 5.5t16 11.5q11 10 21 23
q15 21 7.5 22t-25.5 -3z" />
    <glyph glyph-name="currency" unicode="&#xa4;" horiz-adv-x="427" 
d="M239 236q-30 -23 -60.5 -26.5t-54.5 8.5q-9 4 -17 -2l-9 -7.5t-6 -4.5t-7.5 -5.5l-13.5 -10.5q-9 -8 -18.5 -6.5t-15 8.5t-5.5 16.5t10 17.5q8 7 17 13t17 13q5 4 4.5 7t-2.5 9q-13 28 -8.5 59t20.5 57q4 5 3.5 8t-5.5 8q-7 8 -9.5 10.5t-11.5 12.5q-9 8 -8 17.5
t7.5 15.5t16 6.5t18.5 -8.5q6 -7 9.5 -10.5l9.5 -9.5q5 -5 8.5 -4t8.5 5q2 2 10 6q34 20 70 16.5t59 -27.5q4 -3 10 -11q4 -5 6 -6.5t8 3.5l36 26q9 8 19 6t16 -8.5t5.5 -16.5t-11.5 -17q-14 -11 -28 -20.5t-28 -19.5q-6 -5 -6 -15q-3 -33 -18 -61q-2 -3 -3.5 -7.5t3.5 -9.5
l25 -26q7 -7 7.5 -16t-4.5 -16t-14 -9t-19 6q-7 7 -12.5 13t-12.5 13q-5 4 -8 3t-8 -3zM134 368q-22 -33 -17.5 -61.5t23.5 -42.5q18 -13 43.5 -8t51.5 37q8 10 14 23t8 26.5t-1.5 26.5t-14.5 24q-10 9 -23.5 13t-28.5 1t-29.5 -12.5t-25.5 -26.5z" />
    <glyph glyph-name="yen" unicode="&#xa5;" horiz-adv-x="395" 
d="M23 737q-3 10 2 17t13.5 9.5t16.5 -0.5t11 -13l82 -218q7 -18 13 -30.5t14 -15.5t19 7t28 38l138 218q6 10 15 11.5t16.5 -3t10.5 -13t-2 -17.5l-192 -296q-6 -9 -9 -14.5t-5 -10.5q-5 -12 -4.5 -18.5t4 -8.5t8.5 -2h9h52q13 0 19 -7t6 -15t-6 -14.5t-17 -5.5
q-23 0 -39 -0.5t-27 -0.5q-10 0 -16 -4t-9 -19q-4 -18 4 -19.5t19 -2.5h48q13 0 19 -7t6 -15t-6 -14.5t-17 -5.5h-57q-14 0 -23 -5t-12 -24l-20 -100q-2 -12 -10.5 -16.5t-17 -3.5t-14.5 7.5t-4 16.5l19 97q4 19 -6 24t-20 5h-46q-12 0 -17.5 6.5t-6 14.5t4.5 15t16 7
q26 0 42 -0.5t28 -0.5q5 1 12 1.5t10 16.5q2 11 2.5 19.5t-16.5 8.5q-11 -1 -25 -0.5t-32 0.5q-12 0 -17.5 6.5t-6 14.5t4.5 14.5t16 6.5h64h9.5t10 2.5t7 8.5t2.5 18q0 7 -7 27z" />
    <glyph glyph-name="brokenbar" unicode="&#xa6;" horiz-adv-x="277" 
d="M250 732q-9 -33 -14 -53t-9 -34t-7 -25.5t-6.5 -25.5t-9 -34.5t-14.5 -53.5q-3 -11 -10.5 -14.5t-15.5 -2t-13.5 8t-2.5 16.5q9 33 14.5 53.5t9.5 34.5t7 25.5t6.5 25.5t9 34.5t14.5 53.5q3 13 11.5 17t16 2t12.5 -9.5t1 -18.5zM146 343q-9 -33 -14 -53.5t-8.5 -34.5
t-6.5 -25.5t-7 -25.5t-9.5 -34.5t-14.5 -52.5q-3 -11 -10.5 -15t-15.5 -2.5t-13.5 8.5t-2.5 17q9 33 14.5 53.5t9.5 34.5t7 25.5t7 25.5t9.5 34.5t13.5 53.5q3 13 11.5 17t16 1.5t12.5 -10t1 -17.5z" />
    <glyph glyph-name="section" unicode="&#xa7;" horiz-adv-x="355" 
d="M374 560q-2 -17 -9.5 -32.5t-24.5 -26.5q-8 -6 -16.5 -3t-13.5 9.5t-4.5 15.5t9.5 15q16 10 16 28q2 30 -18 49.5t-48 20.5q-24 1 -44.5 -14t-29.5 -38q-11 -28 -2 -49t27 -38.5t39.5 -33.5t33.5 -35q10 -14 14 -29.5t3 -31.5q-1 -23 -12 -47.5t-29 -42.5
q-10 -12 -15 -16t-6 -8.5t2 -11.5t9 -25q9 -26 6 -52q-3 -31 -16 -58t-34 -45.5t-48.5 -28t-60.5 -4.5q-44 6 -73 39t-28 78q0 24 9.5 47t26.5 40q10 9 20 8t16.5 -7t7.5 -15.5t-6 -17.5q-24 -27 -22 -59q1 -29 20.5 -46.5t46.5 -19.5q20 -2 37 6.5t29 22.5t18.5 32.5
t6.5 37.5q-1 17 -9 30.5t-19 24.5q-14 13 -29.5 26.5t-30.5 28t-27.5 30t-19.5 33.5t-7 38.5t6 39t18 34.5t29 25t19.5 14.5t-2.5 24.5q-5 16 -4.5 32t6.5 36q13 41 47 65.5t77 24.5q23 0 44 -8t36.5 -23.5t23.5 -38.5t5 -51zM223 305q31 21 35 48t-8.5 49.5t-36 36
t-47.5 8.5q-28 -7 -39 -24t-9 -37.5t13.5 -40.5t28.5 -32q17 -11 30 -16.5t33 8.5z" />
    <glyph glyph-name="dieresis" unicode="&#xa8;" horiz-adv-x="289" 
d="M129 505q12 -1 19.5 -10.5t6.5 -21.5q-2 -12 -11.5 -20t-21.5 -6t-19.5 11t-6.5 21q2 13 11 20.5t22 5.5zM203 505q13 -1 20.5 -10.5t6.5 -21.5q-2 -12 -11.5 -20t-21.5 -6t-20 11t-6 21q2 13 11 20.5t21 5.5z" />
    <glyph glyph-name="copyright" unicode="&#xa9;" horiz-adv-x="642" 
d="M322 321q0 -11 4 -19.5t18 -7.5q8 1 15 6t8 16v16q0 9 5 12.5t11 3t11 -4.5t5 -11v-16q0 -19 -8 -31q-7 -11 -20 -17t-27 -7t-26 4t-20 15q-5 8 -7 19t-2 21v57v53q0 10 2 21t8 19q7 10 18.5 15t24.5 4q15 0 28 -6t21 -18q5 -7 6.5 -14.5t1.5 -15.5v-17q0 -7 -5 -11
t-11 -4.5t-11 3.5t-5 12v16q-1 11 -8 16t-15 6t-15 -4t-7 -15q-1 -15 -1 -30v-30v-28t1 -28zM571 368q-2 -45 -19.5 -84.5t-47.5 -68.5t-69.5 -46t-84.5 -18q-44 0 -83 15t-69.5 42t-50 64t-23.5 81q-5 49 10.5 93.5t45.5 78t72 54t92 20.5q48 1 90 -17t73 -49.5t48 -74
t16 -90.5zM160 353q4 -36 20.5 -66t41.5 -52.5t57 -34.5t68 -12q37 0 70 13.5t58.5 37.5t41 56t17.5 69q3 41 -11 77.5t-40 63.5t-62 42.5t-76 15.5q-42 0 -78 -17.5t-61 -46.5t-38 -66.5t-8 -79.5z" />
    <glyph glyph-name="guillemotleft" unicode="&#xab;" horiz-adv-x="434" 
d="M149 286l69 -57q9 -7 7 -18q-1 -6 -4.5 -11t-8.5 -7q-12 -5 -24 5l-106 87q-9 8 -9.5 20t11.5 24l109 101q11 6 22 0q9 -5 11 -16q0 -12 -9 -18l-70 -66q-14 -13 -13 -22t15 -22zM287 286l69 -57q9 -7 7 -18q-1 -6 -4.5 -11t-8.5 -7q-12 -5 -24 5l-106 87q-9 8 -9.5 20
t11.5 24l109 101q11 6 22 0q9 -5 11 -16q0 -12 -9 -18l-70 -66q-14 -13 -13 -22t15 -22z" />
    <glyph glyph-name="registered" unicode="&#xae;" horiz-adv-x="611" 
d="M539 371q-2 -45 -19.5 -84.5t-47.5 -68.5t-69.5 -46t-84.5 -18q-44 0 -83 15t-69.5 42t-50 64t-23.5 81q-5 49 10.5 93.5t45.5 78t72 54t92 20.5q48 1 90 -17t73 -49.5t48 -74t16 -90.5zM128 356q4 -36 20.5 -66t41.5 -52.5t57 -34.5t68 -12q37 0 70 13.5t58.5 37.5
t41 56t17.5 69q3 41 -11 77.5t-40 63.5t-62 42.5t-76 15.5q-42 0 -78 -17.5t-61 -46.5t-38 -66.5t-8 -79.5zM267 283q0 -8 5 -12.5t10.5 -4.5t10.5 4t5 12v49q0 13 10.5 15t15.5 -9l29 -61q3 -8 9 -9.5t11.5 1t8 8.5t-0.5 13l-20 45q-6 11 -3.5 18.5t6.5 13.5q9 14 13 26
t4 30q-1 26 -13 47t-34 21h-47q-7 1 -13.5 -5t-6.5 -15v-92v-95zM298 399v45q2 17 16 15h9q14 0 20.5 -11t7.5 -25t-5.5 -26.5t-18.5 -12.5h-13q-7 -1 -11.5 4t-4.5 11z" />
    <glyph glyph-name="degree" unicode="&#xb0;" horiz-adv-x="311" 
d="M138 575q-38 3 -58 29t-23 59q-3 38 15.5 73t53.5 53q20 11 42 12t40 -10t28.5 -27t14.5 -34.5t2 -38t-8 -37.5q-6 -17 -17 -32t-24.5 -26t-30.5 -17t-35 -4zM142 616q17 -2 35 9.5t31 40.5q9 22 6.5 47.5t-26.5 38.5q-18 10 -43 1q-25 -10 -37 -37t-8 -52q3 -17 13 -31
t29 -17z" />
    <glyph glyph-name="plusminus" unicode="&#xb1;" horiz-adv-x="433" 
d="M253 345h96q11 0 17.5 -6.5t6.5 -14.5t-5.5 -14.5t-18.5 -7.5q-26 -1 -52 -1h-52q-11 0 -20.5 -5.5t-14.5 -21.5q-10 -32 -20 -62.5t-21 -62.5q-3 -13 -14 -16q-9 -5 -20 1q-5 5 -8 11q-2 9 1 17l39 116q2 8 -2 15.5t-14 7.5l-86 1q-12 0 -18 6.5t-6 14.5t5.5 15t16.5 7
h96q14 0 24.5 8.5t14.5 19.5q9 28 17.5 52.5t17.5 52.5q4 11 12 15t15.5 2t12 -9.5t0.5 -18.5l-33 -102q-2 -7 1.5 -13.5t11.5 -6.5zM266 84q11 0 17 -6.5t6.5 -14.5t-5.5 -15t-18 -8h-143h-99q-12 0 -18 7t-6 15t5.5 15t16.5 7h103h141z" />
    <glyph glyph-name="paragraph" unicode="&#xb6;" horiz-adv-x="450" 
d="M381 721l-140 -680q-1 -13 -9 -18t-16.5 -3.5t-14.5 8.5t-3 19l139 674h-61q-16 -77 -34 -164t-36 -176.5t-36 -176.5t-33 -164q-2 -12 -9.5 -17t-16 -3.5t-14 8.5t-2.5 19q9 46 20.5 102t23.5 114.5t23.5 114.5t21.5 103q-45 -1 -72 19.5t-38 52t-6.5 69t22 69.5t47 53
t68.5 21q19 0 31 -0.5t23 -0.5h23.5h30.5h104q9 0 13 -6.5t4 -14.5t-4.5 -15t-11.5 -7h-12.5h-6h-6h-12.5z" />
    <glyph glyph-name="periodcentered" unicode="&#xb7;" horiz-adv-x="168" 
d="M81 328q12 -2 20 -11t6 -22q-2 -12 -11 -19.5t-21 -6.5q-12 2 -20 11.5t-6 21.5t11 19.5t21 6.5z" />
    <glyph glyph-name="cedilla" unicode="&#xb8;" horiz-adv-x="213" 
d="M118 160q3 7 10 10q5 1 11 0q6 -2 9.5 -7.5t1.5 -12.5q-3 -8 -6.5 -15.5t-5.5 -15.5q-2 -5 -2 -9v-9q1 -7 2.5 -13t1.5 -13q1 -14 -7.5 -26.5t-20.5 -19.5q-17 -9 -38 -6q-19 5 -31 20q-7 8 -2 18q3 8 14 10q7 0 13 -7q6 -8 13 -9q11 -2 18 4q10 9 9 21q0 5 -1.5 10
t-2.5 10q-1 14 3 29q4 14 11 31z" />
    <glyph glyph-name="guillemotright" unicode="&#xbb;" horiz-adv-x="417" 
d="M148 285q14 13 14.5 22t-13.5 22l-69 66q-9 6 -9 18q2 11 11 16q11 6 22 0l109 -101q12 -12 11.5 -24t-9.5 -20l-106 -87q-12 -10 -24 -5q-5 2 -8.5 7t-4.5 11q-3 9 6 18zM271 285q14 13 14.5 22t-13.5 22l-69 66q-9 6 -9 18q2 11 11 16q11 6 22 0l109 -101
q12 -12 11.5 -24t-9.5 -20l-106 -87q-12 -10 -24 -5q-5 2 -8.5 7t-4.5 11q-3 9 6 18z" />
    <glyph glyph-name="onequarter" unicode="&#xbc;" horiz-adv-x="642" 
d="M342 733q-17 -68 -35 -134.5t-37 -134.5q-8 -30 -20.5 -76.5t-26 -96t-26.5 -96t-22 -77.5q-2 -11 -10 -14.5t-15.5 -2t-13 8t-2.5 16.5q8 30 20.5 76.5t26 95.5t26.5 95.5t21 76.5q19 68 37 135.5t36 136.5q3 12 11.5 16.5t16 2t12.5 -10t1 -17.5zM71 643
q-6 -4 -11.5 -2t-8.5 7t-2 11.5t7 10.5q22 15 36 26t34 30q11 9 24.5 2.5t8.5 -20.5l-96 -393q-2 -7 -7.5 -9.5t-12 -1.5t-11 5.5t-3.5 12.5l79 326q2 7 -3.5 10.5t-13.5 -1.5q-8 -6 -8.5 -6.5t-11.5 -7.5zM490 354q6 20 12 41t13 41t13.5 40t14.5 40q3 8 9 10.5t11.5 1
t8.5 -6t1 -11.5q-14 -44 -28 -87t-26 -87q-13 -50 -22 -100t-11 -101q-1 -7 -6.5 -10.5t-11.5 -3t-10.5 4t-4.5 11.5q2 34 5 67.5t11 66.5q4 22 -18 22l-134 1q-9 0 -13.5 5t-5 12t1.5 14.5t7 12.5q4 5 7.5 8.5t6.5 8.5q15 18 30 37.5t28 38.5q8 12 19.5 31t13.5 33
q2 11 -2.5 21.5t-9.5 20.5q-2 5 0.5 10t7.5 7.5t10.5 2t9.5 -5.5q10 -13 14.5 -28t1.5 -32t-16 -39.5t-23 -36.5q-11 -17 -23.5 -34t-25.5 -34q-4 -5 -5 -13.5t10 -8.5l93 1q29 0 36 28z" />
    <glyph glyph-name="onehalf" unicode="&#xbd;" horiz-adv-x="636" 
d="M334 732q-17 -68 -35 -134.5t-36 -134.5q-8 -30 -21 -76.5t-26.5 -96t-26.5 -96t-21 -77.5q-3 -11 -10.5 -14.5t-15.5 -2t-13.5 8t-2.5 16.5q8 30 21 76.5t26.5 95.5t26 95.5t20.5 76.5q19 68 37 135.5t36 136.5q3 12 11.5 16.5t16 2t12.5 -10t1 -17.5zM63 642
q-6 -4 -11.5 -2t-8.5 7t-2 11.5t8 10.5q11 7 19.5 13.5t16 12.5t15.5 13.5t18 16.5q5 4 12 4.5t12.5 -2.5t8.5 -8t1 -12l-96 -393q-2 -7 -8 -9.5t-12 -1.5t-10.5 5.5t-3.5 12.5l78 326q2 7 -3.5 10.5t-13.5 -1.5q-4 -3 -5.5 -4.5t-3 -2.5t-3.5 -2.5t-8 -4.5zM557 192
q-9 -16 -21 -29t-30 -18q-16 -5 -31.5 -2t-29.5 9q-10 5 -19.5 9.5t-20.5 6.5q-17 3 -33 1.5t-32 -6.5q-10 -2 -19 -6.5t-17 -9.5q-11 -8 -20 -2t-7 17q4 27 20 49.5t35 40.5q20 20 40.5 39t41.5 38q15 13 31.5 28t31.5 32.5t27.5 36t18.5 37.5q5 14 4 28t-11 25
q-14 17 -35.5 20.5t-41.5 -2.5q-21 -7 -34 -23.5t-21 -36.5q-3 -9 -9.5 -11t-12.5 0.5t-9 8t0 13.5q11 26 29.5 48t46.5 32q29 10 61.5 2.5t52.5 -33.5q24 -32 13 -73q-6 -23 -19 -44.5t-30 -41.5t-36 -38t-36 -33q-20 -17 -38.5 -35t-37.5 -36l-10.5 -10.5t-6.5 -13.5
q-2 -11 10 -10q31 7 62 0q11 -2 21.5 -6t21.5 -8q8 -4 19 -7.5t19 -1.5q11 4 19 13t15 19q5 7 11.5 8.5t11.5 -1.5t7 -9.5t-2 -13.5z" />
    <glyph glyph-name="threequarters" unicode="&#xbe;" horiz-adv-x="771" 
d="M462 733q-18 -68 -36 -134.5t-36 -134.5q-8 -30 -21 -76.5t-26.5 -96t-26.5 -96t-21 -77.5q-2 -11 -10 -14.5t-15.5 -2t-13 8t-2.5 16.5q8 30 20.5 76.5t26 95.5t26.5 95.5t21 76.5q18 68 36.5 135.5t36.5 136.5q3 12 11 16.5t16 2t13 -10t1 -17.5zM610 354q6 20 12 41
t13 41t13.5 40t14.5 40q3 8 9 10.5t11.5 1t8.5 -6t1 -11.5q-14 -44 -28 -87t-26 -87q-14 -50 -23 -100t-10 -101q-1 -7 -6.5 -10.5t-11.5 -3t-11 4t-5 11.5q2 34 5.5 67.5t11.5 66.5q4 22 -19 22l-133 1q-9 0 -13.5 5t-5 12t1.5 14.5t7 12.5q4 5 7 8.5t7 8.5
q15 18 29.5 37.5t28.5 38.5q8 12 19.5 31t13.5 33q1 11 -3 21.5t-9 20.5q-3 5 0 10t8 7.5t10.5 2t9.5 -5.5q9 -13 14 -28t2 -32q-2 -8 -6.5 -18.5t-10 -21t-12 -20t-10.5 -16.5l-24 -34t-25 -34q-5 -5 -6 -13.5t10 -8.5l94 1q27 0 36 28zM202 520q-11 7 -21.5 5.5
t-21.5 -4.5q-8 -2 -13 2t-6.5 9.5t1 11.5t8.5 9q20 7 38.5 17t34.5 24q13 11 23 30q6 11 9 25t-1 27q-4 15 -17 25q-18 13 -42 11t-43 -11q-16 -7 -30 -19t-22 -28q-2 -6 -8.5 -8.5t-12.5 -0.5q-8 3 -9.5 10t1.5 14q11 20 28 35.5t37 24.5q28 14 61.5 16t59.5 -19
q23 -19 29 -46q5 -21 -0.5 -42t-16.5 -39q-5 -8 -10.5 -14.5t-12.5 -13.5q-4 -5 -8 -10.5t-5 -12.5q-2 -8 2 -13.5t8 -12.5q13 -26 14 -56.5t-7 -58.5q-12 -40 -39 -68q-15 -16 -34.5 -26.5t-43.5 -13.5q-24 -2 -46.5 7t-38.5 27q-15 17 -21.5 38.5t-2.5 44.5q1 6 6 9
t11 2.5t10.5 -4t4.5 -9.5q-2 -16 2.5 -31.5t15.5 -27.5q10 -12 24 -18.5t30 -4.5q36 3 61 31q22 22 30 55q3 11 5 25.5t1 29t-6.5 27t-15.5 20.5z" />
    <glyph glyph-name="questiondown" unicode="&#xbf;" horiz-adv-x="403" 
d="M281 701q-13 0 -21 9t-8 21q1 13 9.5 21t21.5 8q12 -1 20.5 -9.5t7.5 -21.5q0 -12 -9 -20.5t-21 -7.5zM44 230q5 -44 36.5 -66t70.5 -24q24 -1 46.5 6.5t42 21.5t34 33.5t22.5 42.5q3 9 4 20.5t-0.5 22.5t-6.5 20t-15 14q-9 5 -21 3q-8 -2 -13 3.5t-5 13.5t6 15t21 8
q18 1 35 -7q16 -9 26 -24.5t13.5 -33t2.5 -36.5t-7 -35q-11 -30 -29.5 -54.5t-43.5 -41.5t-54.5 -26t-60.5 -8q-26 1 -51 10t-45 24.5t-33 39t-16 53.5q-3 34 7 65t29 58t43.5 51t49.5 45q25 23 43 43.5t31.5 42.5t23 47.5t18.5 59.5q2 9 10 13t15.5 2.5t12 -9t1.5 -20.5
q-11 -38 -23 -67.5t-27.5 -54.5t-36 -47.5t-48.5 -47.5q-20 -18 -40 -37t-35.5 -40.5t-25 -46t-7.5 -52.5z" />
    <glyph glyph-name="Agrave" unicode="&#xc0;" horiz-adv-x="832" 
d="M602 23q4 18 8.5 35.5t6.5 35t0.5 35t-9.5 35.5q-14 29 -33 61q-16 28 -37.5 63t-48 65.5t-57.5 51t-66 21.5q-19 0 -36.5 -6.5t-31.5 -18.5t-22.5 -29t-9.5 -37q-2 -13 -10.5 -18.5t-18.5 -4t-17.5 9.5t-5.5 21q3 31 16 56.5t33.5 42.5t47.5 26t57 8q62 -1 111 -40
q39 -25 66 21q17 29 34 58.5t34 58.5q18 33 36 65.5t37 64.5q9 16 21.5 29.5t29.5 21.5q11 6 23 7.5t23 -3.5q16 -7 23 -26q5 -13 4.5 -26.5t-2.5 -26.5l-48 -215l-104 -455q-8 -17 -28 -15q-13 2 -21 11q-6 8 -5 17zM463 326q8 7 17 5.5t15 -8.5t7.5 -17.5t-5.5 -20.5
q-30 -45 -57.5 -80.5t-64.5 -75.5q-16 -18 -36.5 -38.5t-43.5 -39.5t-47 -33.5t-47 -20.5q-42 -11 -78.5 -5t-64.5 24.5t-43.5 49.5t-15.5 71q0 12 7.5 19t17 8t18 -4.5t10.5 -20.5q-2 -24 8 -44t27 -32.5t39.5 -18t45.5 -1.5q23 3 49 19t50.5 37.5t46.5 44.5t37 41
q31 35 56.5 68.5t51.5 72.5zM852 875q7 -10 5 -19t-9 -14t-16 -4t-17 11l-117 152q-8 10 -6.5 20.5t8.5 16.5t17.5 4.5t20.5 -15.5zM624 245v-1q8 -12 18.5 -11t16.5 27l52 213l46 193q6 23 5.5 31t-5.5 6.5t-13 -10.5t-16 -21q-20 -30 -38.5 -62.5t-36.5 -64.5l-34 -60
t-34 -59q-6 -10 -10 -24t-6 -27.5t-1.5 -25.5t4.5 -19l12 -18t11 -18z" />
    <glyph glyph-name="Aacute" unicode="&#xc1;" horiz-adv-x="832" 
d="M606 32q-2 -10 4 -17q4 -5 10 -7.5t12 -3.5q20 -2 28 15l103 455l49 215q2 13 2 26.5t-5 26.5q-7 19 -22 26q-11 5 -23.5 3t-23.5 -7q-16 -8 -28.5 -22t-22.5 -29q-18 -32 -36 -65t-37 -65q-17 -29 -33.5 -58.5t-33.5 -58.5q-15 -24 -31 -29t-36 8q-49 39 -111 40
q-30 1 -57 -8t-47.5 -26t-33 -42.5t-15.5 -56.5q-2 -14 5.5 -21.5t17.5 -9t18.5 4t9.5 18.5q1 20 10 37t23 29t31.5 18.5t35.5 6.5q35 -1 66 -21.5t57.5 -51t48.5 -65.5t38 -63l16 -30t16 -31q8 -18 10 -35.5t0 -35t-6.5 -35t-8.5 -35.5zM467 335q-26 -39 -51.5 -72.5
t-56.5 -68.5q-16 -18 -38 -41t-46.5 -44.5t-50.5 -37.5t-49 -19q-23 -4 -45.5 1.5t-39.5 18t-27 32.5t-8 44q-2 15 -10 20.5t-18 4.5t-17.5 -8.5t-7.5 -18.5q0 -40 16 -71t43.5 -50t64.5 -24.5t78 4.5q23 6 47 20.5t47 33.5t44 40t37 38q36 40 63.5 76t57.5 81
q7 10 5.5 20.5t-7.5 17t-14.5 8.5t-16.5 -5zM793 882l113 152q10 14 21 15.5t18 -4.5t8.5 -16.5t-7.5 -20.5l-116 -152q-8 -10 -17 -11t-16 4t-9 14t5 19zM599 303q-5 9 -11 18l-12 18q-4 7 -5 19t1 25.5t6 27.5t10 24l69 119q18 32 36.5 64.5t38.5 62.5q8 12 15.5 21
t12.5 10.5t6 -6.5t-5 -31l-47 -193l-51 -213q-6 -26 -17 -27t-19 11z" />
    <glyph glyph-name="Acircumflex" unicode="&#xc2;" horiz-adv-x="827" 
d="M605 24q-2 -10 4 -17q4 -5 10 -7.5t12 -3.5q20 -2 28 15l103 455l49 215q2 13 2 26.5t-5 26.5q-7 19 -22 26q-11 5 -23.5 3.5t-23.5 -7.5q-16 -8 -28.5 -21.5t-22.5 -29.5q-18 -32 -36 -65t-37 -65q-17 -29 -33.5 -58.5t-33.5 -58.5q-15 -24 -31 -29t-36 8
q-49 39 -111 40q-30 1 -57 -8t-47.5 -26t-33 -42.5t-15.5 -56.5q-2 -13 5.5 -21t17.5 -9.5t18.5 4t9.5 18.5q1 20 10 37t23 29t31.5 18.5t35.5 6.5q35 -1 66 -21.5t57.5 -51t48.5 -65.5t38 -63l16 -30t16 -31q8 -18 10 -35.5t0 -35t-6.5 -35t-8.5 -35.5zM466 327
q-26 -39 -51.5 -72.5t-56.5 -68.5q-16 -18 -38 -41t-46.5 -44.5t-50.5 -37.5t-49 -19q-23 -4 -45.5 1.5t-39.5 18t-27 32.5t-8 44q-2 15 -10 20.5t-18 4.5t-17.5 -8.5t-7.5 -18.5q0 -40 16 -71t43.5 -49.5t64.5 -24.5t78 5q23 5 47 20t47 34t44 39.5t37 38.5
q36 40 63.5 75.5t57.5 80.5q7 10 5.5 20.5t-7.5 17t-14.5 8.5t-16.5 -5zM837 972l-128 -114q-8 -8 -20 -5q-13 3 -16 16q-2 7 0.5 13.5t7.5 11.5l141 128q5 4 11 8t13 3q7 0 11.5 -5t7.5 -11l63 -125q6 -11 -2 -23q-7 -10 -18 -10q-12 0 -19 12q-14 25 -26.5 50zM598 295
l-23 36q-4 7 -5 19t1 25.5t6 27.5t10 24l69 119q18 32 36.5 64.5t38.5 62.5q8 12 15.5 21t12.5 10.5t6 -6.5t-5 -31l-47 -193l-51 -213q-6 -26 -17 -27t-19 11z" />
    <glyph glyph-name="Atilde" unicode="&#xc3;" horiz-adv-x="830" 
d="M600 26q-1 -9 5 -17q8 -9 21 -11q9 -1 16.5 3t11.5 13l103 454l49 215q2 13 2 26.5t-5 26.5q-7 19 -22 26q-11 5 -23 3.5t-23 -6.5q-17 -8 -29.5 -22t-21.5 -30q-19 -32 -37 -64.5t-36 -65.5q-17 -29 -34 -58.5t-34 -58.5q-27 -46 -66 -21q-48 38 -112 41q-30 1 -56.5 -8
t-47 -26.5t-33.5 -42.5t-16 -56q-2 -14 5.5 -22t17.5 -9.5t18.5 4t9.5 18.5q1 20 10 37t23 29.5t31.5 19t36.5 5.5q35 -1 66 -21.5t57.5 -51t48 -65.5t37.5 -63q9 -15 17 -30t16 -31q8 -18 9.5 -35.5t-0.5 -35t-6.5 -35t-8.5 -35.5zM461 330q-26 -39 -51.5 -73t-56.5 -69
q-15 -18 -37 -41t-47 -44.5t-50.5 -37t-49.5 -18.5q-23 -5 -45 0.5t-39.5 18t-27 32.5t-7.5 44q-2 15 -10.5 20.5t-18 4.5t-17 -8t-7.5 -18q0 -41 15.5 -71.5t43.5 -49.5t64.5 -24.5t78.5 4.5q23 6 47 20.5t47 33.5t43.5 39.5t36.5 38.5q37 40 64.5 75.5t56.5 80.5
q7 10 5.5 20.5t-7.5 17.5t-14.5 9t-16.5 -5zM787 907q-20 13 -39 8q-22 -6 -34 -32q-4 -9 -12.5 -10.5t-16 2t-11.5 11t-1 17.5q9 24 26 38.5t39 19.5q40 10 78 -18q20 -14 36 -23t33 -1q12 5 28 29q5 8 13.5 9t15 -3t10 -11.5t-0.5 -15.5q-18 -39 -53 -53q-18 -7 -32.5 -6
t-27.5 6.5t-25.5 14.5t-25.5 18zM621 248q-7 12 -13.5 24.5t-14.5 24.5q-5 9 -11 18l-12 18q-4 7 -5 19t1 25.5t6 27.5t10 24q18 29 35 59l34 60q18 32 36.5 65t38.5 62q8 12 16 21t13 10.5t5.5 -6.5t-5.5 -31l-46 -193l-52 -213q-6 -26 -16.5 -26.5t-18.5 10.5z" />
    <glyph glyph-name="Adieresis" unicode="&#xc4;" horiz-adv-x="830" 
d="M600 27q-1 -9 5 -17q7 -9 21 -11q20 -2 28 15l104 455l48 214q2 14 2.5 27.5t-4.5 26.5q-4 8 -9.5 15t-13.5 11q-11 5 -23 3t-23 -7q-17 -8 -29.5 -22t-21.5 -29q-19 -32 -37 -65t-36 -65q-17 -29 -34 -58.5t-34 -58.5q-28 -47 -66 -21q-49 39 -111 40q-30 1 -57 -8
t-47.5 -26t-33.5 -42.5t-16 -56.5q-2 -14 5.5 -21.5t17.5 -9t18.5 4t9.5 18.5q1 20 10 37t23 29t31.5 18.5t36.5 6.5q35 -1 66 -21.5t57.5 -51t48 -65.5t37.5 -63q9 -15 17 -30.5t16 -30.5q8 -18 9.5 -35.5t-0.5 -35t-6.5 -35t-8.5 -35.5zM461 330q-26 -39 -51.5 -72.5
t-56.5 -68.5q-15 -18 -37 -41t-47 -44.5t-50.5 -37.5t-49.5 -19q-23 -5 -45 0.5t-39.5 18.5t-27 32.5t-7.5 44.5q-2 15 -10.5 20.5t-18 4.5t-17 -8.5t-7.5 -18.5q0 -40 15.5 -71t43.5 -50t64.5 -24.5t78.5 4.5q23 6 47 20.5t47 33.5t43.5 39.5t36.5 38.5q37 40 64.5 76
t57.5 81q7 10 5.5 20.5t-7.5 17t-15 8.5t-17 -5zM779 880q-14 -14 -29 -15.5t-26 6.5q-12 9 -14.5 27t14.5 37q15 17 34 18t30 -12q11 -14 7 -32t-16 -29zM879 880q-15 -14 -29.5 -15.5t-25.5 5.5q-12 9 -14.5 27t14.5 38q15 17 33.5 17.5t29.5 -11.5q12 -14 7.5 -32
t-15.5 -29zM621 248q-6 13 -13 25t-15 24q-5 10 -11 19l-12 18q-4 7 -4.5 19t1 25.5t5.5 27t10 24.5q18 29 35 59l34 60q18 32 36.5 64.5t38.5 62.5q8 12 16 21t13 10.5t5.5 -7t-5.5 -30.5l-46 -194l-52 -212q-6 -26 -16.5 -27t-18.5 10q0 1 -1 1z" />
    <glyph glyph-name="Aring" unicode="&#xc5;" horiz-adv-x="829" 
d="M606 23q-2 -10 4 -17q8 -9 22 -11q20 -2 28 15l103 455l49 215q2 13 2 26.5t-5 26.5q-7 19 -22 26q-11 5 -23 3t-23 -7q-17 -8 -29.5 -21.5t-22.5 -29.5l-72 -130l-68 -117q-27 -46 -66 -21q-26 20 -52.5 29.5t-59.5 10.5q-30 1 -56.5 -8t-47 -26t-33.5 -42.5t-16 -56.5
q-2 -14 5.5 -21.5t17.5 -9t18.5 4t9.5 18.5q1 20 10 37t23 29t31.5 18.5t35.5 6.5q35 -1 66.5 -21.5t58 -51t48 -65.5t37.5 -63l33 -61q8 -18 9.5 -35.5t-0.5 -35t-6.5 -35t-8.5 -35.5zM467 326q-26 -39 -51.5 -72.5t-56.5 -68.5q-15 -18 -37 -41t-47 -44.5t-51 -37.5
t-49 -19q-23 -4 -45.5 1.5t-39.5 18t-27 32.5t-8 44q-2 15 -10 20.5t-17.5 4.5t-17.5 -8.5t-8 -18.5q0 -40 16 -71t44 -49.5t64.5 -24.5t78.5 5q23 5 47 20t47 33.5t43.5 39.5t36.5 38q37 40 64.5 76t56.5 81q7 10 5.5 20.5t-7.5 17t-14.5 8.5t-16.5 -5zM889 874
q-31 -30 -61.5 -33t-52.5 13q-13 9 -21 24t-9 32.5t6 37.5t24 40q15 17 33.5 26t36.5 10t34 -5t27 -19q12 -14 15.5 -31t0 -34.5t-12 -33t-20.5 -27.5zM797 962q-18 -23 -16 -45.5t16 -33.5q13 -10 32.5 -7.5t39.5 25.5q14 14 19.5 35.5t-10.5 38.5q-14 15 -38.5 13.5
t-42.5 -26.5zM599 294q-5 9 -11 18l-12 18q-4 7 -5 19t1 25.5t6 27.5t10 24q18 29 35 59l34 60q18 32 36.5 64.5t38.5 62.5q8 12 15.5 21t12.5 10.5t6 -6.5t-5 -31l-47 -193l-51 -213q-6 -26 -16.5 -27t-18.5 11h-1z" />
    <glyph glyph-name="Ccedilla" unicode="&#xc7;" horiz-adv-x="551" 
d="M453 337q17 -44 11 -92.5t-30 -91.5t-63 -75t-87 -42q-8 -2 -16.5 -7.5t-8.5 -21.5q0 -11 2 -22.5t1 -22.5q-1 -23 -16 -42.5t-36 -28.5q-31 -15 -65 -6q-30 10 -48 37q-11 14 -1 30q8 15 24 15q13 0 21 -13q4 -6 8 -10.5t12 -6.5q18 -4 32 5q15 11 17 33q0 8 -1.5 16.5
t-2.5 16.5q-2 18 -7 24t-17 12q-29 11 -53 34t-39 59q-14 34 -17 72t2 76.5t15.5 75.5t23.5 70q10 26 1 46t-31 37q-46 32 -66.5 79t-19.5 103q0 11 7 19.5t19 7.5q8 -1 14.5 -5.5t7.5 -12.5v-5q-5 -56 27 -103q18 -27 44.5 -44.5t57 -25.5t63 -8t62.5 6q66 14 126 54
q35 23 60 53.5t35 65.5q7 24 -0.5 46t-35.5 28q-36 8 -73 -14t-71 -57.5t-61 -75t-42 -66.5q-7 -16 -19 -19.5t-22 1t-15 15t2 22.5q14 25 34 56t45 62t54 59.5t60 48t63.5 27.5t65.5 -2q42 -13 58.5 -49.5t8.5 -77.5q-10 -49 -42 -91.5t-78 -73.5q-23 -16 -50 -29.5
t-55.5 -23.5t-58 -15.5t-57.5 -4.5q-43 -5 -58 -45q-12 -28 -23.5 -61.5t-17.5 -68t-4 -69t16 -64.5q20 -43 55 -59t73 -10q36 6 66.5 31t49 58.5t22.5 69.5t-12 63q-8 15 -3.5 27t14.5 17.5t22.5 2.5t20.5 -19z" />
    <glyph glyph-name="Egrave" unicode="&#xc8;" horiz-adv-x="531" 
d="M284 488q-3 11 -11 17.5t-19 8.5q-46 5 -87.5 26t-69.5 59q-17 26 -27 56.5t-10 68.5q0 13 8 19.5t17 6.5t16.5 -5.5t6.5 -16.5q-5 -55 26 -97q26 -36 63.5 -53.5t79.5 -20.5t84.5 6.5t79.5 27.5q13 7 28.5 17t28.5 22t22 26.5t10 31.5q0 14 -4 25t-14 19
q-15 12 -31.5 14t-34 -4t-34.5 -18t-32 -28q-20 -22 -34 -48t-17 -50q-2 -12 -10.5 -17.5t-18.5 -5t-17.5 7t-7.5 18.5q5 33 22 65.5t43 59.5q23 25 51 43t56.5 25t55.5 1t49 -29q13 -14 21 -33t6 -41q-2 -26 -13 -48t-28 -40.5t-39 -32.5t-44 -24q-15 -7 -32 -12.5
t-35 -10.5q-8 -3 -15.5 -4.5t-15.5 -3.5q-19 -7 -14 -26q2 -4 3.5 -8t3.5 -8q22 -9 35 -20t18.5 -21.5t5 -20t-6.5 -16.5q-6 -8 -16.5 -11.5t-23.5 -1t-27 13t-27 30.5q-48 14 -92 0.5t-79 -45.5q-38 -35 -59.5 -83t-19.5 -98q1 -39 14 -67.5t33 -47.5t46 -27.5t54 -7.5
q33 2 66.5 16t62.5 42q22 23 33.5 51t9.5 57q0 19 8 28t18 9t18.5 -8t8.5 -23q2 -48 -18 -89.5t-55 -71.5q-33 -31 -72 -47t-77 -18q-40 -2 -77.5 10t-66.5 38.5t-47 66t-19 92.5q0 32 7.5 64t22.5 62t36.5 56.5t48.5 47.5q36 28 79 43t92 11zM514 904q7 -9 5 -18t-9 -14
t-16 -4.5t-17 11.5l-117 151q-8 10 -6.5 20.5t8.5 16.5t17.5 4.5t20.5 -15.5z" />
    <glyph glyph-name="Eacute" unicode="&#xc9;" horiz-adv-x="539" 
d="M517 906l113 152q10 14 21 15.5t18 -4.5t8.5 -16.5t-7.5 -20.5l-116 -151q-8 -10 -17 -11t-16 4t-9 14t5 18zM290 488q-49 4 -92 -11t-79 -43q-27 -21 -48 -47.5t-36 -56.5t-23 -62t-7 -64q1 -53 18.5 -92.5t46.5 -66t66.5 -38.5t77.5 -10q39 2 77.5 18t72.5 46
q34 31 54 72.5t18 89.5q0 15 -8.5 23t-18.5 8t-18 -9t-8 -28q2 -29 -9.5 -57t-33.5 -51q-28 -28 -62 -42t-67 -16q-28 -1 -54 7.5t-46 27.5t-33 47.5t-14 67.5q-2 50 19.5 98t59.5 83q35 32 79 45.5t92 -0.5q13 -20 27 -30.5t27 -13t23.5 1t16.5 11.5q6 7 6.5 16.5t-5 20
t-18.5 21.5t-35 20q-2 4 -3.5 7.5t-3.5 8.5q-5 19 15 25q7 3 14.5 4.5t15.5 3.5q18 6 35 11.5t33 12.5q22 9 43.5 23.5t38.5 32.5t28 40.5t13 48.5q2 22 -6 41t-21 33q-22 23 -49 29t-55.5 -1t-56.5 -25t-51 -43q-26 -27 -43 -59.5t-22 -65.5q0 -12 8 -18.5t17.5 -7t18 5
t10.5 17.5q3 24 17.5 50t34.5 48q15 16 31.5 28t34 18t34 4t31.5 -14q20 -17 18 -44q-1 -17 -10 -31.5t-22 -27t-28.5 -22t-28.5 -16.5q-37 -18 -79.5 -27.5t-84.5 -6.5t-79.5 20.5t-63.5 53.5q-31 42 -26 97q1 11 -6.5 16.5t-16.5 5.5t-17 -6.5t-8 -19.5q0 -38 10 -69
t28 -56q27 -38 68.5 -59t87.5 -27q23 -2 30 -25z" />
    <glyph glyph-name="Ecircumflex" unicode="&#xca;" horiz-adv-x="533" 
d="M284 486q-49 5 -92 -10.5t-79 -43.5q-27 -21 -48.5 -47t-36.5 -56t-22.5 -62t-7.5 -64q1 -53 19 -93t47 -66t66.5 -38.5t77.5 -10.5q38 2 77 18t73 47q34 30 54 71.5t18 90.5q0 15 -8.5 22.5t-18.5 7.5t-18 -9t-8 -28q2 -29 -9.5 -56.5t-33.5 -50.5q-28 -29 -62 -42.5
t-67 -15.5q-28 -2 -54 7t-46 27.5t-33 47t-14 67.5q-2 50 19.5 98.5t59.5 83.5q35 31 79 44.5t92 -0.5q13 -20 27 -30.5t27 -13t23.5 1.5t16.5 12q6 7 6.5 16.5t-5 20t-18.5 21.5t-35 20q-2 4 -3.5 7.5t-3.5 7.5q-6 20 14 26q8 2 15.5 4t15.5 4q18 5 35 11t32 13
q22 9 44 23.5t39 32.5t28 40t13 48q2 23 -6 42t-21 33q-22 23 -49 29t-55.5 -1.5t-56.5 -25.5t-51 -43q-26 -27 -43 -59.5t-22 -65.5q0 -11 7.5 -17.5t17.5 -7t18.5 5t10.5 17.5q3 23 17 49t34 48q15 16 32 28t34.5 18t34 4t31.5 -14q10 -8 14 -19t4 -25q-1 -17 -10 -31.5
t-22 -26.5t-28.5 -21.5t-28.5 -16.5q-37 -18 -79.5 -28t-84.5 -7t-79.5 20.5t-63.5 53.5q-15 21 -21.5 46t-4.5 51q1 11 -6.5 17t-16.5 6t-17 -7t-8 -20q0 -38 10 -68.5t27 -55.5q28 -39 69.5 -59.5t87.5 -26.5q11 -2 19 -8.5t11 -17.5zM552 984l-128 -113q-9 -9 -20 -6
q-13 3 -16 16q-4 14 8 25l141 128q5 4 11 8t13 3q7 0 11.5 -5t7.5 -11l63 -124v-1q6 -11 -2 -23q-6 -9 -18 -9q-13 0 -19 11q-14 25 -26.5 50z" />
    <glyph glyph-name="Edieresis" unicode="&#xcb;" horiz-adv-x="534" 
d="M288 489q-49 5 -92.5 -10.5t-78.5 -42.5q-54 -42 -85.5 -104t-29.5 -126q1 -53 18.5 -92.5t46.5 -66t66.5 -38.5t77.5 -10q39 2 77.5 18t72.5 46q34 31 54 72t18 90q0 15 -8.5 23t-18.5 7.5t-18 -9.5t-8 -28q2 -29 -9.5 -56.5t-33.5 -50.5q-28 -29 -62 -42.5t-67 -15.5
q-28 -2 -54 7t-46 27.5t-33 47t-14 67.5q-2 50 19.5 98.5t59.5 83.5q35 32 79 45t92 -1q13 -20 27.5 -30.5t27 -13t23 1.5t16.5 12q11 14 2 36.5t-53 41.5q-2 4 -3.5 7.5t-3.5 7.5q-7 20 14 26q8 2 15 4t15 4q38 11 68 24q22 9 43.5 23.5t39 32.5t28.5 40.5t13 48.5
q1 22 -7 41t-21 33q-22 23 -49 29t-55.5 -1t-56.5 -25t-51 -43q-25 -27 -42 -60t-22 -65q0 -12 7.5 -18.5t17 -7t18 5t10.5 17.5q4 23 18 49.5t34 48.5q15 16 31.5 28t34 17.5t34.5 3.5t32 -14q19 -16 17 -43q-1 -17 -10 -32t-22 -27t-28.5 -21.5t-28.5 -16.5
q-36 -18 -79 -28t-85 -7t-79.5 20.5t-62.5 53.5q-32 44 -27 97q1 11 -6 17t-16 6t-17 -7t-8 -20q0 -73 37 -124q28 -39 69 -59.5t87 -26.5q23 -3 31 -26zM494 908q-15 -15 -29.5 -16.5t-25.5 6.5q-13 9 -15 27t15 38q15 17 33.5 17.5t29.5 -11.5q12 -14 7.5 -32t-15.5 -29z
M594 907q-15 -14 -29.5 -15.5t-25.5 6.5q-13 9 -15 27t15 37q14 17 33 18t30 -12q11 -14 7 -31.5t-15 -29.5z" />
    <glyph glyph-name="Igrave" unicode="&#xcc;" horiz-adv-x="441" 
d="M132 0q-48 -2 -78 19t-43 53t-7.5 68t28.5 65q27 35 71.5 47.5t100.5 -1.5q11 -5 14.5 -14t1 -17.5t-10.5 -15t-19 -4.5q-83 17 -117 -29q-12 -15 -14.5 -36t5 -40t24.5 -31.5t44 -12.5q35 0 64 28t52 71.5t41.5 97t32.5 105.5t24 97t18 71q9 30 18 58.5t18 53.5
q8 20 3 32.5t-29 7.5q-45 -8 -83.5 -13.5t-76.5 -22.5q-32 -14 -50.5 -40.5t-22.5 -55.5q-3 -27 6 -47t27 -30t42 -7.5t50 19.5q9 6 17.5 4t13 -8t4 -15t-9.5 -16q-31 -24 -65.5 -28.5t-64 7t-49 37.5t-20.5 63q-1 26 6.5 51t21.5 46.5t34 37.5t46 24q34 11 62.5 17.5t55 12
l53 11t58.5 14.5q22 7 38 20t36 22q12 6 21 2.5t13.5 -11t4 -17t-8.5 -15.5q-21 -17 -40.5 -34t-29.5 -43q-11 -25 -23 -62.5t-24 -79.5q-10 -34 -22 -85t-28 -107.5t-37.5 -113t-50 -102.5t-64.5 -76t-82 -32v0zM452 907q7 -10 5 -19t-9 -14t-16 -4t-17 12l-116 151
q-9 10 -7.5 20.5t8.5 16.5t18 4.5t21 -15.5z" />
    <glyph glyph-name="Iacute" unicode="&#xcd;" horiz-adv-x="434" 
d="M135 -4q-48 -2 -78 19t-43 53t-8 68.5t28 65.5q28 34 72.5 46.5t100.5 -1.5q11 -4 14.5 -13t1 -18t-10.5 -15t-19 -4q-41 8 -70.5 1t-46.5 -30q-12 -16 -14.5 -37t5 -39.5t24.5 -31.5t44 -13q35 0 64 28t52 71.5t41.5 97t32.5 106t24.5 97t17.5 70.5q9 30 18 58.5
t18 53.5q8 20 3 32.5t-30 8.5q-44 -8 -82.5 -14t-76.5 -23q-32 -13 -50.5 -40t-22.5 -56q-3 -27 6 -47t27 -29.5t42 -7t50 19.5q9 6 17.5 4t13 -8.5t4 -15.5t-9.5 -16q-31 -24 -65.5 -28.5t-64 7.5t-49 38t-20.5 62q-1 26 6.5 51t21.5 46.5t34 37.5t46 24q34 12 62.5 18.5
t54.5 11.5t53 10.5t59 14.5q22 7 38 20.5t36 22.5q12 6 21 2.5t13.5 -11t3.5 -17t-8 -15.5q-21 -17 -40.5 -34.5t-29.5 -43.5q-11 -24 -23 -61.5t-24 -79.5q-10 -34 -22 -85t-28 -108t-37.5 -113.5t-50 -102.5t-64.5 -76t-82 -32zM402 902l114 153q10 14 20.5 15.5
t17.5 -4.5t8.5 -16.5t-6.5 -20.5l-117 -152q-8 -10 -17 -11t-16 4t-9 14t5 18z" />
    <glyph glyph-name="Icircumflex" unicode="&#xce;" horiz-adv-x="427" 
d="M128 -1q-48 -2 -78 19t-43 53t-8 68.5t28 65.5q28 34 72 46.5t101 -1.5q11 -4 14 -13t0.5 -18t-10 -15t-18.5 -4q-41 8 -70.5 1t-47.5 -30q-12 -16 -14 -37t5.5 -39.5t24.5 -31.5t44 -13q35 0 64 28t52 71.5t41.5 97t32.5 106t24 97t18 70.5q9 30 18 58.5t18 53.5
q7 20 2.5 32.5t-29.5 8.5q-45 -8 -83 -14t-76 -23q-32 -13 -50.5 -40t-22.5 -56q-4 -27 5.5 -47t27.5 -29.5t42 -7t50 19.5q9 6 17.5 4t13 -8.5t4 -15.5t-9.5 -16q-31 -24 -65.5 -28.5t-64 7.5t-49 38t-20.5 62q-1 26 6.5 51t21.5 46.5t34 37.5t46 24q34 12 62.5 18.5
t54.5 11.5t53 10.5t59 14.5q22 7 37.5 20.5t35.5 22.5q12 6 21.5 2.5t14 -11t3.5 -17t-8 -15.5q-21 -17 -40.5 -34.5t-29.5 -43.5q-11 -24 -23 -61.5t-24 -79.5q-10 -34 -22 -85t-28 -108t-37.5 -113.5t-50 -102.5t-64.5 -76t-82 -32zM444 989l-128 -113q-8 -8 -20 -5
q-13 4 -16 16q-3 13 9 25l141 127q5 5 10.5 9t12.5 3q8 0 12 -5.5t7 -10.5l64 -125q5 -13 -2 -23q-8 -10 -19 -10t-18 12q-14 25 -26.5 50t-26.5 50z" />
    <glyph glyph-name="Idieresis" unicode="&#xcf;" horiz-adv-x="430" 
d="M130 -1q-48 -2 -78 19t-43 53t-7.5 68t28.5 65q27 34 71.5 46.5t100.5 -1.5q11 -4 14.5 -13t1 -18t-10.5 -15t-19 -4q-41 8 -70.5 1t-46.5 -30q-12 -16 -14.5 -37t5 -39.5t24.5 -31.5t44 -13q35 0 64 28t52 71.5t41.5 97.5t32.5 106t24.5 96.5t17.5 70.5q9 30 18 58.5
t18 53.5q8 20 3 33t-29 8q-45 -8 -83.5 -13.5t-76.5 -22.5q-32 -14 -50.5 -40.5t-22.5 -55.5q-3 -27 6 -47t27 -30t42 -7.5t50 19.5q9 6 17.5 4t13 -8.5t4 -15.5t-9.5 -16q-31 -24 -65.5 -28.5t-64 7.5t-49 38t-20.5 62q-1 26 6.5 51t21.5 46.5t34 37.5t46 25
q34 11 62.5 17.5t55 11.5t53 10.5t58.5 14.5q22 7 38 20.5t36 22.5q12 6 21 2.5t13.5 -11t4 -17t-8.5 -15.5q-21 -17 -40.5 -34.5t-29.5 -43.5q-11 -24 -23 -61.5t-24 -79.5q-10 -34 -22 -85t-28 -108t-37.5 -113.5t-50 -102.5t-64.5 -75.5t-82 -31.5zM404 916
q-14 -15 -29 -16.5t-26 6.5q-12 9 -14.5 27t14.5 37q15 17 33.5 18t29.5 -11q12 -14 8 -32t-16 -29zM504 915q-15 -14 -29.5 -15.5t-25.5 6.5q-13 9 -15 27t15 37q15 17 33.5 18t29.5 -12q12 -14 7.5 -32t-15.5 -29z" />
    <glyph glyph-name="Eth" unicode="&#xd0;" horiz-adv-x="659" 
d="M2 206q3 55 31 99t72 67q34 17 70 20q10 1 25 10.5t18 19.5l4 15q2 11 -1.5 12.5t-12.5 1.5h-75q-12 0 -18 7t-6 15t5.5 15t16.5 7h87q14 -1 18 4t6 13l34 130q5 14 15 19t19 2.5t15.5 -10t3.5 -19.5q-8 -31 -16 -60t-16 -61q-2 -8 -0.5 -13t14.5 -5q16 -1 31.5 -0.5
t31.5 0.5q11 0 17.5 -6.5t7 -14.5t-5.5 -15t-18 -8h-75q-8 1 -14.5 -2t-9.5 -15l-4 -17q-2 -14 3 -27t16 -20q29 -14 49.5 -35t29.5 -53q4 -13 -1.5 -21.5t-14 -12t-17.5 -0.5t-13 12q-9 25 -31.5 42.5t-51 25t-58.5 6t-53 -13.5q-30 -15 -48.5 -43.5t-23.5 -66.5
q-4 -35 5 -62t29 -45.5t49.5 -27t65.5 -6.5q42 2 87 21t88.5 58t81.5 98.5t65 142.5q15 45 21.5 90.5t4.5 87.5t-14 78t-36 63q-35 39 -87 52t-104.5 2.5t-96 -42.5t-61.5 -83q-4 -9 -14 -11t-19.5 1.5t-15.5 12t-1 20.5q13 42 43 74t69 53t84 31t89 6.5t84.5 -20
t70.5 -47.5q29 -31 45 -72.5t21 -89t-1 -99.5t-21 -104q-28 -98 -72 -168t-95.5 -116t-107.5 -69t-108 -26q-46 -2 -85 10t-66.5 37t-42 62t-11.5 84zM237 288l-31 -118q-5 -12 -14 -14.5t-18.5 0.5t-16 9.5t-4.5 13.5l32 121q6 12 16 15t19 0t14.5 -10.5t2.5 -16.5z" />
    <glyph glyph-name="Ntilde" unicode="&#xd1;" horiz-adv-x="773" 
d="M744 906q-20 13 -39 8q-22 -6 -34 -32q-4 -9 -12.5 -10.5t-16 2t-11.5 11t-1 17.5q9 24 26 38.5t39 19.5q40 10 78 -18q20 -14 36 -23t33 -1q12 5 28 29q5 8 13.5 9t15 -3t10 -11.5t-0.5 -15.5q-18 -39 -53 -53q-18 -7 -32.5 -6t-27.5 6.5t-25.5 14.5t-25.5 18zM476 634
q8 13 19.5 11t13.5 -18q11 -81 22.5 -154.5t24.5 -154.5q2 -9 9.5 -9.5t15 5t13 17t4.5 26.5q-3 15 -7.5 45t-10 67.5t-11 78t-9.5 76t-6 63.5t0 39q1 5 2.5 9.5t3.5 9.5q5 14 -3 23.5t-19 11.5q-6 1 -12.5 -1.5t-12.5 -5.5q-48 -29 -88 -41.5t-78.5 -18.5t-78.5 -12.5
t-88 -23.5q-23 -9 -42.5 -26.5t-33 -39.5t-21 -47t-7.5 -50q1 -23 9 -43.5t21.5 -36.5t32 -26.5t40.5 -13.5q27 -3 53.5 5.5t47.5 25.5q9 8 9 17.5t-6 16t-15 8.5t-16 -5q-27 -27 -63 -22q-32 5 -46 28.5t-12 54.5q2 27 15.5 54t36.5 43q18 12 45.5 19t57.5 11.5t59.5 7.5
t52.5 7q30 3 21 -28q-23 -56 -42 -113t-37.5 -113t-39 -112t-45.5 -111q-10 -24 -24 -47.5t-32 -44t-40 -36.5t-47 -23q-21 -6 -40.5 -5.5t-39.5 8.5q-10 5 -18.5 0t-11.5 -14.5t0.5 -20t18.5 -16.5q27 -11 54.5 -10.5t55.5 9.5q33 11 60 32t49 47t39 56.5t30 61.5
q23 55 43 112t39.5 114t40 113t44.5 110zM840 743q20 12 42.5 19t45.5 7q28 0 56 -11q16 -6 22 -21q3 -8 0.5 -17t-10.5 -13q-6 -4 -16 0q-41 17 -84 5q-30 -8 -55 -30t-46 -53q-22 -32 -43.5 -76t-40.5 -92t-34.5 -95t-25.5 -84q-5 -18 -7.5 -42.5t1.5 -44.5
q8 -28 12.5 -56t2.5 -57q-1 -14 -6 -28.5t-13.5 -26.5t-20.5 -20t-27 -8q-17 -1 -31 10t-20 26t-5 37.5t7 50t16 58t21 62.5q15 43 35 101t43.5 118t48 113.5t48.5 87.5q17 25 38 45.5t46 34.5zM593 141q-1 -6 -4 -22.5t-4.5 -34t0.5 -31t11 -13.5q8 0 15 12.5t8 30.5
q0 13 -3 29t-7 32q-3 8 -8 7.5t-8 -10.5z" />
    <glyph glyph-name="Ograve" unicode="&#xd2;" horiz-adv-x="599" 
d="M479 902q7 -9 5 -18t-9 -14t-16 -4.5t-17 11.5l-117 151q-8 10 -6.5 20.5t8.5 16.5t17.5 4.5t20.5 -15.5zM483 201q39 15 76 44.5t58 66.5q4 6 8 11t12 7q11 4 20 -2t10 -17q0 -6 -1 -9q-1 -6 -7 -14q-51 -80 -135 -122q-21 -11 -44 -18t-47 -9q-20 -2 -32.5 -9.5
t-27.5 -21.5q-8 -11 -17 -20q-42 -47 -86 -69t-85.5 -22.5t-78 20t-62.5 58.5q-24 35 -34.5 79t-10.5 93t9 100t24 98.5t34.5 90t41.5 73.5q6 8 13 14.5t18 3.5q11 -2 17.5 -12.5t3.5 -21.5q-2 -6 -5.5 -10.5t-6.5 -9.5q-18 -24 -35 -60.5t-30 -79.5t-21 -90t-8.5 -91
t8.5 -83t29 -66t45.5 -41t55 -12.5t61.5 19t64 52.5q31 34 57.5 77.5t46.5 90.5t34 95t22 93q2 15 4 37.5t2 48.5t-2.5 52.5t-9.5 49.5q-8 26 -24.5 47t-45.5 23q-27 2 -55.5 -16.5t-50.5 -47.5q-33 -43 -51 -105.5t-15.5 -127.5t28 -123.5t78.5 -93.5q8 -5 8.5 -15
t-4.5 -18t-14.5 -12t-21.5 2q-63 43 -93.5 111.5t-34 144t17.5 148t62 124.5q32 40 73 62.5t82 18.5q35 -3 64 -27.5t46 -77.5q8 -26 11.5 -54.5t3.5 -56.5t-2.5 -54t-5.5 -47q-10 -60 -27.5 -118.5t-43.5 -113.5q-12 -26 -2.5 -35.5t29.5 -1.5z" />
    <glyph glyph-name="Oacute" unicode="&#xd3;" horiz-adv-x="601" 
d="M407 912l113 152q10 14 21 15.5t18 -4.5t8.5 -16.5t-7.5 -20.5l-116 -151q-8 -10 -17 -11t-16 4t-9 14t5 18zM483 201q39 15 76 44.5t58 66.5q4 6 8 11t12 7q11 4 20 -2t10 -17q0 -6 -1 -9q-1 -6 -7 -14q-51 -80 -135 -122q-21 -11 -44 -18t-47 -9q-20 -2 -32.5 -9.5
t-27.5 -21.5q-8 -11 -17 -20q-42 -47 -86 -69t-85.5 -22.5t-78 20t-62.5 58.5q-24 35 -34.5 79t-10.5 93t9 100t24 98.5t34.5 90t41.5 73.5q6 8 13 14.5t18 3.5q11 -2 17.5 -12.5t3.5 -21.5q-2 -6 -5.5 -10.5t-6.5 -9.5q-18 -24 -35 -60.5t-30 -79.5t-21 -90t-8.5 -91
t8.5 -83t29 -66t45.5 -41t55 -12.5t61.5 19t64 52.5q31 34 57.5 77.5t46.5 90.5t34 95t22 93q2 15 4 37.5t2 48.5t-2.5 52.5t-9.5 49.5q-8 26 -24.5 47t-45.5 23q-27 2 -55.5 -16.5t-50.5 -47.5q-33 -43 -51 -105.5t-15.5 -127.5t28 -123.5t78.5 -93.5q8 -5 8.5 -15
t-4.5 -18t-14.5 -12t-21.5 2q-63 43 -93.5 111.5t-34 144t17.5 148t62 124.5q32 40 73 62.5t82 18.5q35 -3 64 -27.5t46 -77.5q8 -26 11.5 -54.5t3.5 -56.5t-2.5 -54t-5.5 -47q-10 -60 -27.5 -118.5t-43.5 -113.5q-12 -26 -2.5 -35.5t29.5 -1.5z" />
    <glyph glyph-name="Ocircumflex" unicode="&#xd4;" horiz-adv-x="601" 
d="M479 979l-128 -113q-9 -9 -20 -6q-13 3 -16 16q-4 14 8 25l141 128q5 4 11 8t13 3q7 0 11.5 -5t7.5 -11l63 -124v-1q6 -11 -2 -23q-6 -9 -18 -9q-13 0 -19 11q-14 25 -26.5 50zM483 201q39 15 76 44.5t58 66.5q4 6 8 11t12 7q11 4 20 -2t10 -17q0 -6 -1 -9q-1 -6 -7 -14
q-51 -80 -135 -122q-21 -11 -44 -18t-47 -9q-20 -2 -32.5 -9.5t-27.5 -21.5q-8 -11 -17 -20q-42 -47 -86 -69t-85.5 -22.5t-78 20t-62.5 58.5q-24 35 -34.5 79t-10.5 93t9 100t24 98.5t34.5 90t41.5 73.5q6 8 13 14.5t18 3.5q11 -2 17.5 -12.5t3.5 -21.5q-2 -6 -5.5 -10.5
t-6.5 -9.5q-18 -24 -35 -60.5t-30 -79.5t-21 -90t-8.5 -91t8.5 -83t29 -66t45.5 -41t55 -12.5t61.5 19t64 52.5q31 34 57.5 77.5t46.5 90.5t34 95t22 93q2 15 4 37.5t2 48.5t-2.5 52.5t-9.5 49.5q-8 26 -24.5 47t-45.5 23q-27 2 -55.5 -16.5t-50.5 -47.5q-33 -43 -51 -105.5
t-15.5 -127.5t28 -123.5t78.5 -93.5q8 -5 8.5 -15t-4.5 -18t-14.5 -12t-21.5 2q-63 43 -93.5 111.5t-34 144t17.5 148t62 124.5q32 40 73 62.5t82 18.5q35 -3 64 -27.5t46 -77.5q8 -26 11.5 -54.5t3.5 -56.5t-2.5 -54t-5.5 -47q-10 -60 -27.5 -118.5t-43.5 -113.5
q-12 -26 -2.5 -35.5t29.5 -1.5z" />
    <glyph glyph-name="Otilde" unicode="&#xd5;" horiz-adv-x="599" 
d="M429 906q-20 13 -39 8q-22 -6 -34 -32q-4 -9 -12.5 -10.5t-16 2t-11.5 11t-1 17.5q9 24 26 38.5t39 19.5q40 10 78 -18q20 -14 36 -23t33 -1q12 5 28 29q5 8 13.5 9t15 -3t10 -11.5t-0.5 -15.5q-18 -39 -53 -53q-18 -7 -32.5 -6t-27.5 6.5t-25.5 14.5t-25.5 18zM483 201
q39 15 76 44.5t58 66.5q4 6 8 11t12 7q11 4 20 -2t10 -17q0 -6 -1 -9q-1 -6 -7 -14q-51 -80 -135 -122q-21 -11 -44 -18t-47 -9q-20 -2 -32.5 -9.5t-27.5 -21.5q-8 -11 -17 -20q-42 -47 -86 -69t-85.5 -22.5t-78 20t-62.5 58.5q-24 35 -34.5 79t-10.5 93t9 100t24 98.5
t34.5 90t41.5 73.5q6 8 13 14.5t18 3.5q11 -2 17.5 -12.5t3.5 -21.5q-2 -6 -5.5 -10.5t-6.5 -9.5q-18 -24 -35 -60.5t-30 -79.5t-21 -90t-8.5 -91t8.5 -83t29 -66t45.5 -41t55 -12.5t61.5 19t64 52.5q31 34 57.5 77.5t46.5 90.5t34 95t22 93q2 15 4 37.5t2 48.5t-2.5 52.5
t-9.5 49.5q-8 26 -24.5 47t-45.5 23q-27 2 -55.5 -16.5t-50.5 -47.5q-33 -43 -51 -105.5t-15.5 -127.5t28 -123.5t78.5 -93.5q8 -5 8.5 -15t-4.5 -18t-14.5 -12t-21.5 2q-63 43 -93.5 111.5t-34 144t17.5 148t62 124.5q32 40 73 62.5t82 18.5q35 -3 64 -27.5t46 -77.5
q8 -26 11.5 -54.5t3.5 -56.5t-2.5 -54t-5.5 -47q-10 -60 -27.5 -118.5t-43.5 -113.5q-12 -26 -2.5 -35.5t29.5 -1.5z" />
    <glyph glyph-name="Odieresis" unicode="&#xd6;" horiz-adv-x="601" 
d="M404 916q-14 -15 -29 -16.5t-26 6.5q-12 9 -14.5 27t14.5 37q15 17 33.5 18t29.5 -11q12 -14 8 -32t-16 -29zM504 915q-15 -14 -29.5 -15.5t-25.5 6.5q-13 9 -15 27t15 37q15 17 33.5 18t29.5 -12q12 -14 7.5 -32t-15.5 -29zM483 201q39 15 76 44.5t58 66.5q4 6 8 11
t12 7q11 4 20 -2t10 -17q0 -6 -1 -9q-1 -6 -7 -14q-51 -80 -135 -122q-21 -11 -44 -18t-47 -9q-20 -2 -32.5 -9.5t-27.5 -21.5q-8 -11 -17 -20q-42 -47 -86 -69t-85.5 -22.5t-78 20t-62.5 58.5q-24 35 -34.5 79t-10.5 93t9 100t24 98.5t34.5 90t41.5 73.5q6 8 13 14.5
t18 3.5q11 -2 17.5 -12.5t3.5 -21.5q-2 -6 -5.5 -10.5t-6.5 -9.5q-18 -24 -35 -60.5t-30 -79.5t-21 -90t-8.5 -91t8.5 -83t29 -66t45.5 -41t55 -12.5t61.5 19t64 52.5q31 34 57.5 77.5t46.5 90.5t34 95t22 93q2 15 4 37.5t2 48.5t-2.5 52.5t-9.5 49.5q-8 26 -24.5 47
t-45.5 23q-27 2 -55.5 -16.5t-50.5 -47.5q-33 -43 -51 -105.5t-15.5 -127.5t28 -123.5t78.5 -93.5q8 -5 8.5 -15t-4.5 -18t-14.5 -12t-21.5 2q-63 43 -93.5 111.5t-34 144t17.5 148t62 124.5q32 40 73 62.5t82 18.5q35 -3 64 -27.5t46 -77.5q8 -26 11.5 -54.5t3.5 -56.5
t-2.5 -54t-5.5 -47q-10 -60 -27.5 -118.5t-43.5 -113.5q-12 -26 -2.5 -35.5t29.5 -1.5z" />
    <glyph glyph-name="multiply" unicode="&#xd7;" horiz-adv-x="403" 
d="M249 289l53 -43q9 -7 9.5 -15.5t-4 -15t-13.5 -8.5t-19 5q-10 8 -17 13.5t-13 10.5t-13 10t-17 13q-9 8 -20 9t-25 -8q-27 -19 -54 -37t-55 -36q-9 -7 -21 -4q-11 4 -14 14q-3 6 0 13t11 12l103 68q7 5 8 13t-7 15l-51 41q-10 8 -10.5 17t4.5 15t13.5 7.5t17.5 -4.5
q19 -14 30 -23t30 -24q11 -8 24.5 -8t23.5 6q25 17 46.5 31t45.5 30q10 6 19 4t13.5 -8t3.5 -14.5t-11 -15.5q-23 -15 -45 -29.5t-45 -29.5q-6 -5 -7 -12t6 -12z" />
    <glyph glyph-name="Oslash" unicode="&#xd8;" horiz-adv-x="584" 
d="M360 91q-45 -50 -92 -71.5t-91 -19.5q-11 0 -19.5 -2t-16.5 -19l-8 -18t-8 -19q-7 -16 -23 -17q-16 0 -23 12q-7 10 -2 23l18 39q7 15 3.5 22.5t-11.5 13.5q-23 19 -39 43q-36 52 -42.5 124.5t6 148t39.5 145t60 116.5q6 8 13 14.5t19 3.5q11 -2 17.5 -12.5t2.5 -21.5
q-2 -5 -5 -9.5t-7 -9.5q-18 -24 -35 -61t-30 -80t-21 -90t-8.5 -91t8.5 -83t29 -66q31 -39 50 1q18 42 36.5 82t36.5 82q22 48 43.5 96t43.5 97q14 29 27 59t27 59q14 32 27.5 63.5t27.5 63.5q8 17 5 23.5t-23 5.5q-26 -2 -51.5 -19.5t-45.5 -43.5q-19 -25 -33 -56.5
t-22 -67t-10.5 -73t2.5 -73.5q3 -15 -3.5 -24t-16 -11.5t-18.5 2t-12 15.5q-7 43 -5.5 87.5t11.5 86.5t27 80t41 68q32 41 73 63t81 19q17 -2 27 -1t16 15q4 8 7.5 17t7.5 18q3 7 8 12t13 6q13 3 22 -7q6 -6 7 -14t-3 -15q-5 -11 -9 -20.5t-9 -19.5q-3 -8 -5.5 -12.5
t-2.5 -10t3 -13t10 -19.5q10 -18 18 -42q8 -26 11.5 -54.5t4 -56.5t-2 -54t-5.5 -47q-17 -106 -58 -204.5t-113 -177.5zM212 55q26 5 53.5 22t55.5 48q31 34 57 77t46.5 90t34 95t21.5 93q3 15 5 37.5t2 48.5t-3 52.5t-10 49.5q-10 31 -22 5q-11 -27 -23 -53.5t-23 -52.5
q-14 -30 -27 -60t-27 -59q-22 -49 -43.5 -97t-43.5 -96q-18 -41 -36.5 -81t-36.5 -81q-3 -6 -5.5 -14t-1 -14.5t7 -9.5t19.5 0z" />
    <glyph glyph-name="Ugrave" unicode="&#xd9;" horiz-adv-x="766" 
d="M616 904q7 -9 5 -18t-9 -14t-16 -4.5t-17 11.5l-117 151q-8 10 -6.5 20.5t8.5 16.5t17.5 4.5t20.5 -15.5zM436 708q-7 -7 -12 -17q-17 -28 -36.5 -69t-38 -89.5t-35.5 -101t-29 -104.5q-2 -12 -12 -17.5t-20.5 -5.5t-18.5 5t-6 16q10 44 23 88t28 86t30.5 80.5t31.5 70.5
q4 10 3 16t-4.5 9t-8.5 4t-9 0q-24 -3 -49 -4t-50 -3.5t-47 -8t-40 -17.5q-25 -17 -42.5 -44t-25.5 -58.5t-7 -65.5t12.5 -65.5t34.5 -58.5t58 -44q42 -20 85 -20t84 25q33 20 57.5 53t34.5 73q4 16 12 22t17 4.5t16 -8.5t8 -18q-6 -34 -21.5 -64.5t-38 -56t-50 -44
t-58.5 -28.5q-16 -5 -32 -15.5t-18 -29.5q-4 -42 0 -71q8 -51 36.5 -69t64.5 -11q86 16 134 99q11 19 23 48.5t24.5 63.5t25 71.5t23.5 73t19.5 66.5t13.5 54q6 23 10.5 46.5t11.5 46.5q9 28 25 40t30 9t21.5 -18.5t-0.5 -41.5q-7 -22 -18 -45.5t-19 -45.5
q-18 -50 -35.5 -105.5t-31.5 -110t-24 -104.5t-14 -89q-5 -42 2.5 -73.5t32.5 -65.5q10 -13 8.5 -23.5t-8.5 -17t-17 -7.5t-18 6q-14 12 -26 33.5t-19.5 46t-10 50.5t1.5 48q-26 -48 -69 -76t-97 -35q-28 -4 -54.5 2t-48 22t-36 43t-18.5 66q-2 17 -1 36t3 40q2 20 -9 29.5
t-28 14.5q-57 18 -93.5 54.5t-54.5 81.5t-18.5 94.5t14 93.5t42.5 78.5t68 49.5q36 13 75 17.5t76.5 8.5t72.5 11t64 25q6 3 12 6.5t12 5.5q11 5 21 4q9 -1 15 -10t4 -18q-1 -4 -4 -7.5t-5 -5.5q-5 -4 -9.5 -7.5t-9.5 -7.5t-8.5 -7t-7.5 -8z" />
    <glyph glyph-name="Uacute" unicode="&#xda;" horiz-adv-x="766" 
d="M577 906l113 152q10 14 21 15.5t18 -4.5t8.5 -16.5t-7.5 -20.5l-116 -151q-8 -10 -17 -11t-16 4t-9 14t5 18zM436 708q4 5 7.5 8t8.5 7t9.5 7.5t9.5 7.5q2 2 5 5.5t4 7.5q2 9 -4 18t-15 10q-10 1 -21 -4q-6 -2 -12 -5.5t-12 -6.5q-29 -18 -64 -25t-72.5 -11t-76.5 -8.5
t-75 -17.5q-40 -15 -68 -49.5t-42.5 -78.5t-14 -93.5t18.5 -94.5t54.5 -81.5t93.5 -54.5q17 -5 28 -14.5t9 -29.5q-2 -21 -3 -40t1 -36q4 -39 18.5 -66t36 -43t48 -22t54.5 -2q54 7 97 35t69 76q-4 -22 -1.5 -48t10 -50.5t19.5 -46t26 -33.5q8 -7 18 -6t17 7.5t8.5 17
t-8.5 23.5q-25 34 -32.5 65.5t-2.5 73.5q4 39 14 89t24 104.5t31.5 110t35.5 105.5q8 22 19 45.5t18 45.5q8 26 0.5 41.5t-21.5 18.5t-30 -9t-25 -40q-7 -23 -11.5 -46.5t-10.5 -46.5q-5 -23 -13.5 -54t-19.5 -66.5t-23.5 -73t-25 -71.5t-24.5 -63.5t-23 -48.5
q-48 -83 -134 -99q-36 -7 -64.5 11t-36.5 69q-4 29 0 71q2 19 18 29.5t32 15.5q31 10 58.5 28.5t50 44t38 56t21.5 64.5q-1 11 -8 18t-16 8.5t-17 -4.5t-12 -22q-10 -40 -34.5 -73t-57.5 -53q-41 -25 -84 -25t-85 20q-35 17 -58 44t-34.5 58.5t-12.5 65.5t7 65.5t25.5 58.5
t42.5 44q18 12 40 17.5t47 8t50 3.5t49 4q4 1 9 0t8.5 -4t4.5 -9t-3 -16q-16 -32 -31.5 -70.5t-30.5 -80.5t-28 -86t-23 -88q-2 -11 6 -16t18.5 -5t20.5 5.5t12 17.5q12 52 29 104.5t35.5 101t38 89.5t36.5 69q5 10 12 17z" />
    <glyph glyph-name="Ucircumflex" unicode="&#xdb;" horiz-adv-x="766" 
d="M653 982l-128 -113q-9 -9 -20 -6q-13 3 -16 16q-4 14 8 25l141 128q5 4 11 8t13 3q7 0 11.5 -5t7.5 -11l63 -124v-1q6 -11 -2 -23q-6 -9 -18 -9q-13 0 -19 11q-14 25 -26.5 50zM436 708q4 5 7.5 8t8.5 7t9.5 7.5t9.5 7.5q2 2 5 5.5t4 7.5q2 9 -4 18t-15 10q-10 1 -21 -4
q-6 -2 -12 -5.5t-12 -6.5q-29 -18 -64 -25t-72.5 -11t-76.5 -8.5t-75 -17.5q-40 -15 -68 -49.5t-42.5 -78.5t-14 -93.5t18.5 -94.5t54.5 -81.5t93.5 -54.5q17 -5 28 -14.5t9 -29.5q-2 -21 -3 -40t1 -36q4 -39 18.5 -66t36 -43t48 -22t54.5 -2q54 7 97 35t69 76
q-4 -22 -1.5 -48t10 -50.5t19.5 -46t26 -33.5q8 -7 18 -6t17 7.5t8.5 17t-8.5 23.5q-25 34 -32.5 65.5t-2.5 73.5q4 39 14 89t24 104.5t31.5 110t35.5 105.5q8 22 19 45.5t18 45.5q8 26 0.5 41.5t-21.5 18.5t-30 -9t-25 -40q-7 -23 -11.5 -46.5t-10.5 -46.5
q-5 -23 -13.5 -54t-19.5 -66.5t-23.5 -73t-25 -71.5t-24.5 -63.5t-23 -48.5q-48 -83 -134 -99q-36 -7 -64.5 11t-36.5 69q-4 29 0 71q2 19 18 29.5t32 15.5q31 10 58.5 28.5t50 44t38 56t21.5 64.5q-1 11 -8 18t-16 8.5t-17 -4.5t-12 -22q-10 -40 -34.5 -73t-57.5 -53
q-41 -25 -84 -25t-85 20q-35 17 -58 44t-34.5 58.5t-12.5 65.5t7 65.5t25.5 58.5t42.5 44q18 12 40 17.5t47 8t50 3.5t49 4q4 1 9 0t8.5 -4t4.5 -9t-3 -16q-16 -32 -31.5 -70.5t-30.5 -80.5t-28 -86t-23 -88q-2 -11 6 -16t18.5 -5t20.5 5.5t12 17.5q12 52 29 104.5t35.5 101
t38 89.5t36.5 69q5 10 12 17z" />
    <glyph glyph-name="Udieresis" unicode="&#xdc;" horiz-adv-x="766" 
d="M615 914q-14 -15 -29 -16.5t-26 6.5q-12 9 -14.5 27t14.5 37q15 17 33.5 18t29.5 -11q12 -14 8 -32t-16 -29zM715 913q-15 -14 -29.5 -15.5t-25.5 6.5q-13 9 -15 27t15 37q15 17 33.5 18t29.5 -12q12 -14 7.5 -32t-15.5 -29zM436 708q4 5 7.5 8t8.5 7t9.5 7.5t9.5 7.5
q2 2 5 5.5t4 7.5q2 9 -4 18t-15 10q-10 1 -21 -4q-6 -2 -12 -5.5t-12 -6.5q-29 -18 -64 -25t-72.5 -11t-76.5 -8.5t-75 -17.5q-40 -15 -68 -49.5t-42.5 -78.5t-14 -93.5t18.5 -94.5t54.5 -81.5t93.5 -54.5q17 -5 28 -14.5t9 -29.5q-2 -21 -3 -40t1 -36q4 -39 18.5 -66
t36 -43t48 -22t54.5 -2q54 7 97 35t69 76q-4 -22 -1.5 -48t10 -50.5t19.5 -46t26 -33.5q8 -7 18 -6t17 7.5t8.5 17t-8.5 23.5q-25 34 -32.5 65.5t-2.5 73.5q4 39 14 89t24 104.5t31.5 110t35.5 105.5q8 22 19 45.5t18 45.5q8 26 0.5 41.5t-21.5 18.5t-30 -9t-25 -40
q-7 -23 -11.5 -46.5t-10.5 -46.5q-5 -23 -13.5 -54t-19.5 -66.5t-23.5 -73t-25 -71.5t-24.5 -63.5t-23 -48.5q-48 -83 -134 -99q-36 -7 -64.5 11t-36.5 69q-4 29 0 71q2 19 18 29.5t32 15.5q31 10 58.5 28.5t50 44t38 56t21.5 64.5q-1 11 -8 18t-16 8.5t-17 -4.5t-12 -22
q-10 -40 -34.5 -73t-57.5 -53q-41 -25 -84 -25t-85 20q-35 17 -58 44t-34.5 58.5t-12.5 65.5t7 65.5t25.5 58.5t42.5 44q18 12 40 17.5t47 8t50 3.5t49 4q4 1 9 0t8.5 -4t4.5 -9t-3 -16q-16 -32 -31.5 -70.5t-30.5 -80.5t-28 -86t-23 -88q-2 -11 6 -16t18.5 -5t20.5 5.5
t12 17.5q12 52 29 104.5t35.5 101t38 89.5t36.5 69q5 10 12 17z" />
    <glyph glyph-name="Yacute" unicode="&#xdd;" horiz-adv-x="710" 
d="M524 815l113 152q10 14 21 15.5t18 -4.5t8.5 -16.5t-7.5 -20.5l-116 -151q-8 -10 -17 -11t-16 4t-9 14t5 18zM652 516q4 18 -4.5 31.5t-22.5 15.5t-29 -9t-23 -41q-7 -23 -11 -47t-9 -47q-10 -46 -29 -83t-44.5 -64.5t-55.5 -44t-62 -22.5q-36 -6 -55.5 9.5t-18.5 53.5
q1 44 14.5 87.5t27.5 87.5t22.5 89.5t-1.5 92.5q-8 40 -24.5 68.5t-38 46.5t-47 26t-51.5 8q-33 0 -65 -13t-58 -36.5t-43.5 -56t-20.5 -71.5q-3 -30 4.5 -64t24.5 -59q15 -23 39 -39q8 -5 17.5 -5t16.5 8q6 7 6 17t-8 16q-8 5 -13.5 11t-11.5 13q-17 23 -22.5 51t-0.5 57
q6 29 19 51.5t31 38.5t39.5 24t42.5 8q39 0 71.5 -28.5t40.5 -89.5q6 -42 -5 -87.5t-26 -90.5t-27 -88t-9 -81q4 -57 38.5 -84.5t88.5 -19.5q31 5 60.5 18t53.5 30q8 5 13 1t3 -9q-5 -14 -9 -27.5t-9 -27.5q-3 -9 -16 -21.5t-41 -16.5q-29 -3 -59 -13t-56.5 -25.5
t-46.5 -37.5t-29 -49q-8 -24 -6.5 -48t13 -41.5t32.5 -27t51 -5.5q29 3 54 19.5t45.5 40t37 51.5t27.5 55q3 9 -3 15.5t-15 8.5t-18.5 -2t-13.5 -17q-9 -22 -22 -43.5t-29.5 -39t-36 -29.5t-41.5 -14q-12 -2 -20 3t-11.5 13.5t-4 19.5t2.5 21q6 21 23 39t39.5 31.5t48 22
t48.5 9.5q51 3 96.5 -20t77.5 -62q7 -7 15 -7.5t14 4t8 13t-4 19.5q-8 18 -31.5 37.5t-48.5 33.5q-17 9 -26.5 22t-1.5 34q22 67 45 142.5t46 141.5q9 25 21 48.5t17 49.5z" />
    <glyph glyph-name="germandbls" unicode="&#xdf;" horiz-adv-x="503" 
d="M384 769q59 -8 90.5 -50t24.5 -100q-7 -55 -33.5 -92t-71.5 -67q-14 -9 -23 -15.5t-13.5 -13t-2.5 -14.5t11 -20q21 -27 36.5 -52t21.5 -51.5t1.5 -55.5t-24.5 -62q-11 -18 -26.5 -34t-34.5 -27t-40 -17t-43 -3q-36 5 -61.5 27.5t-40.5 54.5q-5 11 -0.5 20t13 13.5
t18.5 2.5t15 -13q10 -20 25.5 -36.5t38.5 -18.5q28 -2 52 14t38 38q19 30 22 54t-5 45t-23.5 41t-31.5 43q-15 21 -16 38t7.5 31t23.5 26t32 24q35 24 56 50t28 71q5 40 -12 67.5t-59 32.5q-32 4 -56 -8.5t-42 -38.5q-15 -21 -32 -63t-34 -94.5t-33.5 -111.5t-30 -114
t-24.5 -101.5t-17 -74.5q-2 -9 -9.5 -15t-16.5 -4q-11 1 -18.5 9.5t-5.5 19.5q6 30 17 77.5t25.5 103.5t31 115.5t34 113t35 97t33.5 66.5q26 39 64 58.5t86 13.5z" />
    <glyph glyph-name="agrave" unicode="&#xe0;" horiz-adv-x="349" 
d="M230 415q7 2 9 11q3 12 13 16t19 1.5t14 -12t-1 -25.5q-2 -7 -7.5 -21.5t-12 -34t-13.5 -42.5t-13 -45q-6 -23 -10 -43t-5 -37q-3 -44 25 -42q18 1 35.5 18.5t33 40.5t29 47.5t22.5 40.5q3 6 9.5 6.5t12.5 -2.5t8.5 -9.5t-1.5 -13.5q-11 -20 -25.5 -47t-32.5 -52.5
t-40 -44.5t-48 -23q-19 -3 -34 2t-25 21q-12 18 -21 18q-6 0 -18 -10t-26 -18t-29 -12q-26 -6 -46 4.5t-34 30.5q-18 29 -17.5 71.5t13.5 86.5q14 47 39.5 86t55.5 56q21 11 41.5 12t37.5 -6q18 -8 26 -19.5t16 -9.5zM251 558q7 -10 5 -19t-9 -14t-16 -4t-17 11l-93 120
q-8 10 -6.5 20.5t8.5 16.5t17.5 4.5t20.5 -15.5zM196 380q-6 17 -22 24q-10 4 -23 1.5t-28 -13.5q-17 -12 -32.5 -40t-26.5 -62q-11 -35 -14.5 -70.5t7.5 -56.5q5 -12 16 -18t28 2q25 11 48.5 44.5t35.5 74.5q10 32 14.5 62.5t-3.5 51.5z" />
    <glyph glyph-name="aacute" unicode="&#xe1;" horiz-adv-x="350" 
d="M231 413q-8 -2 -16 9t-26 19q-37 16 -79 -6q-30 -16 -55.5 -55.5t-39.5 -86.5q-13 -44 -13.5 -86t17.5 -71q14 -20 34 -30.5t46 -4.5q15 4 29 12t26 18t18 10q9 -1 21 -19q19 -29 59 -23q26 4 48 23.5t40 45t32.5 52.5t25.5 47q4 7 1.5 13t-8.5 9t-12.5 3t-9.5 -6
q-9 -16 -22.5 -40.5t-29 -47.5t-33 -40.5t-35.5 -18.5q-28 -2 -25 42q1 16 5 36.5t10 42.5q6 23 13 45.5t13.5 42t12 34.5t7.5 22q6 16 1 25.5t-14 12t-19 -1.5t-13 -16q-2 -9 -9 -11zM166 556l90 121q10 14 20.5 15.5t17.5 -4.5t8.5 -16.5t-6.5 -20.5l-93 -120
q-8 -11 -17 -12t-16 4t-9 14t5 19zM197 377q8 -20 3.5 -50.5t-14.5 -62.5q-12 -42 -35.5 -75t-48.5 -44q-17 -8 -28 -2t-16 18q-11 21 -7.5 56t14.5 71q11 33 26.5 61t32.5 41q29 21 51 11q15 -6 22 -24z" />
    <glyph glyph-name="acircumflex" unicode="&#xe2;" horiz-adv-x="345" 
d="M229 414q-8 -2 -16 9t-26 19q-17 8 -37.5 7t-41.5 -12q-30 -17 -55.5 -56t-39.5 -86q-13 -45 -13.5 -87t17.5 -71q14 -20 34 -30.5t46 -4.5q15 4 29 12t26 18t18 10q9 0 21 -18q10 -16 25 -21t34 -2q26 4 48 23t40 44.5t32.5 52.5t25.5 47q4 7 1.5 13.5t-8.5 9.5
t-12.5 2.5t-9.5 -6.5q-9 -16 -22.5 -40.5t-29 -47.5t-33 -40.5t-35.5 -18.5q-28 -2 -25 42q1 17 5 37t10 42q6 23 13 45.5t13.5 42t12 34.5t7.5 22q6 16 1 25.5t-14 12t-19 -1.5t-13 -16q-2 -9 -9 -11zM195 378q8 -20 3.5 -50.5t-14.5 -62.5q-12 -41 -35.5 -74.5
t-48.5 -44.5q-17 -8 -28 -2t-16 18q-11 21 -7.5 56t14.5 71q11 33 26.5 61.5t32.5 40.5q29 21 51 11q15 -6 22 -24zM194 595l-74 -64q-8 -9 -20 -6q-13 4 -16 16q-3 15 9 25l121 110q5 5 10.5 8.5t12.5 3.5q7 -1 11.5 -6t7.5 -11l60 -117q5 -13 -2 -23t-19 -10t-18 11
q-9 17 -16.5 30.5t-14.5 29.5q-9 19 -23 18t-29 -15z" />
    <glyph glyph-name="atilde" unicode="&#xe3;" horiz-adv-x="345" 
d="M229 412q-8 -2 -16 9.5t-26 19.5q-37 16 -79 -6q-30 -17 -55.5 -56t-39.5 -86q-13 -44 -13.5 -86.5t17.5 -71.5q14 -20 34 -30t46 -4q15 3 29 11t26 18t18 10q9 0 21 -18q10 -16 25 -21t34 -2q26 4 48 23t40 44.5t32.5 52.5t25.5 47q4 7 1.5 13.5t-8.5 9.5t-12.5 3
t-9.5 -6q-9 -16 -22.5 -40.5t-29 -47.5t-33 -40.5t-35.5 -18.5q-28 -2 -25 41q1 17 5 37.5t10 42.5t13 45t13.5 42.5t12 34t7.5 21.5q6 16 1 25.5t-14 12.5t-19 -1.5t-13 -16.5q-2 -9 -9 -11zM209 560q-17 11 -32 6q-17 -5 -28 -26q-3 -8 -10 -9.5t-13 1.5t-9.5 9.5
t-0.5 14.5q7 20 21.5 32.5t31.5 16.5q33 8 64 -15q16 -12 29 -19.5t27 -0.5q11 5 23 24q4 7 11 7.5t12.5 -2.5t8 -9.5t-0.5 -13.5q-15 -33 -43 -44q-15 -6 -27 -5t-22.5 6t-20.5 12t-21 15zM195 377q8 -20 3.5 -50.5t-14.5 -63.5q-12 -41 -35.5 -74.5t-48.5 -44.5
q-17 -7 -28 -1t-16 18q-11 20 -7.5 55.5t14.5 70.5q11 34 26.5 62t32.5 40q15 11 28 13.5t23 -1.5q15 -6 22 -24z" />
    <glyph glyph-name="adieresis" unicode="&#xe4;" horiz-adv-x="345" 
d="M229 414q-8 -2 -16 9.5t-26 19.5q-37 16 -79 -6q-30 -17 -55.5 -56t-39.5 -86q-13 -44 -13.5 -86.5t17.5 -70.5q14 -21 34 -31t46 -4q15 3 29 11t26 18t18 10q9 0 21 -18q10 -16 25 -21t34 -2q26 4 48 23.5t40 45t32.5 52t25.5 46.5q4 7 1.5 13.5t-8.5 9.5t-12.5 3
t-9.5 -6q-9 -16 -22.5 -40.5t-29 -47.5t-33 -40.5t-35.5 -18.5q-28 -2 -25 41q1 17 5 37.5t10 42.5q6 23 13 45.5t13.5 42t12 34t7.5 21.5q6 16 1 25.5t-14 12.5t-19 -1.5t-13 -16.5q-2 -9 -9 -11zM205 553q-14 -14 -28 -15t-24 6q-11 8 -13 25t13 35q14 16 31.5 16.5
t27.5 -10.5q11 -13 7.5 -29.5t-14.5 -27.5zM298 553q-14 -14 -28 -15.5t-23 6.5q-12 8 -14 25t13 35q14 16 31.5 16.5t27.5 -10.5q11 -13 7.5 -29.5t-14.5 -27.5zM195 379q8 -20 3.5 -50.5t-14.5 -63.5q-12 -41 -35.5 -74.5t-48.5 -44.5q-17 -7 -28 -1t-16 18
q-11 21 -7.5 56t14.5 71q11 33 26.5 61t32.5 40q15 11 28 13.5t23 -1.5q15 -6 22 -24z" />
    <glyph glyph-name="aring" unicode="&#xe5;" horiz-adv-x="345" 
d="M231 412q-8 -2 -16 9.5t-26 19.5q-17 7 -37.5 6t-41.5 -12q-30 -17 -55.5 -56t-39.5 -86q-13 -44 -13.5 -86.5t17.5 -71.5q14 -20 34 -30.5t46 -4.5q15 4 29 12t26 18t18 10q9 0 21 -18q10 -16 25 -21t34 -2q26 4 48 23t40 44.5t32.5 52.5t25.5 47q4 7 1.5 13.5t-8.5 9.5
t-12.5 2.5t-9.5 -6.5q-9 -16 -22.5 -40.5t-29 -47.5t-33 -40.5t-35.5 -18.5q-28 -2 -25 42q1 17 5 37t10 43q6 22 13 45t13.5 42.5t12 34t7.5 21.5q6 16 1 25.5t-14 12t-19 -1.5t-13 -16q-2 -9 -9 -11zM204 532q-17 12 -20 36t20 50q20 23 45 23.5t39 -16.5q17 -20 12 -43
t-22 -39q-15 -15 -35 -20t-39 9zM218 601q-11 -16 -9.5 -29t10.5 -21q10 -8 22.5 -4.5t21.5 13.5q10 11 13 24.5t-7 23.5q-9 10 -24 9.5t-27 -16.5zM197 376q8 -20 3.5 -50.5t-14.5 -62.5q-12 -41 -35.5 -74.5t-48.5 -44.5q-17 -8 -28 -2t-16 18q-11 21 -7.5 56.5t14.5 70.5
q11 34 26.5 62t32.5 40q15 11 28 13.5t23 -1.5q16 -7 22 -25z" />
    <glyph glyph-name="egrave" unicode="&#xe8;" horiz-adv-x="258" 
d="M214 557q7 -10 5 -19t-9 -14t-16 -4t-17 11l-93 120q-8 10 -6.5 20.5t8.5 16.5t17.5 4.5t20.5 -15.5zM17 144q-17 28 -16.5 69.5t14.5 84.5q10 29 25.5 56.5t35 48.5t43 34t48.5 13q44 1 63 -27.5t6 -68.5q-9 -28 -25.5 -49t-38.5 -36t-48 -24t-53 -14q-5 -1 -14.5 -8.5
t-9.5 -18.5q1 -11 2.5 -19t6.5 -16q9 -18 25 -25t35 -5q28 2 53 17.5t45.5 38t37 47.5t28.5 46q4 6 10.5 6.5t12 -2.5t8 -9.5t-1.5 -13.5q-15 -26 -34 -54.5t-42.5 -53t-52 -42t-62.5 -20.5q-29 -3 -56.5 8t-44.5 37zM68 305q-5 -12 -2 -21.5t20 -7.5q36 9 68.5 28.5
t43.5 58.5q5 17 -0.5 31.5t-27.5 12.5q-32 -4 -58.5 -33.5t-43.5 -68.5z" />
    <glyph glyph-name="eacute" unicode="&#xe9;" horiz-adv-x="263" 
d="M144 559l90 121q10 14 20.5 15.5t17.5 -4.5t8.5 -16.5t-6.5 -20.5l-93 -120q-8 -11 -17 -12t-16 4t-9 14t5 19zM17 144q17 -26 44.5 -37t56.5 -8q34 3 62.5 20.5t52 42t42.5 53t34 54.5q4 7 1.5 13.5t-8 9.5t-12 2.5t-10.5 -6.5q-12 -21 -28.5 -46t-37 -47.5t-45.5 -38
t-53 -17.5q-19 -2 -35 5t-25 25q-5 8 -6.5 16t-2.5 19q0 11 9.5 18.5t14.5 8.5q27 5 53 14t48 24t38.5 36t25.5 49q13 40 -6 68.5t-63 27.5q-25 0 -48.5 -13t-43 -34t-35 -48.5t-25.5 -56.5q-14 -43 -14.5 -84.5t16.5 -69.5zM68 305q17 39 43.5 68.5t58.5 33.5
q22 2 27.5 -12.5t0.5 -31.5q-11 -39 -43.5 -58.5t-68.5 -28.5q-17 -2 -20 7.5t2 21.5z" />
    <glyph glyph-name="ecircumflex" unicode="&#xea;" horiz-adv-x="263" 
d="M181 591l-74 -64q-8 -9 -20 -6q-13 4 -16 16q-3 15 9 25l121 110q5 5 10.5 8.5t12.5 3.5q7 -1 11.5 -6t7.5 -11l60 -117q5 -13 -2 -23t-19 -10t-18 11q-9 17 -16.5 30.5t-14.5 29.5q-9 19 -23 18t-29 -15zM17 144q17 -26 44.5 -37t56.5 -8q34 3 62.5 20.5t52 42t42.5 53
t34 54.5q4 7 1.5 13.5t-8 9.5t-12 2.5t-10.5 -6.5q-12 -21 -28.5 -46t-37 -47.5t-45.5 -38t-53 -17.5q-19 -2 -35 5t-25 25q-5 8 -6.5 16t-2.5 19q0 11 9.5 18.5t14.5 8.5q27 5 53 14t48 24t38.5 36t25.5 49q13 40 -6 68.5t-63 27.5q-25 0 -48.5 -13t-43 -34t-35 -48.5
t-25.5 -56.5q-14 -43 -14.5 -84.5t16.5 -69.5zM68 305q17 39 43.5 68.5t58.5 33.5q22 2 27.5 -12.5t0.5 -31.5q-11 -39 -43.5 -58.5t-68.5 -28.5q-17 -2 -20 7.5t2 21.5z" />
    <glyph glyph-name="edieresis" unicode="&#xeb;" horiz-adv-x="263" 
d="M168 554q-14 -14 -28 -15t-24 6q-11 8 -13 25t13 35q14 16 31.5 16.5t27.5 -10.5q11 -13 7.5 -29.5t-14.5 -27.5zM261 554q-14 -14 -28 -15.5t-23 6.5q-12 8 -14 25t13 35q14 16 31.5 16.5t27.5 -10.5q11 -13 7.5 -29.5t-14.5 -27.5zM17 144q17 -26 44.5 -37t56.5 -8
q34 3 62.5 20.5t52 42t42.5 53t34 54.5q4 7 1.5 13.5t-8 9.5t-12 2.5t-10.5 -6.5q-12 -21 -28.5 -46t-37 -47.5t-45.5 -38t-53 -17.5q-19 -2 -35 5t-25 25q-5 8 -6.5 16t-2.5 19q0 11 9.5 18.5t14.5 8.5q27 5 53 14t48 24t38.5 36t25.5 49q13 40 -6 68.5t-63 27.5
q-25 0 -48.5 -13t-43 -34t-35 -48.5t-25.5 -56.5q-14 -43 -14.5 -84.5t16.5 -69.5zM68 305q17 39 43.5 68.5t58.5 33.5q22 2 27.5 -12.5t0.5 -31.5q-11 -39 -43.5 -58.5t-68.5 -28.5q-17 -2 -20 7.5t2 21.5z" />
    <glyph glyph-name="igrave" unicode="&#xec;" horiz-adv-x="169" 
d="M72 104q-24 -5 -41.5 5.5t-25.5 33.5t-4.5 57.5t12.5 72.5q12 47 27 90t22 68q3 12 12.5 16.5t19 2t14.5 -12t-1 -25.5q-3 -7 -8.5 -22.5t-12 -35.5t-14 -43.5t-13.5 -45.5q-6 -23 -10 -43t-5 -37q-2 -44 26 -42q18 1 35 18.5t33 40.5t29.5 47.5t22.5 40.5q3 6 9.5 6.5
t12 -2.5t8 -9.5t-1.5 -13.5q-11 -20 -25.5 -47t-32.5 -52.5t-40 -44.5t-48 -23zM158 559q7 -10 5 -19t-9 -14t-16 -4t-17 11l-93 120q-8 10 -6.5 20.5t8.5 16.5t17.5 4.5t20.5 -15.5z" />
    <glyph glyph-name="iacute" unicode="&#xed;" horiz-adv-x="167" 
d="M72 104q26 4 48 23t40 44.5t32.5 52.5t25.5 47q4 7 1.5 13.5t-8 9.5t-12 2.5t-9.5 -6.5q-9 -16 -22.5 -40.5t-29.5 -47.5t-33 -40.5t-35 -18.5q-28 -2 -26 42q1 17 5 37t10 43q6 22 13.5 45.5t14 43.5t12 35.5t8.5 22.5q6 16 1 25.5t-14.5 12t-19 -2t-12.5 -16.5
q-7 -25 -22 -68t-27 -90q-9 -38 -12.5 -72.5t4.5 -57.5t25.5 -33.5t41.5 -5.5zM103 559l90 121q10 14 20.5 15.5t17.5 -4.5t8.5 -16.5t-6.5 -20.5l-93 -120q-8 -11 -17 -12t-16 4t-9 14t5 19z" />
    <glyph glyph-name="icircumflex" unicode="&#xee;" horiz-adv-x="167" 
d="M72 104q26 4 48 23t40 44.5t32.5 52.5t25.5 47q4 7 1.5 13.5t-8 9.5t-12 2.5t-9.5 -6.5q-9 -16 -22.5 -40.5t-29.5 -47.5t-33 -40.5t-35 -18.5q-28 -2 -26 42q1 17 5 37t10 43q6 22 13.5 45.5t14 43.5t12 35.5t8.5 22.5q6 16 1 25.5t-14.5 12t-19 -2t-12.5 -16.5
q-7 -25 -22 -68t-27 -90q-9 -38 -12.5 -72.5t4.5 -57.5t25.5 -33.5t41.5 -5.5zM92 586l-74 -64q-8 -9 -20 -6q-13 4 -16 16q-3 15 9 25l121 110q5 5 10.5 8.5t12.5 3.5q7 -1 11.5 -6t7.5 -11l60 -117q5 -13 -2 -23t-19 -10t-18 11q-9 17 -16.5 30.5t-14.5 29.5q-9 19 -23 18
t-29 -15z" />
    <glyph glyph-name="idieresis" unicode="&#xef;" horiz-adv-x="167" 
d="M72 104q26 4 48 23t40 44.5t32.5 52.5t25.5 47q4 7 1.5 13.5t-8 9.5t-12 2.5t-9.5 -6.5q-9 -16 -22.5 -40.5t-29.5 -47.5t-33 -40.5t-35 -18.5q-28 -2 -26 42q1 17 5 37t10 43q6 22 13.5 45.5t14 43.5t12 35.5t8.5 22.5q6 16 1 25.5t-14.5 12t-19 -2t-12.5 -16.5
q-7 -25 -22 -68t-27 -90q-9 -38 -12.5 -72.5t4.5 -57.5t25.5 -33.5t41.5 -5.5zM90 552q-14 -14 -28 -15t-24 6q-11 8 -13 25t13 35q14 16 31.5 16.5t27.5 -10.5q11 -13 7.5 -29.5t-14.5 -27.5zM183 552q-14 -14 -28 -15.5t-23 6.5q-12 8 -14 25t13 35q14 16 31.5 16.5
t27.5 -10.5q11 -13 7.5 -29.5t-14.5 -27.5z" />
    <glyph glyph-name="eth" unicode="&#xf0;" horiz-adv-x="365" 
d="M234 148q-48 -42 -97 -47t-83.5 19t-48.5 73t9 117q10 30 25.5 57.5t35.5 48.5t43 34t49 13q20 0 38.5 -8t28.5 -27q17 -36 -6 -84q-5 -11 -13.5 -15t-16 -2t-11.5 9.5t2 18.5t10 24t-1 26q-4 10 -12 13t-17 2q-17 -2 -33 -12.5t-30 -27t-25.5 -37.5t-19.5 -43
q-20 -55 -11.5 -92t34 -53t62 -9t72.5 41q29 27 46.5 67t23.5 84t-0.5 88t-25.5 80q-3 8 -8 6t-9 -5q-5 -5 -9.5 -10.5t-9.5 -10.5q-4 -5 -10.5 -6t-11.5 3q-6 4 -7 12t4 13q6 8 12 14t12 14q7 8 5.5 14.5t-5.5 11.5q-23 25 -48 45q-5 4 -7 11t1 13q3 5 9.5 9t12.5 2
q5 -1 14 -8q12 -9 22.5 -20t21.5 -22q4 -5 10.5 -7t14.5 6q10 13 22 25q7 9 18 5q8 -3 10.5 -12t-3.5 -15q-12 -15 -26 -29q-8 -9 -8 -15t6 -17q23 -43 30.5 -96.5t-0.5 -107t-31 -101.5t-60 -80z" />
    <glyph glyph-name="ntilde" unicode="&#xf1;" horiz-adv-x="325" 
d="M181 556q-17 11 -32 6q-17 -5 -28 -26q-3 -8 -10 -9.5t-13 1.5t-9.5 9.5t-0.5 14.5q7 20 21.5 32.5t31.5 16.5q33 8 64 -15q16 -12 29 -19.5t27 -0.5q11 5 23 24q4 7 11 7.5t12.5 -2.5t8 -9.5t-0.5 -13.5q-15 -33 -43 -44q-15 -6 -27 -5t-22.5 6t-20.5 12t-21 15zM59 430
q4 10 11.5 14.5t15 4.5t14 -4t9.5 -10q1 -2 5.5 -5.5t13.5 1.5q33 24 74 22q12 -1 24.5 -6t22 -15.5t13 -27.5t-2.5 -41q-6 -23 -13 -44t-14.5 -42t-14 -43.5t-10.5 -48.5q-5 -26 3.5 -33.5t23.5 -1.5q16 6 33.5 27t34.5 47q14 22 25 42t19 32q3 6 9.5 6t12 -3t8 -9.5
t-1.5 -13.5q-11 -18 -24 -42t-30 -47q-18 -26 -38 -48t-43 -31q-16 -6 -31.5 -5t-27.5 9.5t-18 25.5t-3 43q4 28 10.5 51.5t13.5 45t14.5 42.5t14.5 45q4 15 -3.5 23t-17.5 10q-24 4 -46 -12.5t-40 -41.5t-30.5 -52.5t-17.5 -46.5l-35 -123q-3 -12 -11.5 -16t-17.5 -2
t-15.5 8.5t-4.5 17.5z" />
    <glyph glyph-name="ograve" unicode="&#xf2;" 
d="M214 557q7 -10 5 -19t-9 -14t-16 -4t-17 11l-93 120q-8 10 -6.5 20.5t8.5 16.5t17.5 4.5t20.5 -15.5zM85 99q-41 3 -61.5 32.5t-23.5 71t9 88.5t35.5 86t56 62.5t70.5 19.5q33 -4 51.5 -25t25.5 -51.5t3 -67.5t-17 -73q-4 -12 -1 -24t14 -12q17 0 33 8q18 10 29.5 28
t22.5 37q4 5 6.5 10t5.5 10q3 6 9.5 6.5t12 -3t8 -9.5t-1.5 -13q-4 -9 -9 -17q-14 -27 -30 -49t-42 -35q-36 -18 -67 -12q-13 2 -21 -2.5t-18 -13.5q-21 -25 -46 -39.5t-54 -12.5zM175 255q11 -1 13.5 3t4.5 9q7 25 10 50.5t1 46t-10.5 34t-23.5 15.5q-24 4 -46.5 -14.5
t-39.5 -48t-27 -65.5t-10.5 -67t9.5 -52t34 -21q17 0 32.5 9.5t28.5 25.5q5 7 3 12l-4 10q-8 14 -8 26q1 8 5.5 16.5t13.5 10.5q6 2 14 0z" />
    <glyph glyph-name="oacute" unicode="&#xf3;" 
d="M144 559l90 121q10 14 20.5 15.5t17.5 -4.5t8.5 -16.5t-6.5 -20.5l-93 -120q-8 -11 -17 -12t-16 4t-9 14t5 19zM85 99q29 -2 54 12.5t46 39.5q10 9 18 13.5t21 2.5q31 -6 67 12q26 13 42 35t30 49q5 8 9 17q4 7 1.5 13t-8 9.5t-12 3t-9.5 -6.5q-3 -5 -5.5 -10t-6.5 -10
q-11 -19 -22.5 -37t-29.5 -28q-16 -8 -33 -8q-11 0 -14 12t1 24q13 36 17 73t-3 67.5t-25.5 51.5t-51.5 25q-38 4 -70.5 -19.5t-56 -62.5t-35.5 -86t-9 -88.5t23.5 -71t61.5 -32.5zM175 255q-8 2 -14 0q-9 -2 -13.5 -10.5t-5.5 -16.5q0 -12 8 -26l4 -10t-3 -12
q-13 -16 -28.5 -25.5t-32.5 -9.5q-24 0 -34 21t-9.5 52t10.5 67t27 65.5t39.5 48t46.5 14.5q15 -2 23.5 -15.5t10.5 -34t-1 -46t-10 -50.5q-2 -5 -4.5 -9t-13.5 -3z" />
    <glyph glyph-name="ocircumflex" unicode="&#xf4;" 
d="M172 588l-74 -64q-8 -9 -20 -6q-13 4 -16 16q-3 15 9 25l121 110q5 5 10.5 8.5t12.5 3.5q7 -1 11.5 -6t7.5 -11l60 -117q5 -13 -2 -23t-19 -10t-18 11q-9 17 -16.5 30.5t-14.5 29.5q-9 19 -23 18t-29 -15zM85 99q29 -2 54 12.5t46 39.5q10 9 18 13.5t21 2.5q31 -6 67 12
q26 13 42 35t30 49q5 8 9 17q4 7 1.5 13t-8 9.5t-12 3t-9.5 -6.5q-3 -5 -5.5 -10t-6.5 -10q-11 -19 -22.5 -37t-29.5 -28q-16 -8 -33 -8q-11 0 -14 12t1 24q13 36 17 73t-3 67.5t-25.5 51.5t-51.5 25q-38 4 -70.5 -19.5t-56 -62.5t-35.5 -86t-9 -88.5t23.5 -71t61.5 -32.5z
M175 255q-8 2 -14 0q-9 -2 -13.5 -10.5t-5.5 -16.5q0 -12 8 -26l4 -10t-3 -12q-13 -16 -28.5 -25.5t-32.5 -9.5q-24 0 -34 21t-9.5 52t10.5 67t27 65.5t39.5 48t46.5 14.5q15 -2 23.5 -15.5t10.5 -34t-1 -46t-10 -50.5q-2 -5 -4.5 -9t-13.5 -3z" />
    <glyph glyph-name="otilde" unicode="&#xf5;" 
d="M185 560q-17 11 -32 6q-17 -5 -28 -26q-3 -8 -10 -9.5t-13 1.5t-9.5 9.5t-0.5 14.5q7 20 21.5 32.5t31.5 16.5q33 8 64 -15q16 -12 29 -19.5t27 -0.5q11 5 23 24q4 7 11 7.5t12.5 -2.5t8 -9.5t-0.5 -13.5q-15 -33 -43 -44q-15 -6 -27 -5t-22.5 6t-20.5 12t-21 15zM85 99
q29 -2 54 12.5t46 39.5q10 9 18 13.5t21 2.5q31 -6 67 12q26 13 42 35t30 49q5 8 9 17q4 7 1.5 13t-8 9.5t-12 3t-9.5 -6.5q-3 -5 -5.5 -10t-6.5 -10q-11 -19 -22.5 -37t-29.5 -28q-16 -8 -33 -8q-11 0 -14 12t1 24q13 36 17 73t-3 67.5t-25.5 51.5t-51.5 25
q-38 4 -70.5 -19.5t-56 -62.5t-35.5 -86t-9 -88.5t23.5 -71t61.5 -32.5zM175 255q-8 2 -14 0q-9 -2 -13.5 -10.5t-5.5 -16.5q0 -12 8 -26l4 -10t-3 -12q-13 -16 -28.5 -25.5t-32.5 -9.5q-24 0 -34 21t-9.5 52t10.5 67t27 65.5t39.5 48t46.5 14.5q15 -2 23.5 -15.5t10.5 -34
t-1 -46t-10 -50.5q-2 -5 -4.5 -9t-13.5 -3z" />
    <glyph glyph-name="odieresis" unicode="&#xf6;" 
d="M178 551q-14 -14 -28 -15t-24 6q-11 8 -13 25t13 35q14 16 31.5 16.5t27.5 -10.5q11 -13 7.5 -29.5t-14.5 -27.5zM271 551q-14 -14 -28 -15.5t-23 6.5q-12 8 -14 25t13 35q14 16 31.5 16.5t27.5 -10.5q11 -13 7.5 -29.5t-14.5 -27.5zM85 99q29 -2 54 12.5t46 39.5
q10 9 18 13.5t21 2.5q31 -6 67 12q26 13 42 35t30 49q5 8 9 17q4 7 1.5 13t-8 9.5t-12 3t-9.5 -6.5q-3 -5 -5.5 -10t-6.5 -10q-11 -19 -22.5 -37t-29.5 -28q-16 -8 -33 -8q-11 0 -14 12t1 24q13 36 17 73t-3 67.5t-25.5 51.5t-51.5 25q-38 4 -70.5 -19.5t-56 -62.5
t-35.5 -86t-9 -88.5t23.5 -71t61.5 -32.5zM175 255q-8 2 -14 0q-9 -2 -13.5 -10.5t-5.5 -16.5q0 -12 8 -26l4 -10t-3 -12q-13 -16 -28.5 -25.5t-32.5 -9.5q-24 0 -34 21t-9.5 52t10.5 67t27 65.5t39.5 48t46.5 14.5q15 -2 23.5 -15.5t10.5 -34t-1 -46t-10 -50.5
q-2 -5 -4.5 -9t-13.5 -3z" />
    <glyph glyph-name="divide" unicode="&#xf7;" horiz-adv-x="387" 
d="M305 341q11 0 17 -6.5t6.5 -14.5t-5.5 -14.5t-18 -7.5h-143h-99q-12 0 -18 6.5t-6 14.5t5.5 15t16.5 7h103h141zM214 437q12 -2 20 -11t6 -21t-11 -20t-21 -6t-20 11t-6 21q1 12 10.5 20t21.5 6zM167 258q12 -2 20 -11t6 -21q-1 -13 -10.5 -20.5t-21.5 -6.5
q-12 2 -20 11.5t-6 21.5t11 20t21 6z" />
    <glyph glyph-name="ugrave" unicode="&#xf9;" horiz-adv-x="292" 
d="M214 557q7 -10 5 -19t-9 -14t-16 -4t-17 11l-93 120q-8 10 -6.5 20.5t8.5 16.5t17.5 4.5t20.5 -15.5zM72 102q-24 -4 -41.5 6t-25.5 33q-9 27 -4.5 66t16 80.5t24.5 80t21 63.5q3 12 13 16t19 1.5t14 -12t-1 -25.5q-9 -26 -19 -55t-19 -59t-15.5 -59.5t-7.5 -56.5
q-2 -22 4 -31t20 -8q9 0 19 8t20 20t17.5 26t12.5 26l70 207q4 13 12.5 17t16.5 2t13 -8.5t3 -14.5q-6 -19 -18.5 -54t-24.5 -72t-21.5 -70.5t-9.5 -49.5q0 -11 2.5 -19t7.5 -12q10 -6 26 3q20 13 36.5 37.5t27.5 42.5q11 17 19 32.5t15 26.5q3 6 9.5 6.5t12.5 -3t8.5 -9.5
t-1.5 -13q-8 -13 -16 -28t-18 -32q-14 -23 -29.5 -45t-33.5 -38q-8 -7 -16.5 -12.5t-16.5 -9.5q-29 -11 -48 2q-5 4 -7.5 7t-6.5 9q-8 13 -19 7t-22 -13q-9 -6 -18 -10t-20 -6z" />
    <glyph glyph-name="uacute" unicode="&#xfa;" horiz-adv-x="292" 
d="M154 559l90 121q10 14 20.5 15.5t17.5 -4.5t8.5 -16.5t-6.5 -20.5l-93 -120q-8 -11 -17 -12t-16 4t-9 14t5 19zM72 102q11 2 20 6t18 10q11 7 22 13t19 -7q4 -6 6.5 -9t7.5 -7q19 -13 48 -2q8 4 16.5 9.5t16.5 12.5q18 16 33.5 38t29.5 45q10 17 18 32t16 28q4 7 1.5 13
t-8.5 9.5t-12.5 3t-9.5 -6.5q-7 -11 -15 -26.5t-19 -32.5q-11 -18 -27.5 -42.5t-36.5 -37.5q-16 -9 -26 -3q-5 4 -7.5 12t-2.5 19q0 16 9.5 49.5t21.5 70.5t24.5 72t18.5 54q2 8 -3 14.5t-13 8.5t-16.5 -2t-12.5 -17l-70 -207q-5 -12 -12.5 -26t-17.5 -26t-20 -20t-19 -8
q-14 -1 -20 8t-4 31q1 27 7.5 56.5t15.5 59.5t19 59t19 55q6 16 1 25.5t-14 12t-19 -1.5t-13 -16q-8 -25 -21 -63.5t-24.5 -80t-16 -80.5t4.5 -66q8 -23 25.5 -33t41.5 -6z" />
    <glyph glyph-name="ucircumflex" unicode="&#xfb;" horiz-adv-x="292" 
d="M163 594l-74 -64q-8 -9 -20 -6q-13 4 -16 16q-3 15 9 25l121 110q5 5 10.5 8.5t12.5 3.5q7 -1 11.5 -6t7.5 -11l60 -117q5 -13 -2 -23t-19 -10t-18 11q-9 17 -16.5 30.5t-14.5 29.5q-9 19 -23 18t-29 -15zM72 102q11 2 20 6t18 10q11 7 22 13t19 -7q4 -6 6.5 -9t7.5 -7
q19 -13 48 -2q8 4 16.5 9.5t16.5 12.5q18 16 33.5 38t29.5 45q10 17 18 32t16 28q4 7 1.5 13t-8.5 9.5t-12.5 3t-9.5 -6.5q-7 -11 -15 -26.5t-19 -32.5q-11 -18 -27.5 -42.5t-36.5 -37.5q-16 -9 -26 -3q-5 4 -7.5 12t-2.5 19q0 16 9.5 49.5t21.5 70.5t24.5 72t18.5 54
q2 8 -3 14.5t-13 8.5t-16.5 -2t-12.5 -17l-70 -207q-5 -12 -12.5 -26t-17.5 -26t-20 -20t-19 -8q-14 -1 -20 8t-4 31q1 27 7.5 56.5t15.5 59.5t19 59t19 55q6 16 1 25.5t-14 12t-19 -1.5t-13 -16q-8 -25 -21 -63.5t-24.5 -80t-16 -80.5t4.5 -66q8 -23 25.5 -33t41.5 -6z" />
    <glyph glyph-name="udieresis" unicode="&#xfc;" horiz-adv-x="292" 
d="M168 554q-14 -14 -28 -15t-24 6q-11 8 -13 25t13 35q14 16 31.5 16.5t27.5 -10.5q11 -13 7.5 -29.5t-14.5 -27.5zM261 554q-14 -14 -28 -15.5t-23 6.5q-12 8 -14 25t13 35q14 16 31.5 16.5t27.5 -10.5q11 -13 7.5 -29.5t-14.5 -27.5zM72 102q11 2 20 6t18 10q11 7 22 13
t19 -7q4 -6 6.5 -9t7.5 -7q19 -13 48 -2q8 4 16.5 9.5t16.5 12.5q18 16 33.5 38t29.5 45q10 17 18 32t16 28q4 7 1.5 13t-8.5 9.5t-12.5 3t-9.5 -6.5q-7 -11 -15 -26.5t-19 -32.5q-11 -18 -27.5 -42.5t-36.5 -37.5q-16 -9 -26 -3q-5 4 -7.5 12t-2.5 19q0 16 9.5 49.5
t21.5 70.5t24.5 72t18.5 54q2 8 -3 14.5t-13 8.5t-16.5 -2t-12.5 -17l-70 -207q-5 -12 -12.5 -26t-17.5 -26t-20 -20t-19 -8q-14 -1 -20 8t-4 31q1 27 7.5 56.5t15.5 59.5t19 59t19 55q6 16 1 25.5t-14 12t-19 -1.5t-13 -16q-8 -25 -21 -63.5t-24.5 -80t-16 -80.5t4.5 -66
q8 -23 25.5 -33t41.5 -6z" />
    <glyph glyph-name="yacute" unicode="&#xfd;" horiz-adv-x="300" 
d="M251 558q7 -10 5 -19t-9 -14t-16 -4t-17 11l-93 120q-8 10 -6.5 20.5t8.5 16.5t17.5 4.5t20.5 -15.5zM122 118q-8 -5 -19.5 -11t-28.5 -8q-24 -4 -42 6t-26 32q-9 27 -4.5 66t16 81t25 80.5t21.5 63.5q3 12 12.5 16t18.5 1.5t14.5 -12t-0.5 -25.5q-9 -26 -19.5 -55
t-19.5 -59t-15.5 -59.5t-7.5 -56.5q-1 -41 24 -40q16 1 30.5 13.5t26.5 30t20.5 36.5t12.5 33l53 177q3 12 12.5 16.5t19 2t14.5 -12t-1 -25.5q-26 -74 -44 -142t-40 -140q-7 -25 14 -14q21 12 40.5 34.5t37.5 49.5t33 54t27 47q3 6 9.5 6.5t12.5 -2.5t8.5 -9.5t-1.5 -13.5
q-25 -49 -45 -82.5t-38 -57.5t-36.5 -40t-41.5 -30.5t-52.5 -29.5t-69.5 -36q-20 -11 -44.5 -29t-42.5 -38q-11 -11 -14 -23t0 -22t10.5 -16t18.5 -6q16 0 30.5 12.5t26.5 30.5t21.5 39t15.5 39q4 10 13 15.5t17.5 6t14 -3.5t2.5 -12q-9 -26 -20.5 -54.5t-27.5 -52.5
t-38 -40.5t-52 -18.5q-24 -2 -42 9.5t-26.5 30.5t-5.5 42.5t20 44.5q26 32 62.5 55.5t68.5 39.5q13 6 19.5 13t11.5 19z" />
    <glyph glyph-name="ydieresis" unicode="&#xff;" horiz-adv-x="300" 
d="M176 554q-14 -14 -28 -15t-24 6q-11 8 -13 25t13 35q14 16 31.5 16.5t27.5 -10.5q11 -13 7.5 -29.5t-14.5 -27.5zM269 554q-14 -14 -28 -15.5t-23 6.5q-12 8 -14 25t13 35q14 16 31.5 16.5t27.5 -10.5q11 -13 7.5 -29.5t-14.5 -27.5zM112 84q-5 -12 -11.5 -19t-19.5 -13
q-32 -16 -68.5 -39.5t-62.5 -55.5q-17 -21 -20 -44.5t5.5 -42.5t26.5 -30.5t42 -9.5q30 2 52 18.5t38 40.5t27.5 52.5t20.5 54.5q3 8 -2.5 12t-14 3.5t-17.5 -6t-13 -15.5q-6 -18 -15.5 -39t-21.5 -39t-26.5 -30.5t-30.5 -12.5q-11 0 -18.5 6t-10.5 16t0 22t14 23
q18 20 42.5 38t44.5 29q40 21 69.5 36t52.5 29.5t41.5 30.5t36.5 40t38 57.5t45 82.5q4 7 1.5 13.5t-8.5 9.5t-12.5 2.5t-9.5 -6.5q-12 -20 -27 -47t-33 -54t-37.5 -49.5t-40.5 -34.5q-21 -11 -14 14q22 72 40 140t44 142q6 16 1 25.5t-14.5 12t-19 -2t-12.5 -16.5l-53 -177
q-4 -14 -12.5 -33t-20.5 -36.5t-26.5 -30t-30.5 -13.5q-25 -1 -24 40q1 27 7.5 56.5t15.5 59.5t19.5 59t19.5 55q6 16 0.5 25.5t-14.5 12t-18.5 -1.5t-12.5 -16q-8 -25 -21.5 -63.5t-25 -80.5t-16 -81t4.5 -66q8 -22 26 -32t42 -6q17 2 28.5 8t19.5 11z" />
    <glyph glyph-name="Scaron" unicode="&#x160;" horiz-adv-x="592" 
d="M563 932l135 104q9 7 21 4q12 -5 15 -17q2 -8 -1.5 -13.5t-8.5 -10.5h-1l-149 -117q-5 -5 -11 -8.5t-13 -2.5q-8 2 -12 7t-6 11l-55 129q-4 11 4 23q8 10 19 8q11 0 18 -12q12 -26 23 -52.5t22 -52.5zM650 676q-12 -46 -45.5 -77t-75.5 -51q-25 -11 -53 -21
q-15 -5 -20.5 -19t-2.5 -28q0 -2 2 -6q18 -51 33 -108.5t12 -106.5q-3 -50 -24 -96t-56 -81q-37 -38 -83.5 -56.5t-94.5 -19.5t-93.5 15t-79.5 47t-53.5 75.5t-15.5 101.5q3 42 19.5 80t45.5 65.5t69 40.5t89 4q35 -6 61.5 -23t42 -41t18 -54t-10.5 -63q-5 -11 -14 -13.5
t-17.5 1t-13 11t-1.5 16.5q8 19 6 38.5t-11.5 35.5t-26 27.5t-36.5 15.5q-35 7 -64.5 -3t-51.5 -31.5t-34.5 -51.5t-14.5 -62q-3 -46 13.5 -80.5t44.5 -57t65 -33t75 -7.5t74.5 19.5t63.5 48.5q23 26 37 58.5t18 68.5q6 54 -10.5 109t-34.5 108q-5 16 -21 25t-32 10
q-12 0 -23.5 1t-22.5 3q-90 16 -139.5 75.5t-44.5 150.5q1 14 9.5 20t18 5.5t16.5 -7t6 -17.5q-4 -35 5.5 -65.5t28.5 -54.5t46.5 -40t60.5 -22q50 -8 103 2.5t97 30.5q33 17 59.5 40.5t34.5 55.5q5 21 1.5 37.5t-13.5 28t-24.5 17.5t-30.5 7q-27 1 -46.5 -8t-33.5 -25
t-22.5 -36.5t-11.5 -43.5q-2 -17 -0.5 -29t3.5 -29q2 -10 -4 -16.5t-14 -8.5q-11 -3 -21.5 1.5t-11.5 16.5q-3 20 -5 33.5t0 32.5q4 32 16 61t32.5 50.5t50 34.5t67.5 13q28 0 52.5 -9.5t41.5 -28t23.5 -46t-2.5 -62.5z" />
    <glyph glyph-name="scaron" unicode="&#x161;" horiz-adv-x="245" 
d="M177 577l95 84q8 8 18 5q11 -4 14 -14q3 -11 -8 -22l-106 -97q-5 -4 -10 -7.5t-11 -2.5q-6 0 -10 4.5t-7 9.5l-53 104q-4 10 2 20q6 9 17 9q9 0 16 -10q12 -22 21.5 -41t21.5 -42zM10 263l114 213q4 8 12.5 10t16.5 -1.5t12.5 -12t1.5 -20.5q-5 -19 -7.5 -35t-3.5 -32
q-2 -26 3 -50.5t10.5 -49t8 -48t-3.5 -47.5q-2 -5 1.5 -10t11.5 1q20 19 35 41t29 46q5 8 9 15.5t8 13.5q3 6 9.5 6t12 -3t8 -9t-1.5 -13l-12 -24q-12 -22 -27.5 -44.5t-34 -42t-40 -35.5t-45.5 -25q-18 -7 -39 -8.5t-40.5 2.5t-34.5 14t-22 26q-4 9 -1.5 17t8.5 11.5
t13.5 3t14.5 -7.5q18 -23 41.5 -21t39.5 22q13 17 15 37t-1.5 42t-10 44t-10.5 44q-1 8 -9 8t-12 -7l-47 -85q-5 -9 -12 -10.5t-12.5 1.5t-8.5 9.5t1 13.5z" />
    <glyph glyph-name="Ydieresis" unicode="&#x178;" horiz-adv-x="710" 
d="M526 824q-15 -15 -29.5 -16.5t-25.5 6.5q-13 9 -15 27t15 38q15 17 33.5 17.5t29.5 -11.5q12 -14 7.5 -32t-15.5 -29zM626 823q-15 -14 -29.5 -15.5t-25.5 6.5q-13 9 -15 27t15 37q14 17 33 18t30 -12q11 -14 7 -31.5t-15 -29.5zM652 516q4 18 -4.5 31.5t-22.5 15.5
t-29 -9t-23 -41q-7 -23 -11 -47t-9 -47q-10 -46 -29 -83t-44.5 -64.5t-55.5 -44t-62 -22.5q-36 -6 -55.5 9.5t-18.5 53.5q1 44 14.5 87.5t27.5 87.5t22.5 89.5t-1.5 92.5q-8 40 -24.5 68.5t-38 46.5t-47 26t-51.5 8q-33 0 -65 -13t-58 -36.5t-43.5 -56t-20.5 -71.5
q-3 -30 4.5 -64t24.5 -59q15 -23 39 -39q8 -5 17.5 -5t16.5 8q6 7 6 17t-8 16q-8 5 -13.5 11t-11.5 13q-17 23 -22.5 51t-0.5 57q6 29 19 51.5t31 38.5t39.5 24t42.5 8q39 0 71.5 -28.5t40.5 -89.5q6 -42 -5 -87.5t-26 -90.5t-27 -88t-9 -81q4 -57 38.5 -84.5t88.5 -19.5
q31 5 60.5 18t53.5 30q8 5 13 1t3 -9q-5 -14 -9 -27.5t-9 -27.5q-3 -9 -16 -21.5t-41 -16.5q-29 -3 -59 -13t-56.5 -25.5t-46.5 -37.5t-29 -49q-8 -24 -6.5 -48t13 -41.5t32.5 -27t51 -5.5q29 3 54 19.5t45.5 40t37 51.5t27.5 55q3 9 -3 15.5t-15 8.5t-18.5 -2t-13.5 -17
q-9 -22 -22 -43.5t-29.5 -39t-36 -29.5t-41.5 -14q-12 -2 -20 3t-11.5 13.5t-4 19.5t2.5 21q6 21 23 39t39.5 31.5t48 22t48.5 9.5q51 3 96.5 -20t77.5 -62q7 -7 15 -7.5t14 4t8 13t-4 19.5q-8 18 -31.5 37.5t-48.5 33.5q-17 9 -26.5 22t-1.5 34q22 67 45 142.5t46 141.5
q9 25 21 48.5t17 49.5z" />
    <glyph glyph-name="Zcaron" unicode="&#x17d;" horiz-adv-x="563" 
d="M501 944l135 104q9 7 21 4q12 -5 15 -17q2 -8 -1.5 -13.5t-8.5 -10.5h-1l-149 -117q-5 -5 -11 -8.5t-13 -2.5q-8 2 -12 7t-6 11l-55 129q-4 11 4 23q8 10 19 8q11 0 18 -12q12 -26 23 -52.5t22 -52.5zM684 -48q-33 -29 -73.5 -44t-85.5 -7q-36 6 -72.5 24.5t-73 45
t-73 58.5t-70.5 65q-11 10 -26 22.5t-32 24t-35.5 19.5t-35.5 8q-24 1 -36.5 -10t-14.5 -26q-5 -29 10.5 -44.5t39.5 -14.5q24 0 49 17q13 11 26 9t20 -10t6 -20t-14 -21q-19 -14 -40.5 -20.5t-41.5 -7.5q-24 0 -46.5 8t-38 23.5t-23.5 37.5t-4 49q4 28 18 46.5t34 28.5
t44.5 10.5t49.5 -6.5q24 -6 41.5 -10.5t32.5 -2.5t29 14t31 39l258 426q13 21 11 35t-12.5 24t-26.5 15.5t-31 10.5q-32 8 -67 14t-67 3q-36 -3 -63 -23t-37 -68q-7 -33 4.5 -63t44.5 -41q16 -5 34.5 -4t37.5 9q11 4 19.5 -1.5t12 -15.5t0 -20t-15.5 -15q-48 -17 -94 -8
q-30 7 -51 23.5t-33.5 38.5t-16.5 48t0 52q4 27 16 52t31.5 44.5t45.5 31.5t59 13q41 1 75.5 -4t66.5 -11.5t64.5 -12.5t70.5 -6q13 0 23.5 2t20.5 4.5t19.5 5.5t20.5 6q15 3 24.5 -5.5t12 -20.5t-2.5 -24.5t-19 -16.5q-31 -10 -57 -24t-49 -50l-279 -455q-9 -15 -16.5 -30
t-10.5 -30t0.5 -30t15.5 -30q15 -18 39.5 -41t54 -44.5t61.5 -39t62 -24.5q32 -8 59.5 3.5t50.5 32.5q11 11 22.5 10t19 -9.5t8 -20t-10.5 -21.5z" />
    <glyph glyph-name="zcaron" unicode="&#x17e;" 
d="M224 590l73 65q10 8 20 5q13 -3 16 -15q4 -14 -8 -26l-121 -109q-5 -5 -10.5 -9t-12.5 -3q-8 1 -12 6t-7 10l-60 118q-6 11 2 23q7 10 18 10q12 0 19 -12q9 -17 16 -30t15 -29q9 -19 23 -18t29 14zM177 148q5 -7 8.5 -14l6.5 -13q20 16 42 37.5t42.5 45.5t37.5 48.5
t28 45.5q3 6 10 6.5t12.5 -2.5t8.5 -9.5t-1 -13.5q-12 -26 -34.5 -57t-50.5 -62t-60 -58.5t-63 -47.5q-19 -14 -46 -30t-51 -35.5t-39.5 -41.5t-11.5 -46q3 -24 31 -24q16 0 35.5 15t36.5 37.5t29 48.5t15 48q2 10 10.5 17.5t16.5 10t14 -1t4 -15.5q-6 -32 -20.5 -66.5
t-35.5 -63t-47.5 -48t-55.5 -21.5q-33 -2 -51 14.5t-23 41.5q-6 36 11 64.5t45.5 51.5t61 42t58.5 37q-8 34 -42 45q-16 4 -53 -17q-8 -5 -15.5 -2.5t-12 9t-5 14.5t6.5 13q17 11 28.5 17.5t28.5 17.5q23 15 52.5 39.5t48.5 53.5q9 14 17.5 34t10 38.5t-7 33t-31.5 18.5
q-24 4 -44.5 -10.5t-38 -37t-31.5 -48.5t-25 -45q-4 -8 -10.5 -9.5t-12.5 1t-9.5 8t-1.5 10.5q13 28 31 61t40 60.5t49 44t59 12.5q37 -6 55.5 -26.5t21.5 -48.5t-6 -59t-26 -57q-10 -14 -21.5 -29.5t-23.5 -27.5q-19 -19 -18 -30t12 -24z" />
    <glyph glyph-name="florin" unicode="&#x192;" horiz-adv-x="528" 
d="M267 204q-8 -28 -23 -51.5t-37 -39.5q-38 -28 -84.5 -25.5t-82.5 40.5q-7 9 -5.5 18t8 15.5t15 8t14.5 -4.5q13 -10 26.5 -17t27.5 -9t28 2.5t29 17.5q11 10 19.5 22t11.5 23l104 365q4 14 -3.5 18t-15.5 4h-58q-12 0 -18 6.5t-6 15t5.5 15.5t16.5 7h22.5h14.5h12h16
q17 0 28.5 11t14.5 22l5 19q8 27 23 51t37 40q19 13 40.5 19.5t43.5 5t43.5 -11.5t39.5 -29q6 -7 5 -15.5t-6.5 -15t-13.5 -9t-16 3.5q-26 20 -54.5 26t-57.5 -20q-11 -11 -19.5 -23t-11.5 -23q-2 -5 -3 -9.5t-3 -9.5q-3 -12 -1 -22t19 -10q14 -1 27.5 -1h27.5q11 0 17 -6
t6.5 -14t-5.5 -15t-18 -8h-65q-10 0 -21 -5t-16 -21z" />
    <glyph glyph-name="circumflex" unicode="&#x2c6;" horiz-adv-x="364" 
d="M172 588l-74 -64q-8 -9 -20 -6q-13 4 -16 16q-3 15 9 25l121 110q5 5 10.5 8.5t12.5 3.5q7 -1 11.5 -6t7.5 -11l60 -117q5 -13 -2 -23t-19 -10t-18 11q-9 17 -16.5 30.5t-14.5 29.5q-9 19 -23 18t-29 -15z" />
    <glyph glyph-name="caron" unicode="&#x2c7;" horiz-adv-x="381" 
d="M225 448l61 74q6 10 19 8q6 -2 11.5 -5.5t7.5 -9.5q4 -13 -6 -25l-93 -111q-9 -11 -22 -11.5t-25 12.5l-107 115q-6 12 0 23q6 10 17 12q12 2 19 -10l70 -73q14 -15 24 -14t24 15z" />
    <glyph glyph-name="breve" unicode="&#x2d8;" horiz-adv-x="306" 
d="M100 402q-35 14 -47.5 45.5t-4.5 66.5q3 10 11 13t16 2t13.5 -5.5t3.5 -9.5q-7 -20 -2.5 -41t26.5 -32q5 -2 11.5 -3.5t14.5 0.5q12 1 24 8.5t21.5 18.5t16 24t8.5 25q1 7 7.5 9.5t14 2t13.5 -3.5t6 -8q-3 -21 -13 -40.5t-24.5 -35.5t-33 -27t-39.5 -14t-43 5z" />
    <glyph glyph-name="ring" unicode="&#x2da;" horiz-adv-x="293" 
d="M138 575q-38 3 -58 29t-23 59q-3 38 15.5 73t53.5 53q20 11 42 12t40 -10t28.5 -27t14.5 -34.5t2 -38t-8 -37.5q-6 -17 -17 -32t-24.5 -26t-30.5 -17t-35 -4zM142 616q17 -2 35 9.5t31 40.5q9 22 6.5 47.5t-26.5 38.5q-18 10 -43 1q-25 -10 -37 -37t-8 -52q3 -17 13 -31
t29 -17z" />
    <glyph glyph-name="tilde" unicode="&#x2dc;" horiz-adv-x="395" 
d="M135 539q-11 -2 -19 -9.5t-15 -18.5q-5 -8 -13.5 -9.5t-15.5 1.5t-11 9.5t-1 15.5q9 22 26.5 34.5t38.5 17.5q27 5 47.5 -2.5t37.5 -17.5t31.5 -17t30.5 0q13 6 28 25q6 9 14 9.5t15 -3t10 -11t-1 -14.5q-18 -34 -52 -45q-28 -10 -48.5 -4t-37 16t-32 18.5t-33.5 4.5z
" />
    <glyph glyph-name="hungarumlaut" unicode="&#x2dd;" horiz-adv-x="208" 
d="M144 427q-4 -13 -16 -10l-6 3q-7 7 -2 16q5 14 11 26.5t11 26.5l4 8t4 7q4 5 10 5.5t10 -4.5q3 -4 3 -8.5t-2 -9.5zM122 508q6 -6 2 -17q-7 -15 -13.5 -30t-13.5 -31q-1 -6 -8 -9h-1q-10 -4 -15 5q-4 5 0 15q6 14 12.5 29t12.5 29q2 2 3 4.5t3 4.5q3 4 8.5 4t9.5 -4z" />
    <glyph glyph-name="endash" unicode="&#x2013;" horiz-adv-x="452" 
d="M374 343q11 0 17.5 -6.5t6.5 -14.5t-5.5 -14.5t-18.5 -7.5l-102 -1l-219 -1q-12 0 -18 6.5t-6 14.5t5.5 15t16.5 7h48.5t63.5 0.5t63.5 0.5h48.5h29t20.5 0.5t20.5 0.5h29z" />
    <glyph glyph-name="emdash" unicode="&#x2014;" horiz-adv-x="499" 
d="M420 345q11 0 17.5 -6.5t6.5 -14.5t-5.5 -14.5t-18.5 -7.5l-102 -1l-265 -3q-12 0 -18 6.5t-6 14.5t5.5 15t16.5 7q18 0 55.5 0.5t79 1t79.5 1t56 0.5h29t20.5 0.5t20.5 0.5h29z" />
    <glyph glyph-name="quoteleft" unicode="&#x2018;" horiz-adv-x="259" 
d="M160 427q-11 1 -18 8.5t-8 18.5q-1 13 5 22.5t15 17t20 12.5t22 8q5 0 2 -3q-15 -12 -18 -21q-2 -6 0 -9.5t4 -5.5q9 -11 8 -22q-1 -12 -10.5 -20t-21.5 -6z" />
    <glyph glyph-name="quoteright" unicode="&#x2019;" horiz-adv-x="225" 
d="M139 502q11 -2 18.5 -9.5t8.5 -18.5q0 -12 -5.5 -22t-14.5 -17t-20.5 -12t-22.5 -8q-2 -1 -2.5 0t0.5 2q15 12 19 21q2 6 -0.5 9.5t-4.5 6.5q-9 11 -8 22q2 12 11 19.5t21 6.5z" />
    <glyph glyph-name="quotesinglbase" unicode="&#x201a;" horiz-adv-x="176" 
d="M116 161q11 -1 18.5 -8.5t7.5 -18.5q1 -13 -5 -22.5t-15 -17t-20.5 -12.5t-21.5 -8q-5 0 -2 3q15 12 19 21q2 6 -0.5 9.5t-4.5 5.5q-9 11 -8 22q2 12 11 20t21 6z" />
    <glyph glyph-name="quotedblleft" unicode="&#x201c;" horiz-adv-x="333" 
d="M233 427q-11 1 -18 8.5t-8 18.5q-1 13 5 22.5t15 17t20.5 12.5t22.5 8q2 0 2.5 -1t-1.5 -2q-15 -12 -18 -21q-2 -5 0 -9t4 -6q10 -10 9 -22q-2 -12 -11 -20t-22 -6zM160 427q-11 1 -18 8.5t-8 18.5q-1 13 5 22.5t15 17t20 12.5t22 8q5 0 2 -3q-15 -12 -18 -21
q-2 -6 0 -9.5t4 -5.5q9 -11 8 -22q-1 -12 -10.5 -20t-21.5 -6z" />
    <glyph glyph-name="quotedblright" unicode="&#x201d;" horiz-adv-x="299" 
d="M139 502q11 -2 18.5 -9.5t8.5 -18.5q0 -12 -5.5 -22t-14.5 -17t-20.5 -12t-22.5 -8q-2 -1 -2.5 0t0.5 2q15 12 19 21q2 6 -0.5 9.5t-4.5 6.5q-9 11 -8 22q2 12 11 19.5t21 6.5zM213 502q11 -2 18 -9.5t8 -18.5q1 -12 -5 -22t-15 -17t-20.5 -12t-21.5 -8q-2 -1 -3 0t1 2
q15 12 18 21q2 6 0 9.5t-4 6.5q-9 11 -8 22q1 12 10.5 19.5t21.5 6.5z" />
    <glyph glyph-name="quotedblbase" unicode="&#x201e;" horiz-adv-x="256" 
d="M116 161q11 -1 18.5 -8.5t7.5 -18.5q1 -13 -5 -22.5t-15 -17t-20.5 -12.5t-21.5 -8q-5 0 -2 3q15 12 19 21q2 6 -0.5 9.5t-4.5 5.5q-9 11 -8 22q2 12 11 20t21 6zM192 160q11 -1 18.5 -8.5t7.5 -18.5q1 -13 -5 -22.5t-15 -17t-20.5 -12.5t-21.5 -8q-5 0 -2 3q15 12 19 21
q2 6 -0.5 9.5t-4.5 5.5q-9 11 -8 22q2 12 11 20t21 6z" />
    <glyph glyph-name="bullet" unicode="&#x2022;" horiz-adv-x="225" 
d="M75 253q-17 6 -22.5 20.5t-2.5 30.5q3 18 16.5 31.5t31.5 17.5q24 5 39 -10q14 -14 11.5 -33.5t-13.5 -34.5q-10 -14 -26.5 -21.5t-33.5 -0.5z" />
    <glyph glyph-name="ellipsis" unicode="&#x2026;" horiz-adv-x="358" 
d="M108 158q12 -1 20 -10.5t6 -21.5t-11 -20t-21 -6t-20 11t-6 21q1 12 10.5 20t21.5 6zM199 157q12 -1 20 -10.5t6 -21.5t-11 -20t-21 -6t-20 11t-6 21q1 12 10.5 20t21.5 6zM288 159q12 -1 20 -10.5t6 -21.5t-11 -20t-21 -6t-20 11t-6 21q1 12 10.5 20t21.5 6z" />
    <glyph glyph-name="perthousand" unicode="&#x2030;" horiz-adv-x="939" 
d="M433 732q-18 -68 -36 -134.5t-36 -134.5q-8 -30 -21 -76.5t-26.5 -96t-26.5 -96t-21 -77.5q-2 -11 -10 -14.5t-15.5 -2t-13 8t-2.5 16.5q8 30 20.5 76.5t26 95.5t26.5 95.5t21 76.5q18 68 36.5 135.5t36.5 136.5q3 12 11 16.5t16 2t13 -10t1 -17.5zM138 375q-37 3 -56 31
t-24 61q-5 28 -3.5 56.5t6.5 55.5q6 25 15.5 49t23.5 46q17 27 43 45.5t60 15.5q35 -3 52 -30t22 -58q2 -15 2.5 -30t-0.5 -29t-2.5 -27t-4.5 -26q-5 -28 -15.5 -55.5t-25.5 -50.5q-17 -25 -39 -41t-54 -13zM203 453q12 20 20 43t13 46t6.5 47t-1.5 47q-1 9 -3.5 19.5
t-7.5 19.5t-13 15t-19 7q-22 2 -39 -12.5t-28 -31.5q-12 -19 -19.5 -40t-12.5 -43q-11 -47 -5 -93q2 -10 5.5 -21t9 -20t13.5 -15.5t20 -7.5q21 -3 35.5 10t25.5 30zM468 145q-37 3 -56 31t-24 61q-5 27 -3.5 56t6.5 55q6 26 15.5 50t23.5 45q17 27 43 45.5t60 16.5
q18 -2 30.5 -10t21.5 -20.5t14 -28t8 -30.5q2 -14 2.5 -29t-0.5 -30q-1 -14 -2.5 -26.5t-4.5 -26.5q-5 -27 -15.5 -54.5t-25.5 -51.5q-17 -25 -39 -40.5t-54 -12.5zM533 223q12 20 20 42.5t13 45.5t6.5 47t-1.5 47q-1 9 -3.5 19.5t-7.5 19.5t-13 15.5t-19 7.5
q-22 2 -39 -12.5t-28 -31.5q-12 -19 -19.5 -40.5t-12.5 -42.5q-11 -47 -5 -94q4 -20 14.5 -40.5t33.5 -23.5q21 -2 35.5 11t25.5 30zM730 139q-19 1 -33 9.5t-23.5 21.5t-15.5 28.5t-9 32.5q-5 27 -3.5 56t7.5 55q11 53 38 95q18 27 44 45.5t60 16.5q18 -2 30.5 -10
t21.5 -20.5t14 -28t7 -30.5q5 -29 3 -59q-1 -14 -3 -26.5t-4 -26.5q-6 -27 -16 -54.5t-26 -51.5q-16 -25 -38.5 -40.5t-53.5 -12.5zM794 217q12 20 20 42.5t13 45.5t7 47t-1 47q-1 9 -3.5 19.5t-7.5 19.5t-13 15.5t-19 7.5q-23 2 -39.5 -12.5t-27.5 -31.5q-12 -19 -20 -40
t-13 -43q-5 -23 -6.5 -47t2.5 -47q3 -20 13.5 -40.5t33.5 -23.5q22 -2 36.5 11t24.5 30z" />
    <glyph glyph-name="guilsinglleft" unicode="&#x2039;" horiz-adv-x="287" 
d="M149 286l69 -57q9 -7 7 -18q-1 -6 -4.5 -11t-8.5 -7q-12 -5 -24 5l-106 87q-9 8 -9.5 20t11.5 24l109 101q11 6 22 0q9 -5 11 -16q0 -12 -9 -18l-70 -66q-14 -13 -13 -22t15 -22z" />
    <glyph glyph-name="guilsinglright" unicode="&#x203a;" horiz-adv-x="286" 
d="M148 285q14 13 14.5 22t-13.5 22l-69 66q-9 6 -9 18q2 11 11 16q11 6 22 0l109 -101q12 -12 11.5 -24t-9.5 -20l-106 -87q-12 -10 -24 -5q-5 2 -8.5 7t-4.5 11q-3 9 6 18l70 57v0z" />
    <glyph glyph-name="fraction" unicode="&#x2044;" horiz-adv-x="268" 
d="M304 732q-18 -68 -36 -134.5t-36 -134.5q-8 -30 -21 -76.5t-26.5 -96t-26.5 -96t-21 -76.5q-3 -11 -10.5 -15t-15.5 -2.5t-13.5 8.5t-2.5 17q8 30 21 76t26.5 95t26.5 95.5t21 76.5q18 69 36.5 136t35.5 136q3 13 11.5 17t16.5 1.5t13 -10t1 -17.5z" />
    <glyph glyph-name="Euro" unicode="&#x20ac;" horiz-adv-x="723" 
d="M635 567q-3 -11 -12.5 -16t-19.5 -1q-11 3 -16 12.5t0 19.5q4 13 8 28.5t6 31t0 31t-10 27.5t-18.5 17t-22 6t-23.5 -1t-24 -5q-32 -11 -60.5 -31t-53.5 -45.5t-46 -54.5t-37 -59q-2 -4 -3.5 -9.5t-1 -10t5 -7.5t14.5 -3l88 -3q11 -1 18 -8t6 -18q0 -10 -7 -16.5
t-18 -6.5l-110 3q-9 -1 -19 -6t-15 -16q-1 -2 -1.5 -5t-1.5 -5q-6 -16 1.5 -17t15.5 -2l85 -3q13 -1 18 -9t3.5 -17.5t-9 -16.5t-20.5 -5l-86 2q-11 -1 -18 -7t-8 -18q-2 -26 -1 -53t8.5 -50t23 -40.5t44.5 -24.5q21 -6 42 -4t41.5 9t39.5 18t35 23q29 21 46 41t38 47
q7 10 17.5 10.5t18 -5t9.5 -15.5t-7 -22q-40 -59 -100 -102q-40 -29 -91 -46t-101 -6q-36 9 -60 30.5t-38 51t-19 63.5t-3 68q1 19 -4 21t-23 2l-76 1q-11 -1 -16.5 6.5t-6 16.5t4.5 17t16 8l94 2q21 0 26 19q1 2 1 5t2 7q4 17 -3 19.5t-23 3.5l-69 3q-11 -2 -18 4.5
t-8.5 15.5t3.5 17.5t17 11.5l99 -1q14 0 25.5 9.5t19.5 24.5q18 37 42 72.5t53.5 66.5t63.5 55t72 38q18 7 38 10.5t39.5 1.5t37 -10t31.5 -23q15 -18 21 -39.5t6 -44.5t-4.5 -46t-11.5 -43z" />
    <glyph glyph-name="trademark" unicode="&#x2122;" horiz-adv-x="442" 
d="M129 524v56q0 8 -4.5 10.5t-10.5 2.5h-15q-8 0 -12 5.5t-4 11.5t4 11.5t12 5.5h91q8 0 12.5 -5.5t4.5 -11.5t-4 -11.5t-12 -5.5h-19q-12 0 -12 -13v-54v-106q0 -8 -5 -12t-10.5 -4t-10.5 4.5t-5 12.5v103zM230 526v86q0 7 3.5 11t8.5 5t10 -1.5t8 -9.5l32 -78
q5 -11 9.5 -11.5t9.5 12.5l31 76q6 14 17 12t13 -13q0 -1 0.5 -1.5t0.5 -1.5v-86v-105q0 -8 -5 -12t-10.5 -4t-10.5 4t-5 12v89q1 8 -3 7.5t-6 -4.5q-5 -11 -8.5 -19.5t-8.5 -19.5t-15 -11.5t-15 10.5l-16 40q-3 6 -6.5 3.5t-2.5 -5.5v-90q0 -8 -5 -12t-10.5 -4t-10.5 4
t-5 12v105z" />
    <glyph glyph-name="A.swsh" horiz-adv-x="836" 
d="M652 -7q-21 33 -28 60t-6.5 52.5t4.5 50.5t5 53t-5.5 61t-26.5 74q-14 29 -33.5 65t-44.5 68t-54.5 54.5t-64.5 25.5q-18 2 -36 -3.5t-33 -17t-24.5 -28t-11.5 -36.5q-2 -13 -11 -17.5t-19 -2.5t-16.5 10t-4.5 22q4 31 18.5 55.5t36 40.5t49 23t57.5 4q32 -3 58.5 -14.5
t50.5 -31.5q37 -28 67 17l75 112l80 126q11 14 24 27t30 21q11 5 23.5 5.5t23.5 -4.5q15 -8 20 -28q4 -13 3.5 -26.5t-3.5 -26.5l-61 -212l-98 -334q-8 -29 -15.5 -58t-9 -58t6 -57t28.5 -54q29 -35 78 -51t108.5 -18.5t125.5 4.5t128 18.5t116 23t90 17.5q66 11 130.5 10.5
t127.5 -22.5q41 -14 74.5 -42t48.5 -70q7 -22 2 -34t-15 -15t-20 2t-13 17q-8 35 -35.5 57.5t-59.5 35.5q-51 21 -110 22t-122 -9q-44 -7 -105 -20t-129.5 -25t-139 -18.5t-134.5 -0.5t-116.5 29t-83.5 71zM489 452q8 6 17 4t14.5 -9.5t6 -18t-6.5 -19.5q-40 -54 -83 -100.5
t-92 -91.5q-22 -20 -46 -39t-49.5 -33.5t-53 -23t-55.5 -7.5q-33 1 -61.5 12.5t-48.5 32t-30 48.5t-8 63q1 14 10.5 20.5t19.5 6t18 -8t6 -20.5q-3 -22 4 -40.5t20.5 -32t32 -21.5t38.5 -9t42 7t44 21.5t43.5 30.5t41.5 35q48 44 92.5 92.5t83.5 100.5zM644 361q1 0 1 -1
q7 -12 17.5 -12t18.5 26l64 209q15 48 30 96.5t29 96.5q7 23 8 32t-3.5 7.5t-13.5 -11t-20 -23.5q-22 -29 -42.5 -60t-40.5 -62q-19 -29 -37.5 -57.5t-38.5 -57.5q-6 -10 -11 -23.5t-7.5 -27t-2.5 -25.5t4 -19q5 -10 10 -19t10 -19q7 -12 13 -24.5t12 -25.5z" />
    <glyph glyph-name="B.swsh" horiz-adv-x="576" 
d="M260 73q1 -5 1.5 -9.5t1.5 -9.5q62 9 110 52q39 36 61.5 86t18.5 102t-37.5 100t-105.5 80q-28 10 -36 -15l-5 -16q-2 -10 3 -22.5t16 -20.5q27 -12 46 -29.5t31 -39.5t16.5 -46t3.5 -48q-4 -50 -31.5 -92.5t-79.5 -53.5q-5 -2 -10.5 -6t-3.5 -12zM187 99
q-11 15 -7.5 32.5t15.5 25.5q11 7 25 7t24 -11q3 -2 4 -5t3.5 -5t6.5 -2t12 3q30 11 46 36t18 55q2 34 -15 66.5t-52 52.5q-19 10 -41 14.5t-44 2.5t-43 -10.5t-38 -24.5q-26 -24 -38 -59t-9.5 -71.5t18 -69.5t44.5 -52q43 -27 90 -32q-1 5 -1 9t-1 9q0 7 -2 11.5t-4.5 7
t-5 4.5t-5.5 6zM276 4q18 -42 53.5 -67.5t82 -38.5t99.5 -16t106 0.5t101.5 11.5t85.5 16q84 18 173 40.5t174.5 39t162.5 21.5t136 -11q42 -12 77 -38t52 -68q9 -21 4.5 -33t-14 -15.5t-20 1t-13.5 15.5q-11 35 -39.5 55.5t-61.5 31.5q-47 16 -118 11.5t-154 -19.5
t-172 -36.5t-170 -39.5q-47 -11 -104 -20.5t-117 -13t-119 1t-110 23t-91 53.5t-61 91q-65 2 -126 35q-47 26 -70 74t-24 101t20.5 102.5t63.5 79.5q22 16 43.5 23.5t47.5 9.5q36 3 44 29l58 215q4 13 14 18t19 3t15 -9.5t3 -18.5l-23 -89q-5 -20 4 -29.5t28 -4.5
q46 11 75.5 43t29.5 86q0 25 -8.5 47t-24 38.5t-36.5 26t-46 10.5q-27 1 -54 -9t-50.5 -27.5t-41 -40.5t-26.5 -48q-5 -11 -17 -11t-20 7q-10 10 -5 24q10 33 32 61t50.5 49t62 33t68.5 11q33 0 62 -12.5t51.5 -33.5t36 -49.5t16.5 -61.5q9 -106 -65 -157q-8 -5 -15.5 -10.5
t-10.5 -12.5t1 -14.5t18 -17.5q50 -41 71 -96t17 -112t-30.5 -109.5t-69.5 -89.5q-28 -23 -61.5 -38t-69.5 -21zM154 215q-2 -7 4.5 -13.5t16 -9t18.5 0t14 14.5l30 113q2 9 -4 16.5t-15 10t-18.5 -1t-14.5 -14.5z" />
    <glyph glyph-name="C.swsh" horiz-adv-x="470" 
d="M177 398q-36 -84 -38.5 -162t28.5 -140t96 -103t163 -50q70 -7 146.5 1t155.5 21.5t157.5 30t151.5 27.5t138.5 13t118.5 -13q42 -11 77 -37.5t52 -67.5q9 -21 4.5 -33t-14 -16t-20 0.5t-13.5 16.5q-11 35 -39.5 55.5t-61.5 31.5q-43 15 -105 13t-135.5 -13t-154.5 -27
t-161.5 -30.5t-156.5 -23t-139 -3.5q-112 9 -188.5 54.5t-116 116.5t-41.5 161.5t36 188.5q11 26 1.5 46t-30.5 37q-47 32 -67 79t-20 103q0 11 7.5 19.5t19.5 7.5q7 -1 13.5 -5.5t8.5 -12.5v-5q-3 -28 4.5 -54t22.5 -49q18 -27 44.5 -44.5t56.5 -25.5t62.5 -8t62.5 6
q32 7 64.5 20.5t61.5 33.5q35 23 60.5 53.5t35.5 65.5q7 24 -1 46t-35 28q-36 8 -73.5 -14t-71 -57.5t-61 -75t-42.5 -66.5q-7 -16 -19 -19.5t-22 1t-15 15t2 22.5q14 25 34 56t45 62t54 59.5t60.5 48t64 27.5t65.5 -2q42 -13 58 -49.5t8 -77.5q-9 -49 -41.5 -91.5
t-77.5 -73.5q-23 -16 -50 -29.5t-55.5 -23.5t-58 -15.5t-57.5 -4.5q-20 -2 -35.5 -13.5t-23.5 -31.5z" />
    <glyph glyph-name="D.swsh" horiz-adv-x="646" 
d="M103 420q32 16 69 19q11 2 24.5 11.5t15.5 18.5l54 203q5 13 14.5 18t18.5 3t15 -10t4 -19l-54 -200q-3 -31 20 -46q36 -17 58 -43t31.5 -57t6.5 -62.5t-16 -58.5t-35 -46.5t-52 -25.5q-4 -2 -9.5 -6t-3.5 -12q0 -3 0.5 -7.5t0.5 -7.5q29 7 58 20.5t57 35.5q32 25 60 61
t49.5 79.5t36.5 91.5t21 97q10 74 -3.5 142t-56.5 117q-33 38 -84 50.5t-102 2.5t-94 -41t-60 -80q-5 -11 -18 -11t-21 8q-11 10 -6 25q13 41 41.5 71.5t65.5 50.5t80 28.5t85.5 5t81.5 -20t68 -47.5q52 -55 70 -131.5t10 -161.5q-6 -55 -21.5 -109.5t-40 -104t-56 -91
t-68.5 -71.5q-33 -27 -69 -44t-71 -25q14 -45 49.5 -71.5t83 -40t103 -16.5t109.5 0.5t102.5 11.5t82.5 15q29 6 71 16.5t92 22.5t105.5 23t112 19t112 11.5t105.5 -1.5q35 -3 66.5 -11t58 -22t46 -34t31.5 -48q9 -22 4.5 -34t-14 -15.5t-20 1t-13.5 16.5q-14 44 -55.5 66
t-101.5 29q-47 5 -102 2.5t-112 -10t-113 -18.5t-105 -22t-88.5 -21t-63.5 -15q-45 -10 -101.5 -19.5t-117.5 -13.5t-121.5 1t-113 24t-92 54.5t-58.5 92.5q-61 -1 -105 21t-71.5 57.5t-37.5 80t-2.5 87.5t32 81t67.5 60zM249 373q-30 11 -63 10.5t-59 -13.5
q-29 -15 -48.5 -47.5t-24.5 -69.5q-4 -37 6.5 -67t31.5 -51.5t51.5 -34t65.5 -13.5q0 2 -1 3v6.5t-1 6.5q0 8 -2 12t-4 7t-4.5 5t-5.5 6q-11 14 -8 32t15 26q11 7 25.5 7t24.5 -11q3 -3 4 -6t3 -5t6 -2t12 3q28 11 42 37.5t12 57t-21 58.5t-57 43zM232 341l-27 -103
q-5 -12 -14 -14.5t-18 0t-15.5 9t-4.5 13.5l29 106q6 12 15.5 15t18 0t14 -10.5t2.5 -15.5z" />
    <glyph glyph-name="E.swsh" horiz-adv-x="458" 
d="M347 -104q-66 5 -128 28t-110 62.5t-78 95.5t-31 127q-1 56 22 109t62.5 93.5t92 63t109.5 17.5q-3 11 -11 17.5t-19 8.5q-46 6 -87 27t-69 59q-17 26 -26.5 56.5t-9.5 68.5q0 13 8 19.5t17.5 6.5t17 -5.5t6.5 -16.5q-2 -26 3 -51.5t20 -46.5q32 -44 81 -60.5t101.5 -13
t101.5 24t82 50.5q17 15 24 30.5t7 29.5q0 26 -19 40q-15 12 -32 14t-34 -4t-34 -18t-32 -28q-20 -22 -34 -48t-17 -49q-2 -12 -10.5 -17.5t-18.5 -5t-17.5 7t-7.5 17.5q5 33 22 65.5t43 59.5q23 25 51.5 43.5t58 26t57 1.5t48.5 -29q12 -12 18 -28.5t7 -35.5
q1 -34 -15.5 -63.5t-41.5 -51.5q-29 -27 -62.5 -39t-72.5 -24q-8 -2 -15.5 -4t-15.5 -4q-20 -8 -14 -28q2 -4 3.5 -7.5t3.5 -7.5q22 -9 35 -20t18.5 -21.5t5 -20t-6.5 -16.5q-6 -8 -16.5 -12t-23.5 -1.5t-27 13t-27 30.5q-50 15 -96 -0.5t-81 -50t-55 -81t-18 -94.5
q2 -58 26 -103t62.5 -77t89.5 -51t107 -24q72 -7 152.5 0.5t163 21t165 30t158.5 27t142.5 12.5t118.5 -12q42 -12 77 -38t52 -67q9 -22 4.5 -34t-14 -15.5t-20 1t-13.5 15.5q-11 35 -39.5 55.5t-61.5 31.5q-41 15 -105 13t-140.5 -13t-161.5 -27t-169 -30t-163 -22t-144 -3
z" />
    <glyph glyph-name="F.swsh" horiz-adv-x="598" 
d="M316 744q69 -15 125.5 -22.5t115.5 -5.5q65 1 121.5 11.5t111 25.5t109 33t115.5 35q59 17 118 23.5t118 -7.5q38 -8 72 -30.5t52 -59.5q9 -19 5.5 -30.5t-12 -15t-18.5 0t-14 13.5q-11 32 -38 49.5t-58 25.5q-48 14 -102 8.5t-110 -20.5q-68 -18 -123.5 -38t-110.5 -36
t-113.5 -26t-131.5 -9q-7 0 -16.5 -2.5t-19.5 -8.5t-18 -14.5t-12 -18.5q-14 -36 -25.5 -64.5t-24.5 -65.5q-5 -14 0 -28.5t22 -15.5h2q17 1 32.5 0.5t30.5 -2.5q10 21 26 42q6 6 14 6.5t14 -3.5t8 -11.5t-4 -17.5q-21 -33 -31 -58.5t-15 -64.5q-2 -12 -8.5 -16.5t-13 -3.5
t-12.5 6.5t-7 14.5q1 29 11 61q-21 2 -43 1.5t-45 -3.5q-24 -3 -49 -8.5t-48 -13.5q-26 -8 -49 -19t-44 -24q-12 -7 -20.5 -4.5t-13 9t-4 16t7.5 16.5q23 18 54.5 32t69.5 25q23 10 36.5 24t22.5 37q14 40 27 74.5t29 72.5q5 14 0 22t-14 12t-19 5t-13 2q-23 4 -51 11
t-56 13t-53.5 7.5t-43.5 -6.5q-33 -14 -52.5 -43t-23.5 -60q-3 -30 9 -51.5t32.5 -30.5t44.5 -5t44 24q9 6 17.5 4t13.5 -8.5t4.5 -16t-9.5 -16.5q-34 -26 -70.5 -31.5t-66.5 7.5t-49.5 43.5t-18.5 77.5q0 23 7.5 46t21.5 43t34.5 35.5t46.5 23.5q37 12 74 8.5t75 -11.5z
M332 360q5 12 15.5 17.5t20 5.5t16 -5t3.5 -14q-9 -29 -18 -53.5t-18.5 -48.5t-20 -48.5t-23.5 -52.5q-18 -39 -46.5 -76.5t-65.5 -63.5t-79 -35.5t-87 6.5q-18 6 -24 16.5t-4.5 20.5t9.5 15.5t17 1.5q38 -15 73 -9t64.5 26t53 50t38.5 62q13 26 23 48t19 43.5t17 44
t17 49.5z" />
    <glyph glyph-name="G.swsh" horiz-adv-x="610" 
d="M1302 21q55 -8 96 -33t63 -78q9 -21 4.5 -33t-13.5 -15t-19.5 1.5t-13.5 16.5q-13 42 -44 64t-76 30q-60 10 -134.5 2t-156.5 -19.5t-167.5 -18.5t-167.5 4q-45 6 -80 15.5t-63 21t-51.5 23t-45.5 21.5q-32 13 -70 15.5t-73.5 -7t-62.5 -31.5t-36 -57q-3 -10 -3 -21
t4 -19.5t11.5 -13.5t19.5 -3q45 5 76.5 39t50.5 79q4 12 13.5 16t18.5 2.5t14.5 -8t2.5 -15.5q-11 -27 -26.5 -53.5t-35.5 -49t-44.5 -38t-53.5 -18.5q-30 -4 -51.5 5.5t-33 27t-13 41.5t6.5 48q9 28 29.5 50t47 38.5t56.5 26.5t59 13q25 3 37.5 14t21.5 34q3 8 5.5 15
t4.5 15t-1 11t-9 -1q-9 -7 -22.5 -12.5t-28.5 -9t-30 -5t-26 -1.5q-50 3 -84.5 22.5t-54.5 51t-25.5 72.5t3.5 86q4 18 -4.5 30t-24.5 20q-49 25 -73.5 70.5t-29.5 108.5q-1 14 6.5 21t17 8t17.5 -4.5t8 -15.5q0 -59 27 -94.5t69 -51t92.5 -12.5t97.5 21q31 12 59.5 29.5
t51.5 39t39 47.5t22 55q5 25 -3 45.5t-35 24.5q-24 3 -48.5 -6.5t-47.5 -28t-44 -43.5t-39 -52t-32.5 -54t-23.5 -49q-5 -9 -15.5 -12t-21 -0.5t-17.5 9.5t-5 18q12 29 31 62.5t42.5 66.5t51 62.5t58 50.5t63 30.5t64.5 2.5q21 -5 36.5 -16.5t25 -28t13.5 -36t2 -39.5
q-5 -39 -24.5 -75t-49 -66t-67 -53t-76.5 -38q-26 -10 -53.5 -17t-54.5 -9q-38 -3 -45 -32q-6 -28 -5 -56t12.5 -51.5t34 -40t59.5 -20.5q39 -5 80.5 13.5t70.5 55.5q3 12 10 32t18 37t25.5 25.5t32.5 -2.5q8 -5 12 -16.5t0 -27.5t-16 -37t-35 -46q-10 -28 -19 -54.5
t-19 -54.5q-5 -18 3 -35.5t22 -30.5q31 -29 86 -48t117 -28q84 -12 166.5 -4.5t161.5 19.5t153 21t141 -1z" />
    <glyph glyph-name="H.swsh" horiz-adv-x="761" 
d="M480 461q45 16 100 40.5t106.5 53.5t93 60.5t58.5 63.5q14 26 6.5 44.5t-26.5 19.5q-21 1 -38 -14.5t-30 -38t-22.5 -46.5t-15.5 -40q-5 -12 -15.5 -19t-21 -9t-17.5 1.5t-4 13.5q10 28 23.5 64t33 67t46.5 52.5t63 21.5q22 0 39.5 -11t27 -29.5t9.5 -42.5t-13 -51
q-12 -25 -32.5 -47.5t-44 -42t-48.5 -35.5t-46 -28q-15 -9 -31 -29t-21 -37q-13 -42 -26 -98t-21 -114.5t-8.5 -113t10.5 -93.5q19 -55 57.5 -82t88 -35t106.5 -1.5t113.5 19.5t108 28.5t90.5 24.5q66 15 130.5 18t128.5 -14q42 -12 77 -38.5t52 -67.5q9 -21 4.5 -33
t-14 -16t-20 0.5t-13.5 16.5q-11 35 -39.5 55.5t-61.5 31.5q-52 18 -111 15.5t-122 -15.5q-48 -11 -106.5 -27.5t-120.5 -30.5t-123.5 -19.5t-115 6.5t-96 47t-65.5 102q-12 38 -13 90t5 108.5t17.5 112.5t24.5 102q4 13 -6 19.5t-19 2.5q-43 -17 -90 -35.5l-94 -37
t-90.5 -38t-78.5 -39.5q-59 -33 -94.5 -69t-51 -68t-14.5 -56.5t15 -36.5q16 -14 49.5 -9.5t72 32.5t77.5 83t68 142q5 12 16 18t21.5 6t17 -7t1.5 -21q-37 -110 -88 -177t-103 -99t-99 -32t-77 24q-24 20 -30 56t12.5 80.5t64.5 93t127 93.5q32 18 65 30.5t62 29.5
q13 7 23 17t17.5 21t12 21.5t6.5 17.5q7 26 13 48t12 43t13 43t16 48q5 17 -0.5 29t-25.5 13q-32 0 -66 8t-66 15q-41 9 -70 3.5t-47.5 -19.5t-28.5 -34.5t-11 -42.5q-2 -30 10 -55.5t33 -36.5q19 -9 42.5 -6t47.5 21q9 6 17.5 4t13.5 -9t4.5 -16.5t-9.5 -16.5
q-38 -26 -74.5 -30t-65.5 10q-36 17 -53.5 55t-15.5 80q2 31 15.5 60t39.5 49.5t64 30t90 1.5q24 -4 48 -9t47 -8t45 -3t43 6q23 7 39.5 20t36.5 22q12 6 21.5 2.5t14.5 -11.5t4.5 -17.5t-8.5 -15.5q-22 -18 -42 -35.5t-30 -44.5q-22 -48 -33.5 -95.5t-25.5 -98.5
q-2 -16 6.5 -26t25.5 -4z" />
    <glyph glyph-name="I.swsh" horiz-adv-x="414" 
d="M290 350l91 345q6 20 -4 34.5t-34 10.5l-123 -25q-32 -7 -52.5 -33.5t-19.5 -57.5q0 -14 4.5 -27.5t12.5 -23t20 -15.5t28 -5q13 1 27.5 5.5t29.5 14.5q10 7 18.5 4.5t13.5 -10t4 -17.5t-10 -17q-31 -24 -65 -28.5t-63.5 7t-49.5 38t-23 65.5q-2 53 26 91.5t79 55.5
q29 7 63 14t68 15t66 17.5t57 23.5q12 6 21.5 1.5t14 -13t4 -18.5t-7.5 -16q-11 -9 -16.5 -15t-9 -12.5t-6.5 -14.5t-7 -21l-101 -374q-9 -35 -20 -74.5t-26 -78t-35.5 -72.5t-50.5 -56q-26 -20 -57 -27.5t-67 3.5q8 -37 23.5 -61.5t52.5 -47.5q45 -28 106 -37.5t125 -8.5
t124.5 10t105.5 19q84 18 173 40.5t174.5 39t162.5 21.5t136 -11q42 -12 77 -38t52 -68q9 -21 4.5 -33t-14.5 -15.5t-20.5 1t-13.5 15.5q-11 35 -39.5 55.5t-60.5 31.5q-47 16 -118 11.5t-154.5 -19.5t-172 -36.5t-170.5 -39.5q-53 -12 -119 -22.5t-134 -12.5t-132.5 8.5
t-115.5 41.5q-98 58 -108 168q-2 15 -8 18.5t-11 11.5q-9 13 -12 25.5t-1.5 23t6 18.5t10.5 12q9 6 21 7t22 -6q12 -8 15.5 -25.5t4.5 -31.5q24 -20 49.5 -18t47.5 18q23 17 41 46.5t31.5 64t23 69t16.5 61.5z" />
    <glyph glyph-name="J.swsh" horiz-adv-x="520" 
d="M212 41q10 4 19.5 7.5t19.5 6.5q20 8 32.5 15t20.5 26q25 54 50 123t47.5 139t41.5 133.5t31 105.5q2 7 3 16t-1.5 16.5t-8.5 11.5t-19 3q-23 -4 -42.5 -6t-38.5 -5t-37 -7.5t-38 -12.5q-38 -16 -55 -51t-14 -68q3 -27 15.5 -41.5t30 -18t37.5 1.5t38 17q9 6 17.5 3.5
t13.5 -9.5t5 -16.5t-9 -16.5q-29 -23 -61.5 -28t-61.5 4.5t-50.5 31t-26.5 53.5q-5 28 0.5 57t19 54t35 44t49.5 28q31 10 69 18.5t77 17t75 18.5t62 23q14 6 24 1.5t14.5 -13.5t3.5 -19.5t-9 -16.5q-22 -16 -34.5 -36t-21.5 -46q-13 -43 -31.5 -105.5t-40 -131t-45 -137.5
t-46.5 -125q-7 -19 -5.5 -27.5t26.5 -9.5q68 -5 140 -27t145.5 -47.5t147.5 -46t145 -21.5q91 -2 179 17t163 64q6 3 11.5 7t13.5 4q14 0 22 -13q9 -14 -2 -29l-3.5 -3.5t-3.5 -2.5q-85 -53 -185 -75.5t-203 -20.5q-73 2 -149.5 24t-153 47.5t-150 46.5t-140.5 22
q-22 1 -37.5 -12.5t-26.5 -27.5q-23 -35 -45 -59.5t-43.5 -39.5t-42.5 -22t-42 -8q-45 -2 -75 15.5t-45.5 45t-17 59.5t10.5 60t37 47t62 19q20 0 38 -9t28 -30q1 -5 3.5 -9.5t7 -6.5t12 -1.5t18.5 5.5zM223 -10q-16 -7 -32 -15t-31 -16q-4 -2 -8 -4.5t-9 -3.5
q-17 -2 -26 12q-7 12 -2 25q4 8 6.5 14.5t2.5 15.5q0 13 -7.5 18.5t-18.5 4.5q-28 -2 -41 -25t-10 -49.5t22 -47.5t55 -19q23 1 53 19t59 53q7 9 7.5 13.5t-2.5 6.5t-8.5 1t-9.5 -3z" />
    <glyph glyph-name="K.swsh" horiz-adv-x="713" 
d="M465 489q24 13 51.5 30.5t56.5 38.5q34 25 67.5 55.5t60.5 63.5t45.5 68t23.5 70q3 14 11.5 19.5t18 4t16 -8t5.5 -15.5q-8 -49 -31.5 -92t-55.5 -80.5t-70 -70t-76 -60.5q-5 -5 -9.5 -13.5t-7 -18.5t-3 -19.5t2.5 -15.5q10 -16 16 -35t6 -37q3 -42 -5 -82t-15 -80.5
t-8.5 -83t13.5 -87.5q18 -54 64 -78.5t108 -29.5t134 5t141 26t129 33t99 26q66 14 130.5 17.5t128.5 -14.5q42 -11 77 -37.5t52 -67.5q9 -21 4.5 -33t-14 -16t-20 0.5t-13.5 16.5q-11 35 -39.5 55.5t-61.5 31.5q-52 18 -111 15.5t-121 -16.5q-36 -8 -83 -20.5t-100.5 -26.5
t-110.5 -26t-113 -17.5t-108 -3t-96 18t-77.5 46t-50.5 80.5q-16 51 -14.5 95t8.5 85t15 81t5 83q-1 17 -5 32.5t-13 27.5q-8 9 -18 11.5t-20.5 1t-21.5 -5.5t-20 -8q-42 -19 -90 -38.5t-95 -43t-89.5 -52t-73.5 -64.5q-35 -41 -37.5 -74.5t15.5 -48.5q16 -13 46 -7.5t66 34
t74.5 83t71.5 140.5q4 11 15 17t21 6t16 -6.5t2 -20.5q-39 -106 -89.5 -173t-101 -100t-94.5 -35.5t-70 19.5q-18 15 -26.5 37t-4.5 50t21.5 60t51.5 65q23 22 53 44.5t69 44.5q29 17 60.5 30t58.5 30q21 13 40 40.5t27 49.5q6 25 12.5 48.5t12.5 46.5q5 17 10.5 33.5
t10.5 33.5q13 36 -11 41q-22 -1 -47 3q-38 7 -72.5 14.5t-67.5 -5.5q-30 -13 -48.5 -39t-23.5 -54q-5 -30 4.5 -52.5t28 -33t43 -8.5t49.5 22q9 6 17.5 4t13 -8t4 -15t-9.5 -16q-35 -27 -72.5 -29.5t-67.5 13.5t-47 48.5t-11 74.5q5 42 31.5 81t74.5 55q35 11 65 9t58 -7
t56 -8t60 6q23 6 38.5 19.5t35.5 22.5q12 6 21.5 2.5t14 -11t3.5 -17t-8 -15.5q-21 -17 -40.5 -34.5t-29.5 -43.5q-10 -22 -17 -43.5t-13 -43.5q-6 -21 -11 -42l-10 -42q-2 -7 -1 -15t5 -14t10 -8.5t15 1.5z" />
    <glyph glyph-name="L.swsh" horiz-adv-x="605" 
d="M397 385q-27 -10 -42.5 -27t-27.5 -46q-5 -18 -11 -40.5t-13 -46t-14 -45t-13 -38.5q-7 -17 -5 -35.5t19 -29.5q87 -59 163.5 -85.5t152.5 -32t155 5.5t172 29q55 10 111 19.5t110.5 13t105 0t93 -18.5t76 -44.5t53.5 -76.5q9 -22 4.5 -34t-14.5 -15.5t-20.5 1
t-13.5 16.5q-15 40 -43 65.5t-66 39t-84 17t-96.5 0.5t-103.5 -12t-104 -19q-72 -14 -133.5 -25t-118 -14.5t-109.5 1.5t-108 21t-114 44.5t-126 73.5q-23 -27 -55 -42t-65 -17q-38 -3 -62.5 9t-37 31.5t-12 43t13.5 44t38.5 33.5t63.5 12q33 -2 63 -15q15 -5 28.5 2
t18.5 21l12 36t14.5 44t13.5 45t10 39q3 17 -8.5 32t-25.5 21q-55 19 -86.5 59.5t-45.5 95.5q-2 11 4 21.5t17 12.5q8 1 16.5 -3t9.5 -13q8 -55 49 -93q27 -25 60 -34.5t67.5 -8t68.5 13t63 28.5q28 16 55 41.5t48 55.5t34 61.5t14 61.5q1 25 -11.5 44t-39.5 18
q-24 0 -47 -15t-43 -39.5t-37 -55t-31 -62.5t-24 -62.5t-16 -53.5q-3 -10 -13 -15t-21.5 -5t-19.5 6t-6 20q8 31 21 68.5t31.5 76t41.5 75t49.5 64t57 43.5t64.5 14q21 -1 38 -10t28.5 -23.5t17.5 -33.5t7 -39q1 -40 -13.5 -80.5t-40 -78t-59 -68.5t-69.5 -52
q-20 -11 -41 -20t-43 -16zM170 95q-13 6 -28.5 11.5t-30.5 7.5q-30 4 -45 -10t-15 -31.5t15.5 -30.5t45.5 -6q13 3 27.5 9t26.5 15q25 24 4 35z" />
    <glyph glyph-name="M.swsh" horiz-adv-x="851" 
d="M508 797q5 2 11.5 3t12.5 -1q8 -3 13 -11.5t3 -17.5q-1 -6 -3.5 -11t-3.5 -11q-4 -35 4.5 -84t16.5 -95q1 -15 -4.5 -25t-13 -14.5t-15 -2.5t-9.5 11l-23 120q-4 15 -15.5 15t-18.5 -14q-40 -88 -67.5 -182.5t-59.5 -186.5q-14 -39 -33 -82.5t-45 -82t-60 -68.5t-79 -42
q-25 -7 -51 -6.5t-50 10.5q-15 6 -18.5 16.5t0.5 20t12.5 14.5t18.5 0q20 -8 37.5 -9t38.5 5q34 10 61.5 34.5t49 57.5t38.5 71t30 74q32 86 57 174t58 173q15 43 -22 40q-20 -2 -48.5 -6t-57.5 -10t-55 -14t-41 -18q-23 -15 -33.5 -41t-10.5 -53q0 -26 12 -43t30 -24
t38.5 -4t37.5 17q8 8 18 5q8 -2 13.5 -9t4.5 -15q0 -10 -9 -17q-31 -26 -65 -30t-63 8.5t-48.5 40t-20.5 66.5q-1 24 5 47.5t17.5 44t29.5 36t41 24.5q48 17 97 25t98 18q32 7 48 12t28 11.5t25 14.5t38 21zM790 -112q-56 31 -82.5 89.5t-33 131t3.5 153.5t28 158.5
t39 144.5t37 112q3 14 -8.5 17.5t-23.5 -7.5q-25 -26 -43.5 -50t-34.5 -48t-32 -49.5t-35 -54.5q-11 -17 -17 -34.5t-6 -37.5v-32t-2 -36.5t-6 -35.5t-11 -30q-8 -17 -25.5 -31.5t-37.5 -15.5q-18 0 -31.5 12.5t-17.5 29.5q-5 21 1 46t17.5 49.5t25.5 47.5t25 39
q24 33 50 72t53 78t55 75.5t57 63.5q20 19 41.5 33t47.5 19q12 3 27.5 4.5t31 0.5t29.5 -5t24 -12q6 -6 5.5 -14t-4.5 -15t-10.5 -10.5t-13.5 0.5q-10 5 -23 4.5t-24 -10.5q-13 -13 -20.5 -34t-13.5 -38q-13 -37 -32.5 -99.5t-37.5 -136.5t-29.5 -152.5t-8 -148t26.5 -123.5
t74 -79q47 -23 113 -24.5t142.5 9t160 28.5t166.5 34t161 25.5t143 3.5t113.5 -33t72.5 -83q8 -22 3.5 -34t-14 -15.5t-20 1t-13.5 15.5q-16 51 -59.5 73.5t-106 26t-140.5 -7.5t-161.5 -27t-169 -33t-164.5 -26t-146.5 -4.5t-115.5 30.5zM522 377q-8 -14 -14 -29t-9 -23
q-8 -27 -6 -38.5t9 -11.5q8 0 16.5 10.5t12.5 27.5q2 13 3 27.5t2 29.5q0 10 -4.5 12t-9.5 -5z" />
    <glyph glyph-name="N.swsh" horiz-adv-x="786" 
d="M654 281q-5 -18 -7.5 -42.5t1.5 -44.5q5 -20 8.5 -39t5.5 -39q1 -15 0.5 -29.5t-5.5 -28.5q-5 -15 -13.5 -28t-21.5 -21q-10 -6 -21 -8t-22 2q-10 4 -19.5 13.5t-13.5 19.5q-6 15 -5 37.5t6.5 50.5t15 58.5t20.5 62.5q14 39 32 93.5t40.5 114.5t49 121.5t56.5 115.5
t64.5 96.5t72.5 63.5q72 40 154.5 48.5t167 -1.5t168.5 -32.5t159 -44.5q61 -18 119 -26.5t112 5.5q33 8 63 27t44 53q4 11 15 14.5t20 -1t12.5 -16.5t-6.5 -33q-21 -39 -58 -63t-79 -32q-66 -13 -130 -4.5t-128 28.5q-42 13 -90 27t-99.5 25.5t-105.5 18.5t-106.5 6.5
t-103 -11t-94.5 -34.5q-33 -17 -64 -54t-59 -85t-53 -102.5t-45 -106.5t-34.5 -98t-22.5 -77zM477 644q8 13 20 10t15 -18q10 -81 22 -158.5t25 -158.5q2 -9 10 -10t16 4.5t13.5 16t4.5 25.5q-3 15 -8 46t-10.5 68.5t-11.5 79t-10 78t-6 64.5t-1 39q0 6 2.5 11t4.5 11
q2 9 -3 18t-14 12t-21 -2t-25 -13.5t-26 -17.5t-23 -13q-18 -6 -36 -10l-36 -8q-50 -11 -99 -18.5t-97 -24.5q-23 -9 -42.5 -26t-33 -38.5t-21 -46t-6.5 -48.5q0 -23 7.5 -43.5t21 -36.5t32 -26.5t40.5 -13.5q27 -3 53 6t47 26q7 7 9 18q0 8 -5 14.5t-13 8.5q-11 2 -18 -5
q-27 -27 -64 -24q-34 4 -49.5 30t-11.5 58q3 28 18.5 53.5t37.5 39.5q18 13 46 21t58.5 13t60.5 9t53 8q29 5 20 -28q-29 -72 -52 -142t-49 -145q-14 -43 -30 -84.5t-35 -82.5q-10 -24 -24 -47.5t-32 -44t-40 -36.5t-48 -23q-20 -6 -42 -4.5t-42 9.5q-10 4 -17 0
q-8 -4 -10 -13t0 -17q3 -8 9 -13t13 -8q28 -12 58 -12q23 0 45.5 7t42.5 19q53 32 85.5 78.5t55.5 101.5q14 35 27 69.5t26 69.5q7 21 20 61t28.5 85.5t32.5 91.5t32 80zM595 143q-1 -6 -4 -22.5t-4.5 -34t0.5 -31t11 -13.5q8 0 15 12.5t7 30.5q1 13 -2 29t-7 32
q-4 8 -8.5 7.5t-7.5 -10.5z" />
    <glyph glyph-name="O.swsh" horiz-adv-x="579" 
d="M341 189q27 34 49 74.5t39 83.5t29 86.5t19 84.5q3 15 5 37.5t2 48t-2.5 52t-9.5 49.5q-8 26 -24.5 47.5t-45.5 23.5q-28 2 -56.5 -16.5t-50.5 -47.5q-34 -47 -50 -113t-16 -138t15.5 -143t43.5 -127q13 -27 26 -23.5t27 21.5zM375 75q43 -40 86.5 -69.5t91 -48.5
t101 -26.5t116.5 -2.5q49 3 104.5 15t113 26t116 28.5t114.5 23t108 9.5t96 -12q42 -11 77 -37.5t52 -67.5q9 -22 4.5 -34t-14 -15.5t-20 1t-13.5 16.5q-11 35 -39.5 55.5t-61.5 31.5q-37 13 -86 12t-105 -10t-115.5 -23t-118 -28t-112.5 -25t-99 -14q-70 -5 -131 3.5
t-115.5 29.5t-104.5 55.5t-97 83.5q-14 14 -27.5 13t-31.5 -8q-65 -32 -123 -15.5t-96 73.5q-24 35 -34.5 79.5t-11 93t8 99.5t23.5 99t34.5 90.5t41.5 73.5q6 8 13 14.5t19 3.5q11 -2 18 -13t3 -22q-2 -5 -5 -9.5t-7 -9.5q-18 -24 -35 -61t-30 -80t-21 -90t-8.5 -91
t8.5 -83t29 -66q27 -35 63 -47.5t77 3.5q14 5 19 12.5t5 15t-3 15l-5 12.5q-34 64 -53 144t-19 161.5t19.5 157t61.5 129.5q32 41 73 63t81 19q35 -3 64.5 -28t46.5 -78q8 -26 11.5 -54t3.5 -56.5t-2.5 -54.5t-5.5 -47q-8 -47 -21 -95.5t-32 -95t-44 -90t-56 -80.5
q-4 -5 -8.5 -14t-6 -19.5t1.5 -21t13 -19.5z" />
    <glyph glyph-name="P.swsh" horiz-adv-x="585" 
d="M346 350q-19 1 -34 -7t-20 -28q-9 -36 -19 -67.5t-24 -59.5t-35 -53t-52 -47q-25 -17 -50 -26q-5 -2 -10.5 -8t-8.5 -14t-0.5 -18.5t7.5 -21t11.5 -20t11.5 -15.5q31 -38 80.5 -58t111.5 -27t133 -2.5t144.5 16.5t147 28.5t140 33.5t123 32.5t97.5 24.5q65 15 130 18
t128 -14q42 -12 77.5 -38.5t52.5 -67.5q8 -21 3.5 -33t-14 -16t-20 0.5t-13.5 16.5q-11 35 -39.5 55.5t-60.5 31.5q-52 18 -111.5 15.5t-121.5 -15.5q-47 -10 -107.5 -26.5t-130 -34t-145 -34.5t-151.5 -29t-149 -15.5t-138 5.5t-119.5 32.5t-91.5 66.5q-18 21 -30 43
t-17 54q-3 25 -10 31q-24 26 -21.5 47t17 32t33 8.5t27.5 -23.5q4 -11 11 -12.5t15.5 2t16.5 10t14 10.5q29 21 48 47.5t32 57t21 63.5l16 66q10 42 18.5 85t25.5 103q6 22 14.5 47t20 48t27.5 42.5t37 32.5q12 7 22 4.5t15.5 -10t5.5 -17t-7 -16.5q-18 -16 -30 -29.5
t-20.5 -28.5t-15.5 -33.5t-15 -44.5q-8 -28 -15 -52t-12 -47q-9 -51 43 -50q23 1 43.5 4t39.5 11q43 16 74 50.5t43 95.5q10 51 -3 96t-43.5 77.5t-74.5 49.5t-95 13q-46 -3 -89 -22.5t-75 -54.5q-37 -39 -56.5 -93t-11.5 -108q8 -46 34 -81q8 -11 7.5 -22.5t-12.5 -18.5
q-7 -5 -16 -5t-15 7q-35 41 -47 95q-16 69 6 138.5t70 120.5q41 42 94 66.5t111 29.5q63 5 116.5 -16t90 -61t53 -95.5t5.5 -118.5q-14 -76 -55.5 -124.5t-98.5 -68.5q-51 -19 -115 -16z" />
    <glyph glyph-name="Q.swsh" horiz-adv-x="587" 
d="M638 -125q-54 4 -98.5 18t-85 36t-79 49.5t-78.5 59.5q-15 11 -38.5 12.5t-45.5 -7.5q-23 -8 -46 -13t-47 -5t-47.5 6.5t-42.5 21.5q-17 13 -25.5 32.5t-6.5 39.5q2 17 12 32t25 24q20 11 42 13t44 -2q56 -9 108 -40q13 -9 25.5 -9.5t23.5 4t20.5 11.5t15.5 13
q37 33 67 71.5t55 81.5q30 51 52.5 107t30.5 116q5 34 2.5 68t-16.5 66q-15 34 -44 51.5t-62.5 22t-68.5 -3t-63 -25.5q-50 -32 -80 -86t-41 -111q-5 -25 -7.5 -55.5t1.5 -60.5t14.5 -57.5t30.5 -45.5q15 -14 35 -20t40 -1q19 5 33 18.5t22 30.5q6 14 6 27.5t-10 25.5
t-7.5 23.5t11 16.5t20.5 2t22 -19q13 -21 13.5 -45t-8.5 -47q-11 -26 -30.5 -46.5t-45.5 -30.5q-25 -10 -52 -7.5t-50 13.5q-36 18 -57 50.5t-30.5 71t-9 79.5t6.5 76q6 34 18.5 69t30.5 66.5t42.5 58.5t55.5 46q37 22 80.5 32t85.5 4.5t78 -27.5t59 -64q21 -39 25.5 -83
t-0.5 -87q-9 -65 -32.5 -125t-55.5 -117q-30 -51 -66 -99t-81 -87q-3 -2 -6.5 -6.5t-5 -10.5t0 -12.5t9.5 -11.5q33 -26 68 -50.5t73 -44t78.5 -33t84.5 -17.5q72 -7 138.5 0.5t129 22t121 31t114 28t108.5 14t105 -12.5q42 -11 77 -37.5t52 -67.5q9 -22 4.5 -34t-14 -15.5
t-20 1t-13.5 16.5q-11 34 -39.5 55t-61.5 32q-42 14 -91.5 12t-106 -13.5t-117.5 -28.5t-124.5 -31.5t-129 -22.5t-130.5 -3zM183 118q-39 22 -79 26q-14 2 -28 0t-23 -12q-7 -7 -6 -16t6 -16q9 -12 23 -17.5t28 -7.5q20 -2 39 0.5t37 8.5q17 5 18 15.5t-15 18.5z" />
    <glyph glyph-name="R.swsh" horiz-adv-x="679" 
d="M393 296q-21 7 -45 -0.5t-32 -30.5q-8 -20 -13.5 -41.5t-12.5 -41.5q-14 -41 -39 -80.5t-58.5 -69t-75 -43.5t-87.5 -2q-18 4 -24.5 14t-4.5 20.5t10 17t18 3.5q39 -12 72 -2t59.5 32.5t45.5 54.5t31 65q18 48 28 85t17.5 71.5t15.5 72t22 87.5q6 22 14.5 46.5t20.5 48
t28 43.5t37 32q12 7 22 4.5t15.5 -10t5.5 -17t-7 -16.5q-18 -14 -30 -27t-21 -29t-15.5 -35t-14.5 -45q-7 -23 -12.5 -43.5t-10.5 -40.5q-4 -28 7 -46t37 -18q15 1 29.5 2.5t28.5 5.5q37 9 65.5 29t48 48t29.5 61t10 66q0 37 -12 73t-36.5 64t-60.5 45t-84 18
q-61 1 -113.5 -24t-89 -68t-53.5 -100t-7 -119q6 -45 33 -81q6 -8 8 -17.5t-5 -17.5q-2 -2 -4 -3.5t-4 -2.5q-6 -4 -13.5 -5t-13.5 3q-8 6 -16 18.5t-15 27.5t-12.5 29.5t-7.5 23.5q-17 76 0.5 146.5t61 124.5t107.5 86t141 32q60 0 106.5 -21.5t78 -57t48 -80.5t15.5 -93
q-1 -39 -11.5 -80t-33 -76t-57.5 -61t-84 -36q37 -20 55.5 -42.5t24.5 -49.5t4 -58.5t-5 -68.5q-4 -57 13 -94t49.5 -58.5t77.5 -29.5t96 -6q38 1 83.5 8.5t93.5 19t96 25t90.5 26t77 23t56.5 15.5q66 15 130.5 18.5t128.5 -14.5q42 -12 77 -38t52 -68q9 -21 4.5 -33
t-14 -15.5t-20 1t-13.5 15.5q-11 35 -39.5 55.5t-61.5 31.5q-52 18 -111 15.5t-121 -15.5q-27 -6 -63.5 -16.5t-79 -23t-89 -26t-92 -25t-89 -20t-79.5 -10.5q-64 -5 -121 2.5t-99 34.5t-65.5 77t-20.5 130q1 24 3.5 44t1 38t-9.5 35.5t-29 37.5q-16 15 -34 24.5t-38 15.5z
" />
    <glyph glyph-name="S.swsh" horiz-adv-x="579" 
d="M655 686q-14 -45 -49 -74t-79 -47q-13 -5 -26.5 -9.5t-27.5 -8.5q-15 -5 -21 -18.5t-4 -27.5q1 -2 1 -3.5t1 -3.5q15 -52 27 -109.5t6 -106.5q-5 -50 -28.5 -94.5t-60.5 -78.5q-35 -32 -77 -48.5t-84 -18.5q1 -3 2.5 -6t3.5 -5q32 -52 81 -81.5t109.5 -43t131 -12.5
t145.5 10.5t152.5 25t153 32.5t147 32.5t134 24t113.5 8t86 -15.5q39 -17 71 -47.5t44 -73.5q6 -23 -0.5 -34t-16 -13.5t-19.5 3.5t-12 18q-6 35 -31.5 59.5t-56.5 39.5q-37 18 -102 14t-148 -20t-179.5 -39t-196 -41.5t-198 -27.5t-185 1.5t-156.5 47t-114 108.5
q-13 23 -20 41q-53 11 -89 38.5t-56.5 64.5t-26 79.5t3 83t31 75.5t57.5 56q39 24 88 26.5t91.5 -15t69.5 -54.5t22 -92q-3 -28 -14 -54t-28.5 -47t-40.5 -34.5t-50 -15.5q-4 0 -10 -4t-5 -12v-11q0 -10 0.5 -19t1.5 -17q40 -2 79.5 13.5t71.5 48.5q50 51 62 123
q8 54 -5.5 109.5t-28.5 109.5q-5 17 -20 26.5t-32 11.5q-11 1 -22.5 3t-22.5 4q-44 10 -78 31t-56.5 51.5t-32.5 69t-5 83.5q1 11 9 18.5t19 5.5q9 -2 15 -9t4 -17q-6 -34 1.5 -65t26.5 -56t46 -43t60 -25q50 -11 103.5 -3.5t98.5 26.5q34 14 61.5 36.5t37.5 54.5
q12 42 -8.5 66t-53.5 27q-37 3 -62 -12t-39.5 -40.5t-19.5 -57t-2 -61.5q1 -10 -5.5 -16.5t-14.5 -8.5q-11 -2 -21 3.5t-10 17.5q-5 43 3 84.5t29.5 73t57 49.5t85.5 15q28 -2 52.5 -13t40 -30.5t20.5 -47t-6 -61.5zM112 387q-32 -26 -47 -67.5t-10.5 -84t30 -80t75.5 -54.5
q-1 8 -1.5 15t-0.5 15v11q1 16 -3.5 20t-8.5 12q-10 16 -4.5 33t19.5 23q11 5 25.5 3.5t22.5 -13.5q2 -3 3 -6t3 -5t6 -3t12 1q34 8 54.5 37t23.5 62q3 41 -17.5 66.5t-52 36t-67 5t-62.5 -26.5z" />
    <glyph glyph-name="T.swsh" horiz-adv-x="400" 
d="M345 553q-11 -41 -23 -83.5t-24 -83.5t-25 -79t-25 -69q-14 -33 -35.5 -64t-50 -53t-63 -30.5t-73.5 4.5q-9 3 -16.5 -3t-8.5 -15.5t6 -20t25 -14.5q45 -14 87 -1.5t77 40.5t61.5 67t41.5 79q12 32 25 71t25.5 80.5t24.5 85t23 84.5q5 17 8.5 30t7 25t7 24.5t8.5 29.5
q3 11 -3.5 18.5t-16 9.5t-19 -1.5t-12.5 -13.5q-10 -34 -16.5 -58.5t-15.5 -58.5zM1403 788q7 2 13.5 -0.5t11.5 -7.5q9 -12 2 -25q-5 -8 -12 -11q-55 -29 -116 -48.5t-124 -31t-127 -16.5t-126 -5q-67 0 -130.5 4.5t-126 13t-125.5 19.5t-128 24q-35 7 -70 13t-67 10.5
t-59.5 6t-46.5 -0.5q-41 -5 -65 -30t-31 -56t3 -61.5t38 -45.5q22 -12 48.5 -7.5t47.5 28.5q9 7 18 4.5t14.5 -10t6 -17t-8.5 -17.5q-38 -33 -81.5 -36.5t-76.5 16.5q-27 17 -42 43.5t-19 56t3.5 60t26 56t48 43t68.5 21.5q22 2 52 0.5t63 -6t68.5 -10.5t70.5 -13
q64 -13 126 -24.5t123.5 -20t124 -13t127.5 -4.5q57 0 117 4t119 14.5t115.5 27.5t108.5 43q5 2 9 4.5t9 4.5z" />
    <glyph glyph-name="U.swsh" horiz-adv-x="720" 
d="M433 748q-3 -4 -6 -8.5t-6 -9.5q-17 -28 -36 -68.5t-37.5 -89t-35.5 -101t-29 -104.5q-3 -12 -12.5 -18t-20 -6t-18.5 5.5t-7 16.5q10 43 23 87.5t28 86.5t31 80.5t31 70.5q4 10 3 16t-4 9t-8 4t-9 0q-24 -3 -49.5 -4.5t-50 -4t-47 -8t-39.5 -17.5q-38 -25 -57.5 -71
t-18 -96.5t26.5 -96.5t78 -71q42 -20 85 -20t84 24q33 20 57.5 53.5t34.5 73.5q4 16 12 22t17 4.5t16 -9t8 -17.5q-6 -34 -21.5 -64.5t-37.5 -56t-49.5 -44.5t-58.5 -29q-17 -5 -32.5 -15.5t-17.5 -29.5q-4 -41 0 -70q7 -52 35.5 -70t64.5 -12t72 32t58 63q25 42 43.5 90.5
t34 99t30 101.5t30.5 99q6 24 11 49t12 48q9 30 24.5 41t29 8t22 -16t4.5 -31q-7 -27 -20 -53.5t-23 -53.5q-18 -49 -35.5 -101t-32 -105.5t-25.5 -106.5t-16 -104q-7 -75 28 -130q24 -39 62 -61.5t82 -34.5t90.5 -15t87.5 -2q68 2 138 13t139 26.5t135.5 32.5t127.5 31
q66 15 130.5 18.5t128.5 -14.5q42 -11 77 -37.5t52 -67.5q9 -22 4.5 -34t-14 -15.5t-20 1t-13.5 16.5q-11 34 -39.5 55t-61.5 32q-52 18 -111 15.5t-121 -16.5q-68 -15 -136 -32.5t-137 -33t-139 -27t-140 -12.5q-45 -1 -98 3t-104 18t-94.5 39.5t-69.5 67.5
q-11 15 -19.5 35t-13.5 41.5t-6.5 43.5t1.5 40q-19 -34 -49 -59t-64 -38.5t-69.5 -14.5t-65 13t-50 43.5t-24.5 77.5q-2 17 -1.5 36t2.5 41q2 20 -9 29.5t-27 14.5q-57 18 -94 54.5t-54.5 81.5t-18 94.5t14 93.5t42.5 78.5t68 49.5q36 13 74.5 17.5t76 8t72.5 10.5t65 25
q5 4 11 7.5t13 5.5q11 5 20 4q10 -2 15.5 -11t3.5 -17q-1 -7 -9 -13q-5 -5 -9.5 -8.5t-9.5 -6.5q-5 -4 -8.5 -7.5z" />
    <glyph glyph-name="V.swsh" horiz-adv-x="701" 
d="M379 655q-18 -81 -36 -156t-36 -155q-3 -10 -12.5 -15t-19 -5.5t-16.5 4t-5 12.5q18 83 37 160.5t38 159.5q4 17 -2 25t-25 7q-22 -3 -45 -4.5t-45 -4t-42.5 -8t-38.5 -17.5q-33 -23 -51.5 -61.5t-20.5 -83.5q-2 -42 13 -83t48 -73q28 -26 62 -39.5t69 -12.5t68 15.5
t60 43.5q17 19 30 42.5t20 49.5q4 16 12 22t17 4.5t16 -8.5t8 -18q-7 -36 -23.5 -68t-40.5 -58q-18 -19 -39 -34t-44 -25q-24 -10 -38.5 -30t-16.5 -40q-2 -15 -3 -29t-1 -28q1 -47 15 -68t35 -21.5t47 17.5t50 51q33 45 66 111t63 142t57 154t48 147q27 89 78 138t117 69.5
t142.5 17.5t155 -18.5t155 -38.5t142.5 -43q61 -18 119.5 -25t112.5 7q33 8 63 26.5t44 52.5q4 11 15 14.5t20 -0.5t12.5 -16.5t-6.5 -33.5q-21 -39 -58 -63t-79 -32q-66 -13 -130 -4.5t-128 28.5q-54 17 -121.5 37.5t-139.5 35.5t-143.5 20t-133.5 -10.5t-109 -56
t-69 -114.5q-21 -71 -51 -153t-63.5 -161.5t-70 -149.5t-70.5 -117q-36 -49 -76.5 -72t-76 -18t-59.5 38.5t-25 98.5q-1 30 3 61q4 23 -5.5 39.5t-42.5 27.5q-27 8 -52.5 21.5t-45.5 32.5q-41 37 -60 86t-19 100q0 35 8 68t23.5 61.5t38 49.5t51.5 32q36 13 72 18t70.5 8.5
t67 10.5t62.5 25q12 9 28 15q10 3 18.5 0.5t13 -9t4 -15t-9.5 -16.5q-8 -8 -17.5 -14t-17.5 -15q-4 -5 -9.5 -13.5t-10.5 -18.5l-9.5 -19t-5.5 -15z" />
    </font>
</defs>
</svg>
