<svg version="1" xmlns="http://www.w3.org/2000/svg" width="933.333" height="933.333" viewBox="0 0 700.000000 700.000000"><path d="M327.8.5c-.1.1-3.7.5-7.8.9-9.8.8-22.2 2.3-28.5 3.6-2.7.5-6.3 1.2-8 1.5-35.6 6.1-78.7 22.6-114 43.7C98.4 92.7 43.6 161.3 17.7 240.5c-4 12.2-5.9 18.4-7.3 24.5-2.1 9.1-5.5 25.6-5.9 28.6-.2 2.2-.7 5-1 6.4-.2 1.3-.7 4.9-1 8-.3 3-.9 8.9-1.4 13-.8 7.1-.6 56.1.3 62.5.2 1.6.7 4.8 1 7 1.4 10.4 1.8 13.2 2.2 16 .2 1.6.8 5.2 1.4 8 .6 2.7 1.2 5.9 1.4 7.1 6.4 33.4 23.4 77.1 41.8 107.2 3.5 5.7 6.8 11.1 7.3 12 4.7 8.2 22.1 30.8 32.8 42.6C130 628.3 179 661 235 680.5c11.5 4 34.3 10.4 42.1 11.9 1.3.2 5.1.9 8.4 1.5 3.3.6 7.1 1.3 8.4 1.6 1.4.2 4.5.7 7 1 2.5.3 5.7.7 7.1 1 15.3 3.1 69.5 2.6 90.7-.9 2.1-.4 5.2-.8 6.8-1 5.6-.7 19.5-3.6 27.8-5.7 4.5-1.1 8.9-2.2 9.7-2.4 4-.8 28.6-9.2 37.9-13 47.4-19.1 90.7-48.9 125.3-86.2 11.9-13 13.9-15.3 23.3-27.8 30.2-40.1 54.1-92.7 63-138.5 5.8-29.8 7-41.8 7-72 0-18.7-1.1-40.4-2-42-.2-.3-.6-3-.9-6-.3-3-.8-6.6-1.1-8-.3-1.4-.8-4.1-1.1-6-5.5-35.6-23.5-83.4-44.1-117.5-25.8-42.6-61.8-80.9-103.3-109.7C502.7 30.1 443.4 7.9 390.5 2.4c-2.7-.3-6.6-.8-8.5-1-3.9-.6-53.6-1.4-54.2-.9zM375 16.4c19.2 1.8 36.3 4.6 52.5 8.7 6.6 1.7 12.7 3.2 13.6 3.4.9.2 6.4 1.9 12.2 3.9C554.1 66.1 632.5 145 665.6 246c7.5 22.9 12.4 46.7 15.1 73.5 1.5 15.3.8 58.8-1.1 70.5-.3 1.4-.7 4.7-1.1 7.5-.3 2.7-1 7-1.5 9.5s-1.2 5.6-1.4 7c-4.5 25.4-15.8 58.5-29 84.9-16.6 33-36.2 59.9-62.5 86.1-15.4 15.3-17.2 16.9-29.8 26.8-9.1 7.3-10.9 8.2-11 5.9-.1-1.7-1.4-14.6-1.8-18.2-.5-3.5-.5-36.1-.1-42 .4-5 1.5-15.9 2.1-20.5.3-1.9.7-6 1-9 .5-4.9 4.8-32.3 5.9-37.6.2-1.2.7-3.7 1-5.5.3-1.9.8-4.5 1.1-5.9.3-1.4 1-4.5 1.5-7 1.3-6.7 8.6-35.9 11.9-48 8.3-30.3 33.4-105.8 38.7-116.6 6-12.4 13.6-16.9 24.2-14.4 8.2 2 8.7 2 11.7-.7 3-2.9 4.5-6.2 4.5-10.3 0-9.4-22.1-15.5-45-12.5-6.3.8-17.6 4.3-23 7-11.9 6-28.3 20.6-43.1 38.3-6.6 8-23.6 30.5-29.9 39.8-7.4 10.9-38 55.2-44.1 63.9-24.1 34.3-36.2 61.9-35.2 79.9.5 8.5 1.9 12.8 5.6 17.4 6.4 8 14.8 10.3 24.6 7 7.2-2.4 11.1-5.5 15.9-12.8 8-11.9 12-28.4 12.8-52 1-31.8.8-31.3 22.8-65.5 25.2-39.4 35.1-52.8 48.7-66.9 8.4-8.6 8.8-8.9 12.4-8.3 4.4.7 6.5 2.3 6.5 4.8 0 1-4 13.9-8.9 28.6-14.5 43.3-26.8 85.3-30.5 103.7-.3 1.2-1.7 7.3-3.1 13.6-1.4 6.3-2.8 12.6-3.1 14-.4 2.2-1.5 8-2.9 15-.8 3.7-3.3 19.9-4 25-.3 2.5-.8 6.1-1 8-2.4 16.6-3 27-3 50.5 0 23.2.6 32.8 3 46.5.7 4.1 1.2 7.5 1.2 7.6-3 2-16.9 9.5-25.2 13.7-29.9 15-70.3 27.8-98.8 31.2-2.3.3-5.1.7-6.2.9-1.8.3-9.3 1.1-20.5 2.2-5.2.4-41 .4-45 0-1.9-.3-6.9-.7-11-1.1-16.3-1.3-47.3-7.4-64-12.7-8.7-2.7-22.8-7.7-26.5-9.3-1.6-.7-5-2.1-7.5-3.1-8.1-3.1-36.3-17.8-46.8-24.4-20.9-13.1-38.4-27.2-57.2-46-15.6-15.5-18.6-18.9-28.6-32-25.9-33.8-44.2-69.2-56-108-3.6-11.9-7.6-28.5-8.8-36.5-.4-2.2-1.1-6.7-1.6-10-1.7-10.6-2-12.8-2.7-22.5-1.4-17.6-.7-56.9 1.1-66.7.2-1.1.7-4.4 1-7.5.3-3 1.1-7.9 1.7-10.9.6-3 1.3-6.8 1.5-8.4.3-1.7 1-4.8 1.6-7 .5-2.2 1.2-4.8 1.3-5.7 3.2-16.5 15-48.6 25.8-70.7 11-22.2 29.3-50.1 43.3-66.1C134.4 86.2 181.8 53.7 239 33.5c13.6-4.8 41.2-11.8 51-13.1 2.5-.3 5.2-.7 6-.9 1.3-.4 5.7-1 14.5-2.1 1.7-.2 7.3-.6 12.5-1 5.2-.3 9.6-.7 9.7-.8.5-.5 36.3.2 42.3.8zm87.9 442.5c2.5 1.6-.1 25.2-4 35.5-3.4 9.3-9.2 13.2-13.3 9.1-4.2-4.3 2.9-31.3 11.1-42.3 2.5-3.3 3.8-3.8 6.2-2.3z"/><path d="M417.5 84.9c-4 1.7-6.7 6.5-8 14.5-.3 2.1-1.9 7.6-3.5 12.3-11.5 33.7-48 74.2-97.1 107.5-6.9 4.7-14.5 9.7-17 11.1-21.3 12.4-24.2 13.4-27.9 9.7-5.3-5.3-5.2-9.1 1-34.8 6.2-25.5 8.9-34.5 14.7-48.7 7.8-19.3 12.1-24.9 28.5-38 8.1-6.4 9.8-8.8 9.8-13.6 0-5.3-3.4-9.5-8.8-11.1-3.9-1.1-11.3 1.9-20.2 8.3-23 16.7-32.1 17.7-79.5 9.4-2.2-.4-5.1-.9-6.5-1.1-1.4-.3-8.1-.6-15-.9-17.9-.6-30.3 2.6-42.9 10.9-19.2 12.8-30.6 33.8-31.8 58.6-.4 8.9-.2 12.9 1.1 17.8C119.2 215.1 130 227 147 233c9.7 3.4 22.6 3.2 33.9-.6 10.3-3.4 22.3-10.9 24-15.1 2.2-5.5-.3-11.6-5.5-13.3-3.7-1.3-6-.5-13.5 4.3-7.9 5.1-14.2 7-22.9 7-12.1.1-20.9-5.4-25.8-16.1-7.5-16.4-.7-41.4 15.1-56.4 11.2-10.5 29.9-15.3 46.2-11.9 2.8.6 7.3 1.5 10 2.1 2.8.5 6.4 1.2 8 1.5 1.7.3 4.4.8 6 1.1 1.7.3 3.7.7 4.5 1 .8.3 4 .8 7 1 3 .3 6.9.7 8.5.9 1.7.1 4.4.3 6.2.4 4.4.1 8.2 3.7 8.7 8.2.2 2.2-.5 6.4-1.9 10.5-5.4 16.2-8.9 28.1-14.1 47.4-6.3 23.7-9 31.1-14 39.7-9.6 16.2-17.6 23.2-37.4 32.9-7.4 3.7-18.7 9.2-25 12.3-13.6 6.7-35.6 20.4-47.6 29.6-23.4 18-36.2 32.5-45.3 51-9.7 19.7-10.6 35.7-2.9 50.8 3.7 7.3 13.1 14.8 23.1 18.3 11.2 4 34.1.1 49.7-8.4 14.8-8.1 38.9-30.2 52.2-47.9 13.9-18.5 28.4-45 38.8-70.9 5.7-14.1 5.9-16.6 1.8-20.4-2.6-2.4-7.3-2.6-12.6-.4-5.5 2.1-7.2 4.4-12.6 17.4-9.4 22.5-22.1 45.4-33.6 61-7 9.3-24.9 27.9-32.4 33.5-10.7 8-24.4 12.9-35.3 12.8-4.6-.1-11.3-4.2-14.7-9-2.7-3.8-2.9-5-3-12 0-35.2 42.5-71.2 125.9-106.5 30.2-12.8 57.9-24.5 59.9-25.2 1.1-.4 4.3-.9 7.1-1.2 14.4-1.6 24.5 11.9 23.2 30.6-.5 7.3-4.9 21.6-8.7 28.5-.9 1.6-4.6 8.2-8.1 14.5-8.3 14.8-10.2 18.8-13.9 30-3.8 11.2-5.4 21.3-5.4 33.7 0 7.2.4 8.9 3.4 15 5.7 11.6 16.1 20 28.6 22.9 5.8 1.3 16.5 1 22.9-.7 10.2-2.8 24.7-12.5 28-18.9 1.9-3.7.4-9.1-3.6-12.4-4.2-3.6-7.3-3.3-13.3 1.3-8.8 6.7-11.2 7.6-20.6 7.6-13 0-19.8-4.2-21.9-13.5-1.2-5.4-.8-8.4 2.5-21 1.4-5.2 2.7-10.2 2.9-11 .6-2.8 4.3-11.6 6.5-15.5 11-19.7 22.1-27.5 46-32.9 10.7-2.4 13-2.7 25-3 20.9-.5 28.4 2.6 27.4 11.5-.3 2.4-2.7 10.3-5.4 17.6-5.5 14.8-8.1 22.5-16.4 48.8-20.9 65.6-26.1 80.2-38.3 108.5-13.2 30.7-28.7 55.9-43.9 71.6-20.3 20.9-42.1 28.3-63 21.4-7.8-2.7-12-2.7-14.7-.2-8 7.2-5.1 18.1 6 22.2 7.8 2.9 12.1 3.5 24.8 3.4 12.8-.1 20.1-1.8 32.4-7.5 25.6-11.9 50-40.6 70.1-82.3 15.4-32 21.5-48.3 46.8-124.1 25.1-75.2 29.3-84.2 38.2-80.5 2.9 1.2 4.5 4.1 5.4 9.5.3 1.6 1.7 9.1 3.1 16.5 1.5 7.4 2.8 14.4 3 15.5 1.9 12.1 3.6 19.2 4.9 21.1 1.8 2.4 7.6 2.2 10.9-.2 1.4-1.1 3.3-3.2 4.3-4.9 2-3.3 2.7-12.7 1.4-17.7-.5-1.8-1.1-5-1.5-7.2-.3-2.1-.7-4.1-.9-4.5-.2-.3-.6-2.9-1-5.6-.3-2.8-.8-5.9-1-7-.2-1.1-.7-4-1.1-6.5-.4-2.5-.9-5.2-1-6.1-2.4-12.8-2.4-35.8-.1-41.4 3.4-7.9 1.6-14.9-4.5-18.1-5.1-2.6-10.5-.9-25.7 7.8-4.6 2.6-8.6 4.8-9 4.8-.3 0-1.3.6-2.1 1.3-1.9 1.6-13.5 6.5-17.1 7.3-8.1 1.6-19.4 3.4-25.5 3.9-3.8.3-9.5.8-12.5 1.1-8.6.8-28.6 4.4-35.8 6.5-3.6 1-6.7 1.8-6.8 1.6-.1-.1.2-2.2.6-4.7 2.3-11.7.6-22.5-5.6-36.3-3.8-8.3-4-12-1.4-21.8 1.7-6.4 5.2-10.2 21-22.7 37.8-30.1 56.1-49.9 72.7-78.7 9.1-15.7 17.3-38.5 17.3-48 0-6.6-8.6-11.4-15.5-8.6z"/></svg>