<svg xmlns="http://www.w3.org/2000/svg" viewBox="0 0 154.57 154.57" id="logo-svg"><title>KM-monogram</title><g id="Layer_2" data-name="Layer 2"><g id="monogram"><g id="KM-monogram"><path d="M77.29,0a77.29,77.29,0,1,0,77.28,77.29A77.37,77.37,0,0,0,77.29,0Zm42.78,136.88a63.46,63.46,0,0,1-.53-13.56,149.56,149.56,0,0,1,2.06-15.49c1-5.45,2.65-11.91,4.23-17.29s3.21-10.18,5-15.41c.26-.77.58-1.56.84-2.41s.62-1.91.92-2.76a22.5,22.5,0,0,1,1.12-2.52A8.61,8.61,0,0,1,135,65.57a4,4,0,0,1,2.36-1.08,4.65,4.65,0,0,1,2.25.4c.64.22.87.29,1.39,0a2.15,2.15,0,0,0,1-1,2.48,2.48,0,0,0,.43-1.49,1.52,1.52,0,0,0-.6-1.41,6.45,6.45,0,0,0-2.33-1.16,15.71,15.71,0,0,0-2.89-.49,19.27,19.27,0,0,0-3,.06,18.43,18.43,0,0,0-2.82.45,14.78,14.78,0,0,0-4.63,1.91,27.55,27.55,0,0,0-4.15,3.3,57.5,57.5,0,0,0-5.64,6.31c-1.8,2.32-3.71,5-5.45,7.46s-3.58,5.18-5.27,7.68-3.22,4.69-5,7.18c-.83,1.19-1.65,2.5-2.46,3.87s-1.77,3.12-2.47,4.63a28.68,28.68,0,0,0-1.7,4.86,10.47,10.47,0,0,0-.12,4.51,5.39,5.39,0,0,0,1.7,3,4,4,0,0,0,3.14,1.22,6,6,0,0,0,4.52-2.13,13.09,13.09,0,0,0,2.49-4.85,28.76,28.76,0,0,0,1-5.72,48.46,48.46,0,0,0,.1-5,10.84,10.84,0,0,1,.54-3.78,15.66,15.66,0,0,1,1.7-3.4c1.13-1.82,2.35-3.62,3.45-5.36s2.1-3.3,3.23-5,2.2-3.2,3.47-4.83a54.94,54.94,0,0,1,4.28-4.88,2.12,2.12,0,0,1,2.29-.73c.85.31,1.12.74.82,1.72-1.11,3.6-2.34,6.93-3.54,10.69s-2.46,7.86-3.53,11.85-2.18,8.62-3,12.65-1.55,8.62-1.91,12.34a81.66,81.66,0,0,0-.5,9,61.23,61.23,0,0,0,1.07,11.76,73.74,73.74,0,1,1,4.79-3.18Zm-17.62-34.63c0,.63,0,1.5-.14,2.34s-.27,2.16-.48,3.07a9.59,9.59,0,0,1-1,2.73c-.46.75-.92,1.2-1.78,1.1s-1-.6-1-1.5a15.35,15.35,0,0,1,.53-3.11,23.8,23.8,0,0,1,1.17-3.19,7.77,7.77,0,0,1,1.13-2c.45-.48.6-.57,1.14-.48S102.47,101.61,102.45,102.25Z"/><path d="M104,77.85c-.26-1.52-.55-3.22-.76-4.71s-.36-3-.44-4.44a21.91,21.91,0,0,1,.1-3.82,3.31,3.31,0,0,1,.36-1.1,4.21,4.21,0,0,0,.36-1.12,2.6,2.6,0,0,0-.28-1.69,2.76,2.76,0,0,0-1.24-1.14,2.53,2.53,0,0,0-1.25-.13,4.06,4.06,0,0,0-1.13.28c-1.28.58-2.75,1.39-3.82,2s-1.49.94-2.51,1.44a13,13,0,0,1-2.85,1.11,28.46,28.46,0,0,1-4.57.83c-2.66.28-5.65.41-8.55,1a36.1,36.1,0,0,0-5,1.29c.18-.77.33-1.56.44-2.37a11,11,0,0,0-.35-3.89A15.19,15.19,0,0,0,71,57.62a3,3,0,0,1-.32-1.52,9.65,9.65,0,0,1,.26-1.88,7.91,7.91,0,0,1,.67-1.82,4.26,4.26,0,0,1,1-1.34c2.56-2,5.07-3.89,7.51-6a64.68,64.68,0,0,0,6.92-6.93,47,47,0,0,0,5.44-8A32.7,32.7,0,0,0,95.66,21a1.76,1.76,0,0,0-.54-1.63,2.44,2.44,0,0,0-1.58-.78,2.18,2.18,0,0,0-1.78.41A2.88,2.88,0,0,0,90.63,21a23.56,23.56,0,0,1-2.35,6.91,42.61,42.61,0,0,1-4.49,6.73,63.93,63.93,0,0,1-6,6.26,83.72,83.72,0,0,1-6.64,5.46,92.44,92.44,0,0,1-10.81,6.87,1.6,1.6,0,0,1-1.44.15,1.64,1.64,0,0,1-1-.84,3.57,3.57,0,0,1-.5-1.38,3.35,3.35,0,0,1,.06-1.5c.66-2.58,1.41-5.74,2-8.23.45-1.74.81-2.81,1.31-4.37a45.62,45.62,0,0,1,1.77-4.35,12.17,12.17,0,0,1,2.83-4.27c1.32-1.19,2.72-2.3,4.1-3.43a2.23,2.23,0,0,0,.79-1.52,2.43,2.43,0,0,0-.4-1.68,2.66,2.66,0,0,0-1.4-1.09,2.72,2.72,0,0,0-2.08.25A17.07,17.07,0,0,0,63,23.18a10.85,10.85,0,0,1-3.8,2,15.86,15.86,0,0,1-5.92.55c-2-.2-3.68-.55-5.62-.88a53.37,53.37,0,0,0-5.82-.78,18,18,0,0,0-6.41.85A14,14,0,0,0,31,27.3a16.6,16.6,0,0,0-3.21,3.5,18.12,18.12,0,0,0-2,4.15,16.35,16.35,0,0,0-.84,4.38,12.55,12.55,0,0,0,1.53,7.3A10.28,10.28,0,0,0,31.24,51a11.3,11.3,0,0,0,6.5.89,14.56,14.56,0,0,0,6.78-3,2.21,2.21,0,0,0,.94-1.57,2.27,2.27,0,0,0-.4-1.54,2,2,0,0,0-1.29-.84,2.13,2.13,0,0,0-1.71.4,11.21,11.21,0,0,1-4.71,2.19A6.72,6.72,0,0,1,33.12,47a5.53,5.53,0,0,1-2.83-3,8,8,0,0,1-.58-4.89,13.9,13.9,0,0,1,2.18-5.61,10.78,10.78,0,0,1,4.94-4,11.61,11.61,0,0,1,6.72-.64c2.37.48,4.75.93,7.24,1.44,1.5.31,3,.12,4.67.46s1.68,2.17,1,4S55,39.2,54.41,41.24c-.44,1.54-.87,3-1.29,4.63s-.77,3.14-1.3,4.81a19.85,19.85,0,0,1-2.56,4.88,14.71,14.71,0,0,1-4,4,41.94,41.94,0,0,1-5.8,3,55.89,55.89,0,0,0-6,3c-2.34,1.37-4.86,3-6.8,4.43a51.68,51.68,0,0,0-5.24,4.35,29.59,29.59,0,0,0-5.05,6.45,17,17,0,0,0-2.11,5.91,8.72,8.72,0,0,0,.44,5,7,7,0,0,0,2.56,3.68c2.22,1.56,3.9,2.36,7.11,2a18.25,18.25,0,0,0,9.33-3.66,44.73,44.73,0,0,0,9.91-10,74.3,74.3,0,0,0,8.69-16.92,2,2,0,0,0-.08-2A2,2,0,0,0,50.65,64a4.69,4.69,0,0,0-2.07.59,3.45,3.45,0,0,0-1.48,1.67,74,74,0,0,1-7,13.72,41,41,0,0,1-7.34,8.26,14.36,14.36,0,0,1-6.54,3.44c-2.19.48-3.16.46-4.65-.74s-1.8-2.46-1.57-4.83a13.77,13.77,0,0,1,3.69-7.35A39.84,39.84,0,0,1,31,72.48a83,83,0,0,1,8.83-5.09c3-1.47,6.34-3,9.41-4.25s6-2.48,9-3.78c.66-.28,1.27-.57,1.94-.84a8.23,8.23,0,0,1,2.12-.58,4.69,4.69,0,0,1,2,.1,3.54,3.54,0,0,1,1.82,1.1,6,6,0,0,1,1.36,2.58,8.26,8.26,0,0,1,.34,3.2,21.15,21.15,0,0,1-3.09,7.93c-.45.77-.82,1.44-1.17,2.07a29.38,29.38,0,0,0-1.4,2.72c-.22.47-.41,1-.6,1.51l-.26.62a24.37,24.37,0,0,0-1.58,7.65c0,.09,0,.18,0,.27a7.58,7.58,0,0,0,1.15,4.69,6.76,6.76,0,0,0,1.57,1.86,9.16,9.16,0,0,0,1.71,1.38,9.56,9.56,0,0,0,3.11,1.13,8.63,8.63,0,0,0,2.87,0c.35,0,.7,0,1-.1a12.45,12.45,0,0,0,6.28-3.45,2.53,2.53,0,0,0,.64-.79,1.48,1.48,0,0,0,.24-1,3,3,0,0,0-.64-1.54A2.25,2.25,0,0,0,76.3,89a1.91,1.91,0,0,0-1.71.63,7.64,7.64,0,0,1-3.28,1.88,2.73,2.73,0,0,0-.48.1,6.49,6.49,0,0,1-2.53-.06h0a7.24,7.24,0,0,1-.75-.24l-.18-.07L66.8,91a3.72,3.72,0,0,1-1.49-1.3A5.23,5.23,0,0,1,65,85.84c.2-.89.46-1.93.76-3l.39-1.29s0-.09,0-.13c.08-.25.16-.5.24-.72.19-.54.41-1.11.67-1.68a33.26,33.26,0,0,1,2.27-3.72l.25-.3a11.7,11.7,0,0,1,3.81-2.85,24.7,24.7,0,0,1,4.73-1.48,22.62,22.62,0,0,1,4.76-.56,22.29,22.29,0,0,1,4.11.13c2.52.52,2.82,1.64,1.88,4.29-.6,1.69-1.54,3.91-2.23,6.09S85.05,85.44,84.26,88s-1.72,5.42-2.59,8.11-1.87,5.76-2.89,8.46c-1.16,3.09-2.59,6.43-3.92,9.33a66.42,66.42,0,0,1-4.51,8.2,33.66,33.66,0,0,1-5.29,6.29,16.09,16.09,0,0,1-6.14,3.57,9.55,9.55,0,0,1-3.74.46,11.62,11.62,0,0,1-3.71-.92,2.12,2.12,0,0,0-1.87,0,2.55,2.55,0,0,0-1.25,1.43,2.68,2.68,0,0,0,0,2A2.77,2.77,0,0,0,50,136.49a14.31,14.31,0,0,0,5,1.08,16.13,16.13,0,0,0,5.06-.59,19.63,19.63,0,0,0,7.74-4.2,37.45,37.45,0,0,0,6.36-7.32,68.32,68.32,0,0,0,5.27-9.53c1.54-3.36,3.11-7.18,4.44-10.76,1-2.8,2.06-5.91,3-8.71s1.91-5.8,2.79-8.46,1.77-5.33,2.64-7.74a59.57,59.57,0,0,1,2.73-6.6c.49-1,.92-1.42,1.85-1.37s1.26.34,1.53,1.54c.79,3.55,1.46,8,2.24,11.69a1.21,1.21,0,0,0,1,1.11,1.61,1.61,0,0,0,1.5-.25A3.22,3.22,0,0,0,104.43,85a4.29,4.29,0,0,0,.43-2.46C104.66,81.05,104.29,79.36,104,77.85Z"/></g></g></g></svg>